Advent Pro-Regular.ufo
<glyph name="exclam" format="1">
  <advance width="294"/>
  <unicode hex="0021"/>
  <outline>
    <contour>
      <point x="100" y="240" type="line"/>
      <point x="80" y="1342" type="line"/>
      <point x="80" y="1393"/>
      <point x="103" y="1416"/>
      <point x="146" y="1416" type="curve"/>
      <point x="190" y="1416"/>
      <point x="212" y="1392"/>
      <point x="212" y="1344" type="curve"/>
      <point x="194" y="240" type="line"/>
    </contour>
    <contour>
      <point x="146" y="134" type="curve"/>
      <point x="183" y="134"/>
      <point x="212" y="105"/>
      <point x="212" y="68" type="curve"/>
      <point x="212" y="31"/>
      <point x="183" y="0"/>
      <point x="146" y="0" type="curve"/>
      <point x="109" y="0"/>
      <point x="80" y="31"/>
      <point x="80" y="68" type="curve"/>
      <point x="80" y="105"/>
      <point x="109" y="134"/>
    </contour>
  </outline>
</glyph>
<glyph name="quotedbl" format="1">
  <advance width="532"/>
  <unicode hex="0022"/>
  <outline>
    <contour>
      <point x="360" y="1172" type="line"/>
      <point x="332" y="1402" type="line"/>
      <point x="332" y="1496"/>
      <point x="468" y="1496"/>
      <point x="468" y="1402" type="curve"/>
      <point x="440" y="1172" type="line"/>
    </contour>
    <contour>
      <point x="90" y="1172" type="line"/>
      <point x="62" y="1402" type="line"/>
      <point x="62" y="1496"/>
      <point x="198" y="1496"/>
      <point x="198" y="1402" type="curve"/>
      <point x="168" y="1172" type="line"/>
    </contour>
  </outline>
</glyph>
<glyph name="numbersign" format="1">
  <advance width="1218"/>
  <unicode hex="0023"/>
  <outline>
    <contour>
      <point x="862" y="826" type="line"/>
      <point x="782" y="486" type="line"/>
      <point x="1154" y="486" type="line"/>
      <point x="1154" y="378" type="line"/>
      <point x="756" y="378" type="line"/>
      <point x="668" y="0" type="line"/>
      <point x="558" y="0" type="line"/>
      <point x="646" y="378" type="line"/>
      <point x="410" y="378" type="line"/>
      <point x="322" y="0" type="line"/>
      <point x="212" y="0" type="line"/>
      <point x="300" y="378" type="line"/>
      <point x="60" y="378" type="line"/>
      <point x="60" y="486" type="line"/>
      <point x="326" y="486" type="line"/>
      <point x="404" y="826" type="line"/>
      <point x="60" y="826" type="line"/>
      <point x="60" y="938" type="line"/>
      <point x="432" y="938" type="line"/>
      <point x="538" y="1396" type="line"/>
      <point x="648" y="1396" type="line"/>
      <point x="542" y="938" type="line"/>
      <point x="778" y="938" type="line"/>
      <point x="886" y="1396" type="line"/>
      <point x="994" y="1396" type="line"/>
      <point x="886" y="938" type="line"/>
      <point x="1154" y="938" type="line"/>
      <point x="1154" y="826" type="line"/>
    </contour>
    <contour>
      <point x="436" y="486" type="line"/>
      <point x="674" y="486" type="line"/>
      <point x="752" y="826" type="line"/>
      <point x="514" y="826" type="line"/>
    </contour>
  </outline>
</glyph>
<glyph name="dollar" format="1">
  <advance width="1056"/>
  <unicode hex="0024"/>
  <outline>
    <contour>
      <point x="608" y="-226" type="line"/>
      <point x="496" y="-226" type="line"/>
      <point x="496" y="1630" type="line"/>
      <point x="608" y="1630" type="line"/>
    </contour>
    <component base="S"/>
  </outline>
</glyph>
<glyph name="percent" format="1">
  <advance width="1422"/>
  <unicode hex="0025"/>
  <outline>
    <contour>
      <point x="230" y="0" type="line"/>
      <point x="96" y="0" type="line"/>
      <point x="1170" y="1396" type="line"/>
      <point x="1298" y="1396" type="line"/>
    </contour>
    <contour>
      <point x="350" y="1424" type="curve"/>
      <point x="510" y="1424"/>
      <point x="640" y="1295"/>
      <point x="640" y="1132" type="curve"/>
      <point x="640" y="972"/>
      <point x="510" y="842"/>
      <point x="350" y="842" type="curve"/>
      <point x="189" y="842"/>
      <point x="58" y="972"/>
      <point x="58" y="1132" type="curve"/>
      <point x="58" y="1295"/>
      <point x="189" y="1424"/>
    </contour>
    <contour>
      <point x="350" y="1322" type="curve"/>
      <point x="247" y="1322"/>
      <point x="160" y="1235"/>
      <point x="160" y="1132" type="curve"/>
      <point x="160" y="1032"/>
      <point x="247" y="944"/>
      <point x="350" y="944" type="curve"/>
      <point x="452" y="944"/>
      <point x="538" y="1032"/>
      <point x="538" y="1132" type="curve"/>
      <point x="538" y="1235"/>
      <point x="452" y="1322"/>
    </contour>
    <contour>
      <point x="1068" y="552" type="curve"/>
      <point x="1230" y="552"/>
      <point x="1358" y="422"/>
      <point x="1358" y="262" type="curve"/>
      <point x="1358" y="102"/>
      <point x="1230" y="-28"/>
      <point x="1068" y="-28" type="curve"/>
      <point x="911" y="-28"/>
      <point x="780" y="102"/>
      <point x="780" y="262" type="curve"/>
      <point x="780" y="422"/>
      <point x="911" y="552"/>
    </contour>
    <contour>
      <point x="1068" y="452" type="curve"/>
      <point x="967" y="452"/>
      <point x="882" y="370"/>
      <point x="882" y="262" type="curve"/>
      <point x="882" y="157"/>
      <point x="967" y="74"/>
      <point x="1068" y="74" type="curve"/>
      <point x="1176" y="74"/>
      <point x="1258" y="157"/>
      <point x="1258" y="262" type="curve"/>
      <point x="1258" y="370"/>
      <point x="1176" y="452"/>
    </contour>
  </outline>
</glyph>
<glyph name="ampersand" format="1">
  <advance width="1054"/>
  <unicode hex="0026"/>
  <outline>
    <contour>
      <point x="806" y="1404" type="line"/>
      <point x="756" y="1302" type="line"/>
      <point x="482" y="1302" type="line" smooth="yes"/>
      <point x="369" y="1302"/>
      <point x="304" y="1215"/>
      <point x="304" y="1086" type="curve"/>
      <point x="304" y="928"/>
      <point x="430" y="804"/>
      <point x="590" y="804" type="curve"/>
      <point x="690" y="804" type="line"/>
      <point x="690" y="1010" type="line"/>
      <point x="796" y="1010" type="line"/>
      <point x="796" y="806" type="line"/>
      <point x="994" y="806" type="line"/>
      <point x="948" y="698" type="line"/>
      <point x="796" y="698" type="line"/>
      <point x="796" y="272" type="line" smooth="yes"/>
      <point x="796" y="168"/>
      <point x="844" y="100"/>
      <point x="932" y="68" type="curve"/>
      <point x="906" y="-18" type="line"/>
      <point x="815" y="9"/>
      <point x="753" y="52"/>
      <point x="724" y="124" type="curve"/>
      <point x="644" y="28"/>
      <point x="503" y="-12"/>
      <point x="414" y="-12" type="curve"/>
      <point x="195" y="-12"/>
      <point x="65" y="92"/>
      <point x="60" y="318" type="curve"/>
      <point x="60" y="508" type="line" smooth="yes"/>
      <point x="60" y="714"/>
      <point x="164" y="793"/>
      <point x="308" y="804" type="curve"/>
      <point x="346" y="804" type="line"/>
      <point x="226" y="884"/>
      <point x="196" y="1010"/>
      <point x="192" y="1092" type="curve"/>
      <point x="184" y="1273"/>
      <point x="290" y="1404"/>
      <point x="476" y="1404" type="curve"/>
    </contour>
    <contour>
      <point x="690" y="352" type="curve"/>
      <point x="690" y="698" type="line"/>
      <point x="368" y="698" type="line" smooth="yes"/>
      <point x="297" y="698"/>
      <point x="172" y="686"/>
      <point x="172" y="502" type="curve"/>
      <point x="172" y="328" type="line" smooth="yes"/>
      <point x="172" y="173"/>
      <point x="265" y="84"/>
      <point x="436" y="100" type="curve"/>
      <point x="598" y="116"/>
      <point x="690" y="212"/>
    </contour>
  </outline>
</glyph>
<glyph name="quotesingle" format="1">
  <advance width="532"/>
  <unicode hex="0027"/>
  <outline>
    <contour>
      <point x="224" y="1174" type="line"/>
      <point x="198" y="1404" type="line"/>
      <point x="198" y="1497"/>
      <point x="332" y="1497"/>
      <point x="332" y="1404" type="curve"/>
      <point x="304" y="1174" type="line"/>
    </contour>
  </outline>
</glyph>
<glyph name="parenleft" format="1">
  <advance width="362"/>
  <unicode hex="0028"/>
  <outline>
    <contour>
      <point x="292" y="1630" type="curve"/>
      <point x="328" y="1556" type="line"/>
      <point x="237" y="1492"/>
      <point x="194" y="1391"/>
      <point x="194" y="1270" type="curve"/>
      <point x="194" y="885"/>
      <point x="194" y="508"/>
      <point x="194" y="124" type="curve"/>
      <point x="194" y="-2"/>
      <point x="237" y="-98"/>
      <point x="328" y="-162" type="curve"/>
      <point x="292" y="-238" type="line"/>
      <point x="190" y="-163"/>
      <point x="82" y="-115"/>
      <point x="82" y="140" type="curve"/>
      <point x="82" y="1250" type="line" smooth="yes"/>
      <point x="82" y="1451"/>
      <point x="151" y="1553"/>
    </contour>
  </outline>
</glyph>
<glyph name="parenright" format="1">
  <advance width="364"/>
  <unicode hex="0029"/>
  <outline>
    <contour>
      <point x="34" y="1556" type="curve"/>
      <point x="72" y="1630" type="line"/>
      <point x="212" y="1554"/>
      <point x="280" y="1451"/>
      <point x="280" y="1250" type="curve"/>
      <point x="280" y="140" type="line" smooth="yes"/>
      <point x="280" y="-115"/>
      <point x="174" y="-163"/>
      <point x="72" y="-238" type="curve"/>
      <point x="34" y="-162" type="line"/>
      <point x="125" y="-98"/>
      <point x="168" y="-2"/>
      <point x="168" y="124" type="curve"/>
      <point x="168" y="508"/>
      <point x="168" y="885"/>
      <point x="168" y="1270" type="curve"/>
      <point x="168" y="1391"/>
      <point x="125" y="1492"/>
    </contour>
  </outline>
</glyph>
<glyph name="asterisk" format="1">
  <advance width="704"/>
  <unicode hex="002A"/>
  <outline>
    <contour>
      <point x="46" y="1154" type="line"/>
      <point x="82" y="1250" type="line"/>
      <point x="290" y="1170" type="line"/>
      <point x="290" y="1396" type="line"/>
      <point x="398" y="1396" type="line"/>
      <point x="398" y="1170" type="line"/>
      <point x="612" y="1250" type="line"/>
      <point x="654" y="1154" type="line"/>
      <point x="436" y="1078" type="line"/>
      <point x="568" y="898" type="line"/>
      <point x="486" y="836" type="line"/>
      <point x="348" y="1028" type="line"/>
      <point x="218" y="836" type="line"/>
      <point x="128" y="898" type="line"/>
      <point x="258" y="1078" type="line"/>
    </contour>
  </outline>
</glyph>
<glyph name="plus" format="1">
  <advance width="756"/>
  <unicode hex="002B"/>
  <outline>
    <contour>
      <point x="322" y="1056" type="line"/>
      <point x="432" y="1056" type="line"/>
      <point x="432" y="794" type="line"/>
      <point x="694" y="794" type="line"/>
      <point x="694" y="684" type="line"/>
      <point x="432" y="684" type="line"/>
      <point x="432" y="418" type="line"/>
      <point x="322" y="418" type="line"/>
      <point x="322" y="684" type="line"/>
      <point x="56" y="684" type="line"/>
      <point x="56" y="794" type="line"/>
      <point x="322" y="794" type="line"/>
    </contour>
  </outline>
</glyph>
<glyph name="comma" format="1">
  <advance width="532"/>
  <unicode hex="002C"/>
  <outline>
    <contour>
      <point x="230" y="-194" type="curve"/>
      <point x="196" y="-170" type="line"/>
      <point x="239" y="-117"/>
      <point x="253" y="-63"/>
      <point x="258" y="-20" type="curve"/>
      <point x="226" y="-15"/>
      <point x="202" y="14"/>
      <point x="202" y="46" type="curve"/>
      <point x="202" y="83"/>
      <point x="231" y="112"/>
      <point x="268" y="112" type="curve"/>
      <point x="305" y="112"/>
      <point x="333" y="86"/>
      <point x="336" y="46" type="curve"/>
      <point x="336" y="-79"/>
      <point x="269" y="-160"/>
    </contour>
  </outline>
</glyph>
<glyph name="hyphen" format="1">
  <advance width="782"/>
  <unicode hex="002D"/>
  <outline>
    <contour>
      <point x="706" y="710" type="line"/>
      <point x="68" y="710" type="line"/>
      <point x="68" y="826" type="line"/>
      <point x="706" y="826" type="line"/>
    </contour>
  </outline>
</glyph>
<glyph name="period" format="1">
  <advance width="272"/>
  <unicode hex="002E"/>
  <outline>
    <contour>
      <point x="136" y="114" type="curve"/>
      <point x="173" y="114"/>
      <point x="204" y="85"/>
      <point x="204" y="48" type="curve"/>
      <point x="204" y="11"/>
      <point x="173" y="-18"/>
      <point x="136" y="-18" type="curve"/>
      <point x="101" y="-18"/>
      <point x="70" y="11"/>
      <point x="70" y="48" type="curve"/>
      <point x="70" y="85"/>
      <point x="101" y="114"/>
    </contour>
  </outline>
</glyph>
<glyph name="one" format="1">
  <advance width="470"/>
  <unicode hex="0031"/>
  <outline>
    <contour>
      <point x="54" y="1162" type="curve"/>
      <point x="26" y="1240" type="line"/>
      <point x="21" y="1240"/>
      <point x="188" y="1283"/>
      <point x="276" y="1396" type="curve"/>
      <point x="384" y="1396" type="line"/>
      <point x="384" y="0" type="line"/>
      <point x="278" y="0" type="line"/>
      <point x="278" y="1264" type="line"/>
      <point x="230" y="1228"/>
      <point x="121" y="1170"/>
    </contour>
  </outline>
</glyph>
<glyph name="two" format="1">
  <advance width="824"/>
  <unicode hex="0032"/>
  <outline>
    <contour>
      <point x="188" y="1138" type="curve"/>
      <point x="84" y="1176" type="line"/>
      <point x="145" y="1341"/>
      <point x="281" y="1413"/>
      <point x="414" y="1416" type="curve"/>
      <point x="584" y="1420"/>
      <point x="758" y="1300"/>
      <point x="754" y="1098" type="curve"/>
      <point x="754" y="1018"/>
      <point x="727" y="929"/>
      <point x="644" y="788" type="curve"/>
      <point x="492" y="559"/>
      <point x="340" y="334"/>
      <point x="188" y="106" type="curve"/>
      <point x="756" y="106" type="line"/>
      <point x="756" y="0" type="line"/>
      <point x="58" y="0" type="line"/>
      <point x="58" y="106" type="line"/>
      <point x="218" y="351"/>
      <point x="393" y="591"/>
      <point x="548" y="850" type="curve"/>
      <point x="625" y="975"/>
      <point x="636" y="1016"/>
      <point x="636" y="1078" type="curve"/>
      <point x="636" y="1225"/>
      <point x="527" y="1312"/>
      <point x="412" y="1308" type="curve"/>
      <point x="321" y="1308"/>
      <point x="233" y="1255"/>
    </contour>
  </outline>
</glyph>
<glyph name="three" format="1">
  <advance width="884"/>
  <unicode hex="0033"/>
  <outline>
    <contour>
      <point x="400" y="826" type="line"/>
      <point x="404" y="826" type="line"/>
      <point x="521" y="826"/>
      <point x="623" y="783"/>
      <point x="706" y="700" type="curve"/>
      <point x="787" y="616"/>
      <point x="828" y="515"/>
      <point x="828" y="398" type="curve"/>
      <point x="828" y="281"/>
      <point x="787" y="181"/>
      <point x="706" y="100" type="curve"/>
      <point x="623" y="17"/>
      <point x="523" y="-24"/>
      <point x="404" y="-24" type="curve"/>
      <point x="260" y="-24"/>
      <point x="129" y="49"/>
      <point x="52" y="164" type="curve"/>
      <point x="144" y="224" type="line"/>
      <point x="205" y="133"/>
      <point x="292" y="88"/>
      <point x="404" y="88" type="curve"/>
      <point x="489" y="88"/>
      <point x="565" y="116"/>
      <point x="626" y="180" type="curve"/>
      <point x="687" y="241"/>
      <point x="716" y="313"/>
      <point x="716" y="398" type="curve"/>
      <point x="716" y="483"/>
      <point x="689" y="555"/>
      <point x="630" y="614" type="curve"/>
      <point x="571" y="678"/>
      <point x="501" y="710"/>
      <point x="418" y="710" type="curve"/>
      <point x="196" y="710" type="line"/>
      <point x="582" y="1282" type="line"/>
      <point x="140" y="1282" type="line"/>
      <point x="140" y="1396" type="line"/>
      <point x="718" y="1396" type="line"/>
      <point x="718" y="1298" type="line"/>
    </contour>
  </outline>
</glyph>
<glyph name="four" format="1">
  <advance width="974"/>
  <unicode hex="0034"/>
  <outline>
    <contour>
      <point x="776" y="0" type="line"/>
      <point x="662" y="0" type="line"/>
      <point x="662" y="710" type="line"/>
      <point x="32" y="710" type="line"/>
      <point x="418" y="1396" type="line"/>
      <point x="536" y="1396" type="line"/>
      <point x="224" y="826" type="line"/>
      <point x="662" y="826" type="line"/>
      <point x="662" y="1396" type="line"/>
      <point x="776" y="1396" type="line"/>
      <point x="776" y="826" type="line"/>
      <point x="920" y="826" type="line"/>
      <point x="880" y="710" type="line"/>
      <point x="776" y="710" type="line"/>
    </contour>
  </outline>
</glyph>
<glyph name="five" format="1">
  <advance width="878"/>
  <unicode hex="0035"/>
  <outline>
    <contour>
      <point x="280" y="1282" type="line"/>
      <point x="232" y="822" type="line"/>
      <point x="338" y="822" type="line" smooth="yes"/>
      <point x="601" y="822"/>
      <point x="822" y="687"/>
      <point x="822" y="396" type="curve"/>
      <point x="822" y="192"/>
      <point x="669" y="-24"/>
      <point x="402" y="-24" type="curve"/>
      <point x="227" y="-27"/>
      <point x="55" y="87"/>
      <point x="56" y="84" type="curve"/>
      <point x="98" y="178" type="line"/>
      <point x="97" y="181"/>
      <point x="222" y="84"/>
      <point x="396" y="88" type="curve"/>
      <point x="556" y="88"/>
      <point x="710" y="210"/>
      <point x="710" y="400" type="curve"/>
      <point x="710" y="575"/>
      <point x="580" y="710"/>
      <point x="338" y="710" type="curve"/>
      <point x="108" y="710" type="line"/>
      <point x="182" y="1396" type="line"/>
      <point x="712" y="1396" type="line"/>
      <point x="712" y="1282" type="line"/>
    </contour>
  </outline>
</glyph>
<glyph name="six" format="1">
  <advance width="964"/>
  <unicode hex="0036"/>
  <outline>
    <contour>
      <point x="620" y="1292" type="line"/>
      <point x="542" y="1292" type="line"/>
      <point x="310" y="1292"/>
      <point x="172" y="1132"/>
      <point x="172" y="906" type="curve"/>
      <point x="172" y="692" type="line"/>
      <point x="256" y="784"/>
      <point x="362" y="828"/>
      <point x="482" y="828" type="curve"/>
      <point x="720" y="828"/>
      <point x="912" y="644"/>
      <point x="912" y="404" type="curve"/>
      <point x="912" y="170"/>
      <point x="722" y="-20"/>
      <point x="488" y="-20" type="curve"/>
      <point x="252" y="-20"/>
      <point x="62" y="168"/>
      <point x="62" y="404" type="curve"/>
      <point x="62" y="920" type="line" smooth="yes"/>
      <point x="62" y="1204"/>
      <point x="266" y="1396"/>
      <point x="550" y="1396" type="curve"/>
      <point x="620" y="1396" type="line"/>
    </contour>
    <contour>
      <point x="488" y="718" type="curve"/>
      <point x="316" y="718"/>
      <point x="172" y="575"/>
      <point x="172" y="404" type="curve"/>
      <point x="172" y="233"/>
      <point x="316" y="90"/>
      <point x="488" y="90" type="curve"/>
      <point x="659" y="90"/>
      <point x="802" y="233"/>
      <point x="802" y="404" type="curve"/>
      <point x="802" y="575"/>
      <point x="659" y="718"/>
    </contour>
  </outline>
</glyph>
<glyph name="seven" format="1">
  <advance width="868"/>
  <unicode hex="0037"/>
  <outline>
    <contour>
      <point x="834" y="1286" type="line"/>
      <point x="198" y="0" type="line"/>
      <point x="74" y="0" type="line"/>
      <point x="708" y="1282" type="line"/>
      <point x="52" y="1282" type="line"/>
      <point x="52" y="1396" type="line"/>
      <point x="834" y="1396" type="line"/>
    </contour>
  </outline>
</glyph>
<glyph name="eight" format="1">
  <advance width="962"/>
  <unicode hex="0038"/>
  <outline>
    <contour>
      <point x="480" y="1414" type="curve"/>
      <point x="579" y="1414"/>
      <point x="662" y="1380"/>
      <point x="730" y="1312" type="curve"/>
      <point x="799" y="1243"/>
      <point x="830" y="1163"/>
      <point x="830" y="1062" type="curve"/>
      <point x="830" y="977"/>
      <point x="807" y="905"/>
      <point x="760" y="848" type="curve"/>
      <point x="739" y="821"/>
      <point x="710" y="795"/>
      <point x="678" y="774" type="curve"/>
      <point x="723" y="747"/>
      <point x="777" y="705"/>
      <point x="820" y="652" type="curve"/>
      <point x="873" y="580"/>
      <point x="904" y="496"/>
      <point x="904" y="400" type="curve"/>
      <point x="904" y="285"/>
      <point x="863" y="180"/>
      <point x="780" y="100" type="curve"/>
      <point x="697" y="17"/>
      <point x="597" y="-24"/>
      <point x="478" y="-24" type="curve"/>
      <point x="358" y="-24"/>
      <point x="258" y="17"/>
      <point x="178" y="100" type="curve"/>
      <point x="95" y="180"/>
      <point x="54" y="285"/>
      <point x="54" y="400" type="curve"/>
      <point x="54" y="501"/>
      <point x="89" y="594"/>
      <point x="148" y="666" type="curve"/>
      <point x="185" y="711"/>
      <point x="229" y="749"/>
      <point x="280" y="776" type="curve"/>
      <point x="249" y="796"/>
      <point x="223" y="821"/>
      <point x="202" y="850" type="curve"/>
      <point x="157" y="906"/>
      <point x="132" y="979"/>
      <point x="132" y="1062" type="curve"/>
      <point x="132" y="1158"/>
      <point x="165" y="1241"/>
      <point x="232" y="1312" type="curve"/>
      <point x="300" y="1380"/>
      <point x="383" y="1414"/>
    </contour>
    <contour>
      <point x="478" y="822" type="curve"/>
      <point x="553" y="822"/>
      <point x="619" y="855"/>
      <point x="662" y="906" type="curve"/>
      <point x="699" y="949"/>
      <point x="720" y="1005"/>
      <point x="720" y="1064" type="curve"/>
      <point x="720" y="1199"/>
      <point x="611" y="1308"/>
      <point x="478" y="1308" type="curve"/>
      <point x="346" y="1308"/>
      <point x="236" y="1199"/>
      <point x="236" y="1064" type="curve"/>
      <point x="236" y="1003"/>
      <point x="256" y="950"/>
      <point x="296" y="906" type="curve"/>
      <point x="341" y="855"/>
      <point x="406" y="822"/>
    </contour>
    <contour>
      <point x="478" y="88" type="curve"/>
      <point x="653" y="88"/>
      <point x="792" y="228"/>
      <point x="792" y="400" type="curve"/>
      <point x="792" y="469"/>
      <point x="769" y="535"/>
      <point x="732" y="588" type="curve"/>
      <point x="673" y="665"/>
      <point x="582" y="712"/>
      <point x="478" y="712" type="curve"/>
      <point x="382" y="712"/>
      <point x="295" y="667"/>
      <point x="236" y="598" type="curve"/>
      <point x="193" y="547"/>
      <point x="166" y="477"/>
      <point x="166" y="400" type="curve"/>
      <point x="166" y="228"/>
      <point x="306" y="88"/>
    </contour>
  </outline>
</glyph>
<glyph name="nine" format="1">
  <advance width="960"/>
  <unicode hex="0039"/>
  <outline>
    <contour>
      <point x="470" y="1414" type="curve"/>
      <point x="589" y="1414"/>
      <point x="689" y="1373"/>
      <point x="770" y="1292" type="curve"/>
      <point x="853" y="1209"/>
      <point x="894" y="1109"/>
      <point x="894" y="990" type="curve"/>
      <point x="894" y="476" type="line" smooth="yes"/>
      <point x="894" y="367"/>
      <point x="861" y="261"/>
      <point x="792" y="168" type="curve"/>
      <point x="723" y="69"/>
      <point x="584" y="-2"/>
      <point x="408" y="-2" type="curve"/>
      <point x="338" y="-2" type="line"/>
      <point x="338" y="108" type="line"/>
      <point x="414" y="108" type="line" smooth="yes"/>
      <point x="515" y="108"/>
      <point x="602" y="140"/>
      <point x="674" y="204" type="curve"/>
      <point x="749" y="271"/>
      <point x="784" y="365"/>
      <point x="784" y="490" type="curve"/>
      <point x="784" y="704" type="line"/>
      <point x="699" y="615"/>
      <point x="598" y="568"/>
      <point x="476" y="568" type="curve"/>
      <point x="353" y="568"/>
      <point x="253" y="610"/>
      <point x="170" y="690" type="curve"/>
      <point x="87" y="773"/>
      <point x="46" y="873"/>
      <point x="46" y="990" type="curve"/>
      <point x="46" y="1109"/>
      <point x="87" y="1209"/>
      <point x="170" y="1292" type="curve"/>
      <point x="254" y="1373"/>
      <point x="354" y="1414"/>
    </contour>
    <contour>
      <point x="470" y="1304" type="curve"/>
      <point x="298" y="1304"/>
      <point x="158" y="1165"/>
      <point x="158" y="990" type="curve"/>
      <point x="158" y="818"/>
      <point x="298" y="678"/>
      <point x="470" y="678" type="curve"/>
      <point x="645" y="678"/>
      <point x="784" y="818"/>
      <point x="784" y="990" type="curve"/>
      <point x="784" y="1165"/>
      <point x="645" y="1304"/>
    </contour>
  </outline>
</glyph>
<glyph name="colon" format="1">
  <advance width="286"/>
  <unicode hex="003A"/>
  <outline>
    <contour>
      <point x="206" y="286" type="curve"/>
      <point x="206" y="249"/>
      <point x="175" y="220"/>
      <point x="140" y="220" type="curve"/>
      <point x="103" y="220"/>
      <point x="72" y="249"/>
      <point x="72" y="286" type="curve"/>
      <point x="72" y="323"/>
      <point x="103" y="352"/>
      <point x="140" y="352" type="curve"/>
      <point x="175" y="352"/>
      <point x="206" y="323"/>
    </contour>
    <contour>
      <point x="206" y="768" type="curve"/>
      <point x="206" y="731"/>
      <point x="175" y="702"/>
      <point x="140" y="702" type="curve"/>
      <point x="103" y="702"/>
      <point x="72" y="731"/>
      <point x="72" y="768" type="curve"/>
      <point x="72" y="805"/>
      <point x="103" y="834"/>
      <point x="140" y="834" type="curve"/>
      <point x="175" y="834"/>
      <point x="206" y="805"/>
    </contour>
  </outline>
</glyph>
<glyph name="semicolon" format="1">
  <advance width="298"/>
  <unicode hex="003B"/>
  <outline>
    <contour>
      <point x="110" y="46" type="curve"/>
      <point x="76" y="70" type="line"/>
      <point x="119" y="123"/>
      <point x="133" y="177"/>
      <point x="138" y="220" type="curve"/>
      <point x="106" y="225"/>
      <point x="82" y="254"/>
      <point x="82" y="286" type="curve"/>
      <point x="82" y="323"/>
      <point x="111" y="352"/>
      <point x="148" y="352" type="curve"/>
      <point x="185" y="352"/>
      <point x="213" y="326"/>
      <point x="216" y="286" type="curve"/>
      <point x="216" y="161"/>
      <point x="149" y="80"/>
    </contour>
    <contour>
      <point x="220" y="768" type="curve"/>
      <point x="220" y="731"/>
      <point x="191" y="702"/>
      <point x="154" y="702" type="curve"/>
      <point x="119" y="702"/>
      <point x="86" y="731"/>
      <point x="86" y="768" type="curve"/>
      <point x="86" y="805"/>
      <point x="119" y="834"/>
      <point x="154" y="834" type="curve"/>
      <point x="191" y="834"/>
      <point x="220" y="805"/>
    </contour>
  </outline>
</glyph>
<glyph name="less" format="1">
  <advance width="748"/>
  <unicode hex="003C"/>
  <outline>
    <contour>
      <point x="604" y="158" type="line"/>
      <point x="50" y="716" type="line"/>
      <point x="604" y="1270" type="line"/>
      <point x="682" y="1194" type="line"/>
      <point x="202" y="712" type="line"/>
      <point x="682" y="236" type="line"/>
    </contour>
  </outline>
</glyph>
<glyph name="equal" format="1">
  <advance width="780"/>
  <unicode hex="003D"/>
  <outline>
    <contour>
      <point x="706" y="712" type="line"/>
      <point x="68" y="712" type="line"/>
      <point x="68" y="822" type="line"/>
      <point x="706" y="822" type="line"/>
    </contour>
    <contour>
      <point x="706" y="504" type="line"/>
      <point x="68" y="504" type="line"/>
      <point x="68" y="614" type="line"/>
      <point x="706" y="614" type="line"/>
    </contour>
  </outline>
</glyph>
<glyph name="greater" format="1">
  <advance width="748"/>
  <unicode hex="003E"/>
  <outline>
    <contour>
      <point x="538" y="712" type="line"/>
      <point x="60" y="1194" type="line"/>
      <point x="136" y="1270" type="line"/>
      <point x="690" y="716" type="line"/>
      <point x="136" y="158" type="line"/>
      <point x="60" y="236" type="line"/>
    </contour>
  </outline>
</glyph>
<glyph name="question" format="1">
  <advance width="808"/>
  <unicode hex="003F"/>
  <outline>
    <contour>
      <point x="164" y="1060" type="curve"/>
      <point x="50" y="1060" type="line"/>
      <point x="50" y="1304"/>
      <point x="230" y="1418"/>
      <point x="406" y="1414" type="curve"/>
      <point x="582" y="1410"/>
      <point x="750" y="1284"/>
      <point x="750" y="1072" type="curve"/>
      <point x="750" y="937"/>
      <point x="669" y="828"/>
      <point x="586" y="730" type="curve"/>
      <point x="507" y="641"/>
      <point x="432" y="577"/>
      <point x="432" y="412" type="curve"/>
      <point x="432" y="238" type="line"/>
      <point x="330" y="238" type="line"/>
      <point x="330" y="422" type="line" smooth="yes"/>
      <point x="330" y="599"/>
      <point x="409" y="690"/>
      <point x="484" y="776" type="curve"/>
      <point x="560" y="864"/>
      <point x="640" y="935"/>
      <point x="640" y="1066" type="curve"/>
      <point x="640" y="1226"/>
      <point x="522" y="1304"/>
      <point x="406" y="1308" type="curve"/>
      <point x="285" y="1312"/>
      <point x="164" y="1233"/>
    </contour>
    <contour>
      <point x="384" y="114" type="curve"/>
      <point x="419" y="114"/>
      <point x="450" y="85"/>
      <point x="450" y="48" type="curve"/>
      <point x="450" y="11"/>
      <point x="419" y="-18"/>
      <point x="384" y="-18" type="curve"/>
      <point x="347" y="-18"/>
      <point x="314" y="11"/>
      <point x="314" y="48" type="curve"/>
      <point x="314" y="85"/>
      <point x="347" y="114"/>
    </contour>
  </outline>
</glyph>
<glyph name="at" format="1">
  <advance width="1434"/>
  <unicode hex="0040"/>
  <outline>
    <contour>
      <point x="1346" y="982" type="curve"/>
      <point x="1376" y="900" type="line"/>
      <point x="1330" y="879"/>
      <point x="1308" y="836"/>
      <point x="1308" y="760" type="curve"/>
      <point x="1310" y="340" type="line" smooth="yes"/>
      <point x="1312" y="4"/>
      <point x="1005" y="-132"/>
      <point x="680" y="-132" type="curve"/>
      <point x="366" y="-132"/>
      <point x="66" y="22"/>
      <point x="64" y="366" type="curve"/>
      <point x="62" y="676" type="line" smooth="yes"/>
      <point x="60" y="954"/>
      <point x="244" y="1154"/>
      <point x="568" y="1154" type="curve"/>
      <point x="855" y="1154"/>
      <point x="988" y="1031"/>
      <point x="1020" y="884" type="curve"/>
      <point x="1154" y="884" type="line"/>
      <point x="1128" y="776" type="line"/>
      <point x="1028" y="776" type="line"/>
      <point x="1028" y="138" type="line"/>
      <point x="1030" y="138"/>
      <point x="788" y="124"/>
      <point x="696" y="122" type="curve"/>
      <point x="506" y="116"/>
      <point x="310" y="167"/>
      <point x="310" y="466" type="curve"/>
      <point x="310" y="576" type="line" smooth="yes"/>
      <point x="310" y="809"/>
      <point x="445" y="884"/>
      <point x="592" y="884" type="curve"/>
      <point x="924" y="884" type="line"/>
      <point x="889" y="993"/>
      <point x="761" y="1058"/>
      <point x="574" y="1058" type="curve"/>
      <point x="351" y="1058"/>
      <point x="182" y="931"/>
      <point x="182" y="682" type="curve"/>
      <point x="182" y="378" type="line" smooth="yes"/>
      <point x="182" y="88"/>
      <point x="392" y="-22"/>
      <point x="696" y="-22" type="curve"/>
      <point x="948" y="-22"/>
      <point x="1198" y="70"/>
      <point x="1198" y="324" type="curve"/>
      <point x="1198" y="726" type="line" smooth="yes"/>
      <point x="1198" y="865"/>
      <point x="1232" y="949"/>
    </contour>
    <contour>
      <point x="934" y="776" type="line"/>
      <point x="586" y="776" type="line"/>
      <point x="527" y="776"/>
      <point x="416" y="766"/>
      <point x="416" y="570" type="curve"/>
      <point x="416" y="454" type="line" smooth="yes"/>
      <point x="416" y="305"/>
      <point x="496" y="222"/>
      <point x="656" y="222" type="curve"/>
      <point x="796" y="222"/>
      <point x="935" y="240"/>
      <point x="934" y="238" type="curve"/>
    </contour>
  </outline>
</glyph>
<glyph name="A" format="1">
  <advance width="1090"/>
  <unicode hex="0041"/>
  <outline>
    <contour>
      <point x="596" y="1396" type="line"/>
      <point x="1050" y="0" type="line"/>
      <point x="932" y="0" type="line"/>
      <point x="772" y="488" type="line"/>
      <point x="318" y="488" type="line"/>
      <point x="162" y="0" type="line"/>
      <point x="42" y="0" type="line"/>
      <point x="490" y="1396" type="line"/>
    </contour>
    <contour>
      <point x="542" y="1224" type="line"/>
      <point x="348" y="598" type="line"/>
      <point x="742" y="598" type="line"/>
    </contour>
  </outline>
</glyph>
<glyph name="B" format="1">
  <advance width="1006"/>
  <unicode hex="0042"/>
  <outline>
    <contour>
      <point x="82" y="1396" type="line"/>
      <point x="522" y="1396" type="line"/>
      <point x="746" y="1396"/>
      <point x="876" y="1285"/>
      <point x="876" y="1056" type="curve"/>
      <point x="876" y="936"/>
      <point x="828" y="845"/>
      <point x="740" y="786" type="curve"/>
      <point x="740" y="778" type="line"/>
      <point x="857" y="727"/>
      <point x="948" y="608"/>
      <point x="948" y="416" type="curve"/>
      <point x="948" y="155"/>
      <point x="808" y="0"/>
      <point x="542" y="0" type="curve"/>
      <point x="82" y="0" type="line"/>
    </contour>
    <contour>
      <point x="194" y="822" type="line"/>
      <point x="520" y="822" type="line"/>
      <point x="682" y="822"/>
      <point x="758" y="915"/>
      <point x="758" y="1056" type="curve"/>
      <point x="758" y="1213"/>
      <point x="674" y="1290"/>
      <point x="506" y="1290" type="curve"/>
      <point x="194" y="1290" type="line"/>
    </contour>
    <contour>
      <point x="194" y="106" type="line"/>
      <point x="538" y="106" type="line"/>
      <point x="730" y="106"/>
      <point x="828" y="211"/>
      <point x="828" y="424" type="curve"/>
      <point x="828" y="580"/>
      <point x="737" y="712"/>
      <point x="570" y="712" type="curve"/>
      <point x="194" y="712" type="line"/>
    </contour>
  </outline>
</glyph>
<glyph name="C" format="1">
  <advance width="844"/>
  <unicode hex="0043"/>
  <outline>
    <contour>
      <point x="740" y="1350" type="curve"/>
      <point x="706" y="1274" type="line"/>
      <point x="631" y="1303"/>
      <point x="561" y="1316"/>
      <point x="492" y="1316" type="curve"/>
      <point x="297" y="1316"/>
      <point x="180" y="1235"/>
      <point x="180" y="1024" type="curve"/>
      <point x="180" y="370" type="line" smooth="yes"/>
      <point x="180" y="161"/>
      <point x="275" y="80"/>
      <point x="476" y="80" type="curve"/>
      <point x="554" y="80"/>
      <point x="653" y="102"/>
      <point x="766" y="138" type="curve"/>
      <point x="790" y="46" type="line"/>
      <point x="677" y="2"/>
      <point x="569" y="-20"/>
      <point x="468" y="-20" type="curve"/>
      <point x="425" y="-20"/>
      <point x="328" y="-21"/>
      <point x="232" y="30" type="curve"/>
      <point x="133" y="83"/>
      <point x="68" y="198"/>
      <point x="68" y="366" type="curve"/>
      <point x="68" y="1016" type="line" smooth="yes"/>
      <point x="68" y="1295"/>
      <point x="236" y="1416"/>
      <point x="456" y="1416" type="curve"/>
      <point x="560" y="1416"/>
      <point x="655" y="1394"/>
    </contour>
  </outline>
</glyph>
<glyph name="D" format="1">
  <advance width="990"/>
  <unicode hex="0044"/>
  <outline>
    <contour>
      <point x="82" y="1396" type="line"/>
      <point x="458" y="1396" type="line"/>
      <point x="759" y="1396"/>
      <point x="920" y="1218"/>
      <point x="920" y="946" type="curve"/>
      <point x="920" y="398" type="line" smooth="yes"/>
      <point x="920" y="134"/>
      <point x="781" y="0"/>
      <point x="498" y="0" type="curve"/>
      <point x="82" y="0" type="line"/>
    </contour>
    <contour>
      <point x="194" y="100" type="line"/>
      <point x="464" y="100" type="line"/>
      <point x="695" y="100"/>
      <point x="808" y="194"/>
      <point x="808" y="378" type="curve"/>
      <point x="808" y="976" type="line" smooth="yes"/>
      <point x="808" y="1148"/>
      <point x="712" y="1296"/>
      <point x="478" y="1296" type="curve"/>
      <point x="194" y="1296" type="line"/>
    </contour>
  </outline>
</glyph>
<glyph name="E" format="1">
  <advance width="810"/>
  <unicode hex="0045"/>
  <outline>
    <contour>
      <point x="744" y="0" type="line"/>
      <point x="82" y="0" type="line"/>
      <point x="82" y="1396" type="line"/>
      <point x="748" y="1396" type="line"/>
      <point x="748" y="1292" type="line"/>
      <point x="194" y="1292" type="line"/>
      <point x="194" y="822" type="line"/>
      <point x="574" y="822" type="line"/>
      <point x="538" y="712" type="line"/>
      <point x="194" y="712" type="line"/>
      <point x="194" y="100" type="line"/>
      <point x="744" y="100" type="line"/>
    </contour>
  </outline>
</glyph>
<glyph name="F" format="1">
  <advance width="780"/>
  <unicode hex="0046"/>
  <outline>
    <contour>
      <point x="82" y="1396" type="line"/>
      <point x="748" y="1396" type="line"/>
      <point x="748" y="1290" type="line"/>
      <point x="194" y="1290" type="line"/>
      <point x="194" y="822" type="line"/>
      <point x="576" y="822" type="line"/>
      <point x="530" y="712" type="line"/>
      <point x="194" y="712" type="line"/>
      <point x="194" y="0" type="line"/>
      <point x="82" y="0" type="line"/>
    </contour>
  </outline>
</glyph>
<glyph name="G" format="1">
  <advance width="954"/>
  <unicode hex="0047"/>
  <outline>
    <contour>
      <point x="740" y="1348" type="curve"/>
      <point x="706" y="1272" type="line"/>
      <point x="631" y="1301"/>
      <point x="561" y="1314"/>
      <point x="494" y="1314" type="curve"/>
      <point x="296" y="1314"/>
      <point x="180" y="1228"/>
      <point x="180" y="1020" type="curve"/>
      <point x="180" y="372" type="line" smooth="yes"/>
      <point x="180" y="190"/>
      <point x="317" y="88"/>
      <point x="490" y="88" type="curve"/>
      <point x="662" y="88"/>
      <point x="784" y="196"/>
      <point x="784" y="372" type="curve"/>
      <point x="784" y="488" type="line"/>
      <point x="526" y="488" type="line"/>
      <point x="486" y="598" type="line"/>
      <point x="890" y="598" type="line"/>
      <point x="890" y="0" type="line"/>
      <point x="788" y="0" type="line"/>
      <point x="780" y="82" type="line"/>
      <point x="707" y="13"/>
      <point x="618" y="-20"/>
      <point x="494" y="-20" type="curve"/>
      <point x="264" y="-20"/>
      <point x="68" y="116"/>
      <point x="68" y="376" type="curve"/>
      <point x="68" y="1004" type="line" smooth="yes"/>
      <point x="68" y="1260"/>
      <point x="204" y="1414"/>
      <point x="456" y="1414" type="curve"/>
      <point x="560" y="1414"/>
      <point x="655" y="1392"/>
    </contour>
  </outline>
</glyph>
<glyph name="J" format="1">
  <advance width="412"/>
  <unicode hex="004A"/>
  <outline>
    <contour>
      <point x="330" y="1396" type="line"/>
      <point x="330" y="236" type="line"/>
      <point x="330" y="74"/>
      <point x="264" y="-74"/>
      <point x="80" y="-74" type="curve"/>
      <point x="54" y="0" type="line"/>
      <point x="142" y="0"/>
      <point x="216" y="69"/>
      <point x="216" y="226" type="curve"/>
      <point x="216" y="1294" type="line"/>
      <point x="84" y="1298" type="line"/>
      <point x="84" y="1396" type="line"/>
    </contour>
  </outline>
</glyph>
<glyph name="K" format="1">
  <advance width="914"/>
  <unicode hex="004B"/>
  <outline>
    <contour>
      <point x="194" y="1396" type="line"/>
      <point x="194" y="732" type="line"/>
      <point x="640" y="1396" type="line"/>
      <point x="770" y="1396" type="line"/>
      <point x="362" y="794" type="line"/>
      <point x="874" y="0" type="line"/>
      <point x="740" y="0" type="line"/>
      <point x="288" y="688" type="line"/>
      <point x="194" y="536" type="line"/>
      <point x="194" y="0" type="line"/>
      <point x="82" y="0" type="line"/>
      <point x="82" y="1396" type="line"/>
    </contour>
  </outline>
</glyph>
<glyph name="L" format="1">
  <advance width="846"/>
  <unicode hex="004C"/>
  <outline>
    <contour>
      <point x="802" y="0" type="line"/>
      <point x="82" y="0" type="line"/>
      <point x="82" y="1396" type="line"/>
      <point x="194" y="1396" type="line"/>
      <point x="194" y="100" type="line"/>
      <point x="802" y="100" type="line"/>
    </contour>
  </outline>
</glyph>
<glyph name="N" format="1">
  <advance width="1150"/>
  <unicode hex="004E"/>
  <outline>
    <contour>
      <point x="952" y="1396" type="line"/>
      <point x="1064" y="1396" type="line"/>
      <point x="1064" y="0" type="line"/>
      <point x="952" y="0" type="line"/>
      <point x="194" y="1190" type="line"/>
      <point x="194" y="0" type="line"/>
      <point x="82" y="0" type="line"/>
      <point x="82" y="1396" type="line"/>
      <point x="194" y="1396" type="line"/>
      <point x="952" y="204" type="line"/>
    </contour>
  </outline>
</glyph>
<glyph name="O" format="1">
  <advance width="980"/>
  <unicode hex="004F"/>
  <outline>
    <contour>
      <point x="68" y="370" type="curve"/>
      <point x="68" y="1012" type="line"/>
      <point x="68" y="1284"/>
      <point x="228" y="1428"/>
      <point x="492" y="1428" type="curve"/>
      <point x="756" y="1428"/>
      <point x="908" y="1271"/>
      <point x="908" y="1010" type="curve"/>
      <point x="908" y="370" type="line" smooth="yes"/>
      <point x="908" y="128"/>
      <point x="737" y="-22"/>
      <point x="490" y="-22" type="curve"/>
      <point x="254" y="-22"/>
      <point x="68" y="112"/>
    </contour>
    <contour>
      <point x="180" y="1030" type="curve"/>
      <point x="180" y="372" type="line"/>
      <point x="180" y="180"/>
      <point x="311" y="84"/>
      <point x="486" y="84" type="curve"/>
      <point x="669" y="84"/>
      <point x="798" y="176"/>
      <point x="798" y="372" type="curve"/>
      <point x="798" y="1030" type="line" smooth="yes"/>
      <point x="798" y="1225"/>
      <point x="675" y="1322"/>
      <point x="486" y="1322" type="curve"/>
      <point x="302" y="1322"/>
      <point x="180" y="1225"/>
    </contour>
  </outline>
</glyph>
<glyph name="P" format="1">
  <advance width="1008"/>
  <unicode hex="0050"/>
  <outline>
    <contour>
      <point x="82" y="1396" type="line"/>
      <point x="552" y="1396" type="line"/>
      <point x="806" y="1396"/>
      <point x="948" y="1286"/>
      <point x="948" y="944" type="curve"/>
      <point x="948" y="613"/>
      <point x="817" y="488"/>
      <point x="552" y="488" type="curve"/>
      <point x="458" y="488"/>
      <point x="320" y="488"/>
      <point x="194" y="488" type="curve"/>
      <point x="194" y="0" type="line"/>
      <point x="82" y="0" type="line"/>
    </contour>
    <contour>
      <point x="194" y="1290" type="line"/>
      <point x="194" y="598" type="line"/>
      <point x="341" y="598"/>
      <point x="474" y="598"/>
      <point x="562" y="598" type="curve"/>
      <point x="713" y="598"/>
      <point x="836" y="639"/>
      <point x="836" y="944" type="curve"/>
      <point x="836" y="1227"/>
      <point x="718" y="1290"/>
      <point x="562" y="1290" type="curve"/>
    </contour>
  </outline>
</glyph>
<glyph name="Q" format="1">
  <advance width="980"/>
  <unicode hex="0051"/>
  <outline>
    <contour>
      <point x="540" y="346" type="line"/>
      <point x="540" y="100" type="line"/>
      <point x="540" y="-65"/>
      <point x="630" y="-122"/>
      <point x="790" y="-122" type="curve"/>
      <point x="778" y="-214" type="line"/>
      <point x="546" y="-214"/>
      <point x="428" y="-123"/>
      <point x="428" y="102" type="curve"/>
      <point x="428" y="346" type="line"/>
    </contour>
    <component base="O"/>
  </outline>
</glyph>
<glyph name="R" format="1">
  <advance width="1016"/>
  <unicode hex="0052"/>
  <outline>
    <contour>
      <point x="82" y="1396" type="line"/>
      <point x="552" y="1396" type="line"/>
      <point x="806" y="1396"/>
      <point x="948" y="1286"/>
      <point x="948" y="944" type="curve"/>
      <point x="948" y="717"/>
      <point x="889" y="589"/>
      <point x="764" y="528" type="curve"/>
      <point x="956" y="0" type="line"/>
      <point x="844" y="0" type="line"/>
      <point x="662" y="498" type="line"/>
      <point x="630" y="490"/>
      <point x="592" y="488"/>
      <point x="552" y="488" type="curve"/>
      <point x="194" y="488" type="line"/>
      <point x="194" y="0" type="line"/>
      <point x="82" y="0" type="line"/>
    </contour>
    <contour>
      <point x="194" y="598" type="line"/>
      <point x="562" y="598" type="line"/>
      <point x="713" y="598"/>
      <point x="836" y="639"/>
      <point x="836" y="944" type="curve"/>
      <point x="836" y="1227"/>
      <point x="718" y="1290"/>
      <point x="562" y="1290" type="curve"/>
      <point x="194" y="1290" type="line"/>
    </contour>
  </outline>
</glyph>
<glyph name="S" format="1">
  <advance width="1056"/>
  <unicode hex="0053"/>
  <outline>
    <contour>
      <point x="872" y="1340" type="curve"/>
      <point x="838" y="1236" type="line"/>
      <point x="756" y="1282"/>
      <point x="662" y="1306"/>
      <point x="568" y="1306" type="curve"/>
      <point x="424" y="1306"/>
      <point x="236" y="1260"/>
      <point x="236" y="1082" type="curve"/>
      <point x="236" y="738"/>
      <point x="996" y="850"/>
      <point x="996" y="358" type="curve"/>
      <point x="996" y="92"/>
      <point x="760" y="-24"/>
      <point x="524" y="-24" type="curve"/>
      <point x="336" y="-24"/>
      <point x="174" y="40"/>
      <point x="50" y="184" type="curve"/>
      <point x="120" y="254" type="line"/>
      <point x="204" y="142"/>
      <point x="380" y="84"/>
      <point x="516" y="84" type="curve"/>
      <point x="704" y="84"/>
      <point x="876" y="162"/>
      <point x="876" y="374" type="curve"/>
      <point x="876" y="736"/>
      <point x="120" y="654"/>
      <point x="120" y="1072" type="curve"/>
      <point x="120" y="1324"/>
      <point x="350" y="1414"/>
      <point x="566" y="1414" type="curve"/>
      <point x="672" y="1414"/>
      <point x="778" y="1390"/>
    </contour>
  </outline>
</glyph>
<glyph name="T" format="1">
  <advance width="832"/>
  <unicode hex="0054"/>
  <outline>
    <contour>
      <point x="816" y="1296" type="line"/>
      <point x="464" y="1296" type="line"/>
      <point x="464" y="0" type="line"/>
      <point x="354" y="0" type="line"/>
      <point x="354" y="1296" type="line"/>
      <point x="14" y="1296" type="line"/>
      <point x="14" y="1396" type="line"/>
      <point x="816" y="1396" type="line"/>
    </contour>
  </outline>
</glyph>
<glyph name="U" format="1">
  <advance width="992"/>
  <unicode hex="0055"/>
  <outline>
    <contour>
      <point x="912" y="1396" type="line"/>
      <point x="912" y="370" type="line"/>
      <point x="912" y="235"/>
      <point x="871" y="136"/>
      <point x="788" y="72" type="curve"/>
      <point x="708" y="9"/>
      <point x="611" y="-22"/>
      <point x="496" y="-22" type="curve"/>
      <point x="380" y="-22"/>
      <point x="281" y="9"/>
      <point x="198" y="72" type="curve"/>
      <point x="117" y="137"/>
      <point x="76" y="237"/>
      <point x="76" y="370" type="curve"/>
      <point x="76" y="1396" type="line"/>
      <point x="186" y="1396" type="line"/>
      <point x="186" y="372" type="line" smooth="yes"/>
      <point x="186" y="272"/>
      <point x="218" y="197"/>
      <point x="282" y="148" type="curve"/>
      <point x="335" y="105"/>
      <point x="406" y="84"/>
      <point x="494" y="84" type="curve"/>
      <point x="590" y="84"/>
      <point x="671" y="109"/>
      <point x="724" y="162" type="curve"/>
      <point x="772" y="213"/>
      <point x="802" y="281"/>
      <point x="802" y="372" type="curve"/>
      <point x="802" y="1396" type="line"/>
    </contour>
  </outline>
</glyph>
<glyph name="V" format="1">
  <advance width="1018"/>
  <unicode hex="0056"/>
  <outline>
    <contour>
      <point x="430" y="0" type="line"/>
      <point x="30" y="1396" type="line"/>
      <point x="150" y="1396" type="line"/>
      <point x="506" y="138" type="line"/>
      <point x="864" y="1396" type="line"/>
      <point x="982" y="1396" type="line"/>
      <point x="584" y="0" type="line"/>
    </contour>
  </outline>
</glyph>
<glyph name="W" format="1">
  <advance width="1462"/>
  <unicode hex="0057"/>
  <outline>
    <contour>
      <point x="652" y="1396" type="line"/>
      <point x="808" y="1396" type="line"/>
      <point x="1022" y="138" type="line"/>
      <point x="1304" y="1396" type="line"/>
      <point x="1422" y="1396" type="line"/>
      <point x="1096" y="0" type="line"/>
      <point x="928" y="0" type="line"/>
      <point x="732" y="1194" type="line"/>
      <point x="534" y="0" type="line"/>
      <point x="364" y="0" type="line"/>
      <point x="34" y="1396" type="line"/>
      <point x="156" y="1396" type="line"/>
      <point x="438" y="138" type="line"/>
    </contour>
  </outline>
</glyph>
<glyph name="Z" format="1">
  <advance width="1090"/>
  <unicode hex="005A"/>
  <outline>
    <contour>
      <point x="82" y="1396" type="line"/>
      <point x="1018" y="1396" type="line"/>
      <point x="1018" y="1296" type="line"/>
      <point x="198" y="102" type="line"/>
      <point x="1028" y="102" type="line"/>
      <point x="1028" y="0" type="line"/>
      <point x="58" y="0" type="line"/>
      <point x="58" y="100" type="line"/>
      <point x="874" y="1294" type="line"/>
      <point x="82" y="1294" type="line"/>
    </contour>
  </outline>
</glyph>
<glyph name="bracketleft" format="1">
  <advance width="444"/>
  <unicode hex="005B"/>
  <outline>
    <contour>
      <point x="406" y="1540" type="line"/>
      <point x="196" y="1520" type="line"/>
      <point x="196" y="-118" type="line"/>
      <point x="406" y="-138" type="line"/>
      <point x="406" y="-226" type="line"/>
      <point x="84" y="-226" type="line"/>
      <point x="84" y="1630" type="line"/>
      <point x="406" y="1630" type="line"/>
    </contour>
  </outline>
</glyph>
<glyph name="backslash" format="1">
  <advance width="826"/>
  <unicode hex="005C"/>
  <outline>
    <contour>
      <point x="792" y="-226" type="line"/>
      <point x="670" y="-226" type="line"/>
      <point x="32" y="1630" type="line"/>
      <point x="144" y="1630" type="line"/>
    </contour>
  </outline>
</glyph>
<glyph name="bracketright" format="1">
  <advance width="448"/>
  <unicode hex="005D"/>
  <outline>
    <contour>
      <point x="362" y="-226" type="line"/>
      <point x="40" y="-226" type="line"/>
      <point x="40" y="-138" type="line"/>
      <point x="250" y="-118" type="line"/>
      <point x="250" y="1520" type="line"/>
      <point x="40" y="1540" type="line"/>
      <point x="40" y="1630" type="line"/>
      <point x="362" y="1630" type="line"/>
    </contour>
  </outline>
</glyph>
<glyph name="asciicircum" format="1">
  <advance width="532"/>
  <unicode hex="005E"/>
  <outline>
    <contour>
      <point x="270" y="1794" type="line"/>
      <point x="526" y="1540" type="line"/>
      <point x="448" y="1466" type="line"/>
      <point x="270" y="1642" type="line"/>
      <point x="84" y="1460" type="line"/>
      <point x="6" y="1538" type="line"/>
    </contour>
  </outline>
</glyph>
<glyph name="underscore" format="1">
  <advance width="766"/>
  <unicode hex="005F"/>
  <outline>
    <contour>
      <point x="704" y="-112" type="line"/>
      <point x="66" y="-112" type="line"/>
      <point x="66" y="0" type="line"/>
      <point x="704" y="0" type="line"/>
    </contour>
  </outline>
</glyph>
<glyph name="grave" format="1">
  <advance width="532"/>
  <unicode hex="0060"/>
  <outline>
    <contour>
      <point x="226" y="1430" type="curve"/>
      <point x="304" y="1216" type="line"/>
      <point x="232" y="1216" type="line"/>
      <point x="126" y="1374" type="line"/>
      <point x="102" y="1403"/>
      <point x="103" y="1451"/>
      <point x="138" y="1470" type="curve"/>
      <point x="175" y="1491"/>
      <point x="215" y="1467"/>
    </contour>
  </outline>
</glyph>
<glyph name="a" format="1">
  <advance width="892"/>
  <unicode hex="0061"/>
  <outline>
    <contour>
      <point x="708" y="698" type="curve"/>
      <point x="708" y="807"/>
      <point x="667" y="863"/>
      <point x="592" y="898" type="curve"/>
      <point x="541" y="922"/>
      <point x="475" y="928"/>
      <point x="400" y="928" type="curve"/>
      <point x="404" y="1014" type="line"/>
      <point x="497" y="1014"/>
      <point x="595" y="1008"/>
      <point x="678" y="960" type="curve"/>
      <point x="815" y="881"/>
      <point x="820" y="716"/>
      <point x="820" y="574" type="curve"/>
      <point x="820" y="0" type="line"/>
      <point x="824" y="0"/>
      <point x="601" y="-18"/>
      <point x="504" y="-20" type="curve"/>
      <point x="249" y="-28"/>
      <point x="52" y="42"/>
      <point x="52" y="336" type="curve"/>
      <point x="52" y="502" type="line" smooth="yes"/>
      <point x="52" y="726"/>
      <point x="198" y="804"/>
      <point x="358" y="804" type="curve"/>
      <point x="489" y="804"/>
      <point x="615" y="751"/>
    </contour>
    <contour>
      <point x="708" y="92" type="curve"/>
      <point x="708" y="604" type="line"/>
      <point x="602" y="659"/>
      <point x="474" y="708"/>
      <point x="348" y="708" type="curve"/>
      <point x="278" y="708"/>
      <point x="162" y="679"/>
      <point x="162" y="498" type="curve"/>
      <point x="162" y="350" type="line" smooth="yes"/>
      <point x="162" y="160"/>
      <point x="229" y="64"/>
      <point x="496" y="76" type="curve"/>
      <point x="627" y="82"/>
      <point x="708" y="93"/>
    </contour>
  </outline>
</glyph>
<glyph name="b" format="1">
  <advance width="910"/>
  <unicode hex="0062"/>
  <outline>
    <contour>
      <point x="194" y="1396" type="line"/>
      <point x="194" y="942" type="line"/>
      <point x="285" y="982"/>
      <point x="387" y="1016"/>
      <point x="518" y="1016" type="curve"/>
      <point x="678" y="1016"/>
      <point x="850" y="941"/>
      <point x="850" y="716" type="curve"/>
      <point x="850" y="589"/>
      <point x="850" y="463"/>
      <point x="850" y="336" type="curve"/>
      <point x="850" y="42"/>
      <point x="654" y="-28"/>
      <point x="396" y="-20" type="curve"/>
      <point x="303" y="-18"/>
      <point x="77" y="0"/>
      <point x="82" y="0" type="curve"/>
      <point x="82" y="1396" type="line"/>
    </contour>
    <contour>
      <point x="194" y="92" type="curve"/>
      <point x="194" y="93"/>
      <point x="276" y="84"/>
      <point x="406" y="76" type="curve"/>
      <point x="673" y="65"/>
      <point x="740" y="160"/>
      <point x="740" y="350" type="curve"/>
      <point x="740" y="386"/>
      <point x="740" y="669"/>
      <point x="740" y="708" type="curve"/>
      <point x="740" y="893"/>
      <point x="600" y="922"/>
      <point x="526" y="922" type="curve"/>
      <point x="398" y="922"/>
      <point x="303" y="889"/>
      <point x="194" y="844" type="curve"/>
      <point x="194" y="594"/>
      <point x="194" y="344"/>
    </contour>
  </outline>
</glyph>
<glyph name="c" format="1">
  <advance width="760"/>
  <unicode hex="0063"/>
  <outline>
    <contour>
      <point x="696" y="952" type="curve"/>
      <point x="666" y="860" type="line"/>
      <point x="570" y="905"/>
      <point x="435" y="927"/>
      <point x="350" y="906" type="curve"/>
      <point x="291" y="893"/>
      <point x="238" y="852"/>
      <point x="206" y="788" type="curve"/>
      <point x="182" y="743"/>
      <point x="168" y="682"/>
      <point x="168" y="610" type="curve"/>
      <point x="168" y="370" type="line" smooth="yes"/>
      <point x="168" y="239"/>
      <point x="199" y="141"/>
      <point x="306" y="104" type="curve"/>
      <point x="430" y="49"/>
      <point x="682" y="112"/>
      <point x="678" y="110" type="curve"/>
      <point x="700" y="10" type="line"/>
      <point x="567" y="-25"/>
      <point x="402" y="-35"/>
      <point x="282" y="2" type="curve"/>
      <point x="146" y="47"/>
      <point x="58" y="151"/>
      <point x="58" y="346" type="curve"/>
      <point x="58" y="636" type="line"/>
      <point x="63" y="724"/>
      <point x="77" y="788"/>
      <point x="112" y="852" type="curve"/>
      <point x="165" y="940"/>
      <point x="241" y="989"/>
      <point x="332" y="1008" type="curve"/>
      <point x="449" y="1032"/>
      <point x="581" y="1005"/>
    </contour>
  </outline>
</glyph>
<glyph name="d" format="1">
  <advance width="912"/>
  <unicode hex="0064"/>
  <outline>
    <contour>
      <point x="826" y="1396" type="line"/>
      <point x="826" y="0" type="line"/>
      <point x="830" y="0"/>
      <point x="606" y="-18"/>
      <point x="514" y="-20" type="curve"/>
      <point x="257" y="-28"/>
      <point x="58" y="42"/>
      <point x="58" y="336" type="curve"/>
      <point x="58" y="716" type="line" smooth="yes"/>
      <point x="58" y="941"/>
      <point x="232" y="1016"/>
      <point x="390" y="1016" type="curve"/>
      <point x="521" y="1016"/>
      <point x="625" y="982"/>
      <point x="716" y="942" type="curve"/>
      <point x="716" y="1396" type="line"/>
    </contour>
    <contour>
      <point x="716" y="92" type="curve"/>
      <point x="716" y="844" type="line"/>
      <point x="609" y="889"/>
      <point x="510" y="922"/>
      <point x="382" y="922" type="curve"/>
      <point x="314" y="922"/>
      <point x="163" y="895"/>
      <point x="168" y="708" type="curve"/>
      <point x="168" y="350" type="line" smooth="yes"/>
      <point x="168" y="160"/>
      <point x="238" y="68"/>
      <point x="504" y="76" type="curve"/>
      <point x="632" y="80"/>
      <point x="716" y="93"/>
    </contour>
  </outline>
</glyph>
<glyph name="e" format="1">
  <advance width="842"/>
  <unicode hex="0065"/>
  <outline>
    <contour>
      <point x="174" y="390" type="line"/>
      <point x="174" y="266" type="line"/>
      <point x="174" y="126"/>
      <point x="266" y="72"/>
      <point x="396" y="72" type="curve"/>
      <point x="495" y="72"/>
      <point x="587" y="103"/>
      <point x="688" y="156" type="curve"/>
      <point x="732" y="70" type="line"/>
      <point x="631" y="9"/>
      <point x="508" y="-24"/>
      <point x="406" y="-24" type="curve"/>
      <point x="202" y="-24"/>
      <point x="62" y="44"/>
      <point x="62" y="266" type="curve"/>
      <point x="62" y="676" type="line" smooth="yes"/>
      <point x="62" y="900"/>
      <point x="218" y="1016"/>
      <point x="430" y="1016" type="curve"/>
      <point x="644" y="1016"/>
      <point x="782" y="902"/>
      <point x="782" y="682" type="curve"/>
      <point x="782" y="422" type="line"/>
    </contour>
    <contour>
      <point x="670" y="522" type="line"/>
      <point x="670" y="696" type="line"/>
      <point x="670" y="836"/>
      <point x="566" y="922"/>
      <point x="428" y="922" type="curve"/>
      <point x="270" y="922"/>
      <point x="174" y="834"/>
      <point x="174" y="674" type="curve"/>
      <point x="174" y="500" type="line"/>
    </contour>
  </outline>
</glyph>
<glyph name="f" format="1">
  <advance width="496"/>
  <unicode hex="0066"/>
  <outline>
    <contour>
      <point x="446" y="1410" type="curve"/>
      <point x="428" y="1312" type="line"/>
      <point x="409" y="1315"/>
      <point x="392" y="1316"/>
      <point x="376" y="1316" type="curve"/>
      <point x="255" y="1316"/>
      <point x="190" y="1242"/>
      <point x="190" y="1096" type="curve"/>
      <point x="190" y="996" type="line"/>
      <point x="418" y="996" type="line"/>
      <point x="372" y="892" type="line"/>
      <point x="190" y="892" type="line"/>
      <point x="190" y="0" type="line"/>
      <point x="78" y="0" type="line"/>
      <point x="78" y="1096" type="line" smooth="yes"/>
      <point x="78" y="1348"/>
      <point x="244" y="1420"/>
      <point x="374" y="1416" type="curve"/>
      <point x="401" y="1416"/>
      <point x="425" y="1415"/>
    </contour>
  </outline>
</glyph>
<glyph name="g" format="1">
  <advance width="880"/>
  <unicode hex="0067"/>
  <outline>
    <contour>
      <point x="800" y="996" type="line"/>
      <point x="800" y="-128" type="line"/>
      <point x="800" y="-288"/>
      <point x="736" y="-372"/>
      <point x="584" y="-420" type="curve"/>
      <point x="552" y="-334" type="line"/>
      <point x="640" y="-298"/>
      <point x="686" y="-232"/>
      <point x="686" y="-126" type="curve"/>
      <point x="686" y="122" type="line"/>
      <point x="641" y="40"/>
      <point x="524" y="-24"/>
      <point x="404" y="-24" type="curve"/>
      <point x="180" y="-24"/>
      <point x="62" y="107"/>
      <point x="62" y="350" type="curve"/>
      <point x="62" y="690" type="line" smooth="yes"/>
      <point x="62" y="901"/>
      <point x="183" y="1027"/>
      <point x="402" y="1016" type="curve"/>
      <point x="499" y="1012"/>
      <point x="598" y="974"/>
      <point x="686" y="902" type="curve"/>
      <point x="686" y="996" type="line"/>
    </contour>
    <contour>
      <point x="686" y="346" type="curve"/>
      <point x="686" y="784" type="line"/>
      <point x="631" y="866"/>
      <point x="511" y="908"/>
      <point x="426" y="916" type="curve"/>
      <point x="302" y="928"/>
      <point x="174" y="864"/>
      <point x="174" y="684" type="curve"/>
      <point x="174" y="332" type="line" smooth="yes"/>
      <point x="174" y="164"/>
      <point x="258" y="80"/>
      <point x="410" y="80" type="curve"/>
      <point x="563" y="80"/>
      <point x="686" y="177"/>
    </contour>
  </outline>
</glyph>
<glyph name="h" format="1">
  <advance width="886"/>
  <unicode hex="0068"/>
  <outline>
    <contour>
      <point x="194" y="1396" type="line"/>
      <point x="194" y="930" type="line"/>
      <point x="271" y="983"/>
      <point x="373" y="1016"/>
      <point x="472" y="1016" type="curve"/>
      <point x="693" y="1016"/>
      <point x="820" y="900"/>
      <point x="820" y="690" type="curve"/>
      <point x="820" y="0" type="line"/>
      <point x="708" y="0" type="line"/>
      <point x="708" y="684" type="line" smooth="yes"/>
      <point x="708" y="866"/>
      <point x="577" y="916"/>
      <point x="450" y="916" type="curve"/>
      <point x="359" y="916"/>
      <point x="277" y="893"/>
      <point x="194" y="848" type="curve"/>
      <point x="194" y="0" type="line"/>
      <point x="82" y="0" type="line"/>
      <point x="82" y="1396" type="line"/>
    </contour>
  </outline>
</glyph>
<glyph name="i" format="1">
  <advance width="300"/>
  <unicode hex="0069"/>
  <outline>
    <contour>
      <point x="188" y="0" type="line"/>
      <point x="76" y="0" type="line"/>
      <point x="76" y="998" type="line"/>
      <point x="188" y="998" type="line"/>
    </contour>
    <contour>
      <point x="150" y="1416" type="curve"/>
      <point x="185" y="1416"/>
      <point x="216" y="1385"/>
      <point x="216" y="1348" type="curve"/>
      <point x="216" y="1313"/>
      <point x="185" y="1282"/>
      <point x="150" y="1282" type="curve"/>
      <point x="113" y="1282"/>
      <point x="82" y="1313"/>
      <point x="82" y="1348" type="curve"/>
      <point x="82" y="1385"/>
      <point x="113" y="1416"/>
    </contour>
  </outline>
</glyph>
<glyph name="j" format="1">
  <advance width="398"/>
  <unicode hex="006A"/>
  <outline>
    <contour>
      <point x="298" y="998" type="line"/>
      <point x="298" y="-126" type="line"/>
      <point x="298" y="-217"/>
      <point x="279" y="-281"/>
      <point x="234" y="-332" type="curve"/>
      <point x="199" y="-369"/>
      <point x="153" y="-397"/>
      <point x="86" y="-418" type="curve"/>
      <point x="54" y="-332" type="line"/>
      <point x="97" y="-316"/>
      <point x="127" y="-291"/>
      <point x="148" y="-262" type="curve"/>
      <point x="175" y="-225"/>
      <point x="186" y="-180"/>
      <point x="186" y="-124" type="curve"/>
      <point x="186" y="894" type="line"/>
      <point x="58" y="894" type="line"/>
      <point x="58" y="998" type="line"/>
    </contour>
    <contour>
      <point x="314" y="1348" type="curve"/>
      <point x="314" y="1313"/>
      <point x="283" y="1282"/>
      <point x="246" y="1282" type="curve"/>
      <point x="209" y="1282"/>
      <point x="178" y="1313"/>
      <point x="178" y="1348" type="curve"/>
      <point x="178" y="1385"/>
      <point x="209" y="1414"/>
      <point x="246" y="1414" type="curve"/>
      <point x="283" y="1414"/>
      <point x="314" y="1385"/>
    </contour>
  </outline>
</glyph>
<glyph name="k" format="1">
  <advance width="852"/>
  <unicode hex="006B"/>
  <outline>
    <contour>
      <point x="674" y="960" type="line"/>
      <point x="378" y="702" type="line"/>
      <point x="814" y="0" type="line"/>
      <point x="680" y="0" type="line"/>
      <point x="298" y="632" type="line"/>
      <point x="194" y="544" type="line"/>
      <point x="194" y="0" type="line"/>
      <point x="82" y="0" type="line"/>
      <point x="82" y="1396" type="line"/>
      <point x="194" y="1396" type="line"/>
      <point x="194" y="668" type="line"/>
      <point x="594" y="1036" type="line"/>
    </contour>
  </outline>
</glyph>
<glyph name="m" format="1">
  <advance width="1430"/>
  <unicode hex="006D"/>
  <outline>
    <contour>
      <point x="1252" y="0" type="line"/>
      <point x="1252" y="682" type="line"/>
      <point x="1252" y="864"/>
      <point x="1137" y="914"/>
      <point x="1010" y="914" type="curve"/>
      <point x="933" y="914"/>
      <point x="846" y="893"/>
      <point x="750" y="834" type="curve"/>
      <point x="766" y="791"/>
      <point x="772" y="742"/>
      <point x="772" y="686" type="curve"/>
      <point x="772" y="0" type="line"/>
      <point x="668" y="0" type="line"/>
      <point x="668" y="682" type="line" smooth="yes"/>
      <point x="668" y="864"/>
      <point x="553" y="914"/>
      <point x="426" y="914" type="curve"/>
      <point x="335" y="914"/>
      <point x="271" y="892"/>
      <point x="188" y="844" type="curve"/>
      <point x="188" y="0" type="line"/>
      <point x="76" y="0" type="line"/>
      <point x="76" y="996" type="line"/>
      <point x="188" y="996" type="line"/>
      <point x="188" y="928" type="line"/>
      <point x="269" y="980"/>
      <point x="347" y="1014"/>
      <point x="446" y="1014" type="curve"/>
      <point x="571" y="1014"/>
      <point x="663" y="974"/>
      <point x="716" y="902" type="curve"/>
      <point x="804" y="969"/>
      <point x="919" y="1014"/>
      <point x="1030" y="1014" type="curve"/>
      <point x="1252" y="1014"/>
      <point x="1358" y="899"/>
      <point x="1358" y="686" type="curve"/>
      <point x="1358" y="0" type="line"/>
    </contour>
  </outline>
</glyph>
<glyph name="n" format="1">
  <advance width="884"/>
  <unicode hex="006E"/>
  <outline>
    <contour>
      <point x="702" y="0" type="line"/>
      <point x="702" y="682" type="line"/>
      <point x="702" y="862"/>
      <point x="570" y="916"/>
      <point x="442" y="916" type="curve"/>
      <point x="351" y="916"/>
      <point x="271" y="893"/>
      <point x="188" y="848" type="curve"/>
      <point x="188" y="0" type="line"/>
      <point x="76" y="0" type="line"/>
      <point x="76" y="998" type="line"/>
      <point x="188" y="998" type="line"/>
      <point x="188" y="930" type="line"/>
      <point x="265" y="983"/>
      <point x="365" y="1016"/>
      <point x="464" y="1016" type="curve"/>
      <point x="685" y="1016"/>
      <point x="812" y="896"/>
      <point x="812" y="688" type="curve"/>
      <point x="812" y="0" type="line"/>
    </contour>
  </outline>
</glyph>
<glyph name="o" format="1">
  <advance width="858"/>
  <unicode hex="006F"/>
  <outline>
    <contour>
      <point x="796" y="630" type="curve"/>
      <point x="796" y="368" type="line"/>
      <point x="796" y="136"/>
      <point x="675" y="-20"/>
      <point x="434" y="-20" type="curve"/>
      <point x="185" y="-20"/>
      <point x="58" y="153"/>
      <point x="58" y="368" type="curve"/>
      <point x="58" y="630" type="line" smooth="yes"/>
      <point x="58" y="883"/>
      <point x="193" y="1020"/>
      <point x="430" y="1020" type="curve"/>
      <point x="667" y="1020"/>
      <point x="796" y="873"/>
    </contour>
    <contour>
      <point x="684" y="348" type="curve"/>
      <point x="684" y="630" type="line"/>
      <point x="684" y="822"/>
      <point x="607" y="920"/>
      <point x="434" y="920" type="curve"/>
      <point x="258" y="920"/>
      <point x="170" y="822"/>
      <point x="170" y="630" type="curve"/>
      <point x="170" y="348" type="line" smooth="yes"/>
      <point x="170" y="189"/>
      <point x="272" y="80"/>
      <point x="434" y="80" type="curve"/>
      <point x="601" y="80"/>
      <point x="684" y="185"/>
    </contour>
  </outline>
</glyph>
<glyph name="p" format="1">
  <advance width="882"/>
  <unicode hex="0070"/>
  <outline>
    <contour>
      <point x="816" y="690" type="curve"/>
      <point x="816" y="350" type="line"/>
      <point x="816" y="107"/>
      <point x="697" y="-24"/>
      <point x="476" y="-24" type="curve"/>
      <point x="351" y="-24"/>
      <point x="241" y="40"/>
      <point x="192" y="122" type="curve"/>
      <point x="192" y="-422" type="line"/>
      <point x="78" y="-374" type="line"/>
      <point x="78" y="996" type="line"/>
      <point x="192" y="996" type="line"/>
      <point x="192" y="902" type="line"/>
      <point x="280" y="974"/>
      <point x="379" y="1012"/>
      <point x="476" y="1016" type="curve"/>
      <point x="697" y="1027"/>
      <point x="816" y="901"/>
    </contour>
    <contour>
      <point x="702" y="332" type="curve"/>
      <point x="702" y="684" type="line"/>
      <point x="702" y="864"/>
      <point x="579" y="928"/>
      <point x="452" y="916" type="curve"/>
      <point x="365" y="908"/>
      <point x="250" y="866"/>
      <point x="192" y="784" type="curve"/>
      <point x="192" y="346" type="line" smooth="yes"/>
      <point x="192" y="177"/>
      <point x="316" y="80"/>
      <point x="470" y="80" type="curve"/>
      <point x="619" y="80"/>
      <point x="702" y="164"/>
    </contour>
  </outline>
</glyph>
<glyph name="q" format="1">
  <advance width="880"/>
  <unicode hex="0071"/>
  <outline>
    <contour>
      <point x="686" y="-376" type="line"/>
      <point x="686" y="124" type="line"/>
      <point x="641" y="42"/>
      <point x="524" y="-22"/>
      <point x="404" y="-22" type="curve"/>
      <point x="180" y="-22"/>
      <point x="62" y="109"/>
      <point x="62" y="352" type="curve"/>
      <point x="62" y="690" type="line" smooth="yes"/>
      <point x="62" y="903"/>
      <point x="183" y="1029"/>
      <point x="402" y="1018" type="curve"/>
      <point x="499" y="1014"/>
      <point x="598" y="976"/>
      <point x="686" y="904" type="curve"/>
      <point x="686" y="996" type="line"/>
      <point x="800" y="996" type="line"/>
      <point x="800" y="-422" type="line"/>
    </contour>
    <contour>
      <point x="686" y="346" type="curve"/>
      <point x="686" y="786" type="line"/>
      <point x="630" y="870"/>
      <point x="512" y="910"/>
      <point x="426" y="918" type="curve"/>
      <point x="302" y="926"/>
      <point x="174" y="866"/>
      <point x="174" y="686" type="curve"/>
      <point x="174" y="334" type="line" smooth="yes"/>
      <point x="174" y="169"/>
      <point x="258" y="82"/>
      <point x="410" y="82" type="curve"/>
      <point x="564" y="82"/>
      <point x="686" y="176"/>
    </contour>
  </outline>
</glyph>
<glyph name="r" format="1">
  <advance width="664"/>
  <unicode hex="0072"/>
  <outline>
    <contour>
      <point x="618" y="1014" type="curve"/>
      <point x="610" y="918" type="line"/>
      <point x="610" y="918"/>
      <point x="569" y="923"/>
      <point x="526" y="920" type="curve"/>
      <point x="415" y="916"/>
      <point x="260" y="865"/>
      <point x="188" y="816" type="curve"/>
      <point x="188" y="0" type="line"/>
      <point x="76" y="0" type="line"/>
      <point x="76" y="998" type="line"/>
      <point x="188" y="998" type="line"/>
      <point x="188" y="932" type="line"/>
      <point x="287" y="977"/>
      <point x="384" y="1015"/>
      <point x="528" y="1020" type="curve"/>
      <point x="576" y="1025"/>
      <point x="618" y="1014"/>
    </contour>
  </outline>
</glyph>
<glyph name="s" format="1">
  <advance width="832"/>
  <unicode hex="0073"/>
  <outline>
    <contour>
      <point x="690" y="950" type="curve"/>
      <point x="644" y="876" type="line"/>
      <point x="592" y="908"/>
      <point x="514" y="926"/>
      <point x="448" y="926" type="curve"/>
      <point x="330" y="926"/>
      <point x="186" y="872"/>
      <point x="208" y="728" type="curve"/>
      <point x="216" y="683"/>
      <point x="251" y="649"/>
      <point x="296" y="622" type="curve"/>
      <point x="344" y="595"/>
      <point x="405" y="573"/>
      <point x="466" y="552" type="curve"/>
      <point x="610" y="500"/>
      <point x="772" y="428"/>
      <point x="772" y="250" type="curve"/>
      <point x="772" y="150"/>
      <point x="718" y="70"/>
      <point x="640" y="20" type="curve"/>
      <point x="581" y="-17"/>
      <point x="506" y="-36"/>
      <point x="426" y="-36" type="curve"/>
      <point x="359" y="-36"/>
      <point x="291" y="-21"/>
      <point x="224" y="8" type="curve"/>
      <point x="163" y="37"/>
      <point x="103" y="77"/>
      <point x="52" y="136" type="curve"/>
      <point x="114" y="200" type="line"/>
      <point x="202" y="112"/>
      <point x="302" y="68"/>
      <point x="426" y="68" type="curve"/>
      <point x="528" y="68"/>
      <point x="668" y="122"/>
      <point x="668" y="244" type="curve"/>
      <point x="668" y="303"/>
      <point x="643" y="344"/>
      <point x="598" y="376" type="curve"/>
      <point x="553" y="411"/>
      <point x="487" y="435"/>
      <point x="418" y="462" type="curve"/>
      <point x="348" y="488"/>
      <point x="276" y="512"/>
      <point x="214" y="554" type="curve"/>
      <point x="156" y="595"/>
      <point x="112" y="646"/>
      <point x="104" y="724" type="curve"/>
      <point x="93" y="833"/>
      <point x="143" y="913"/>
      <point x="220" y="964" type="curve"/>
      <point x="276" y="1001"/>
      <point x="349" y="1020"/>
      <point x="426" y="1020" type="curve"/>
      <point x="507" y="1020"/>
      <point x="591" y="1009"/>
    </contour>
  </outline>
</glyph>
<glyph name="t" format="1">
  <advance width="480"/>
  <unicode hex="0074"/>
  <outline>
    <contour>
      <point x="190" y="894" type="line"/>
      <point x="190" y="264" type="line"/>
      <point x="190" y="157"/>
      <point x="234" y="89"/>
      <point x="322" y="60" type="curve"/>
      <point x="288" y="-26" type="line"/>
      <point x="141" y="17"/>
      <point x="78" y="107"/>
      <point x="78" y="264" type="curve"/>
      <point x="78" y="1396" type="line"/>
      <point x="190" y="1396" type="line"/>
      <point x="190" y="998" type="line"/>
      <point x="430" y="998" type="line"/>
      <point x="382" y="894" type="line"/>
    </contour>
  </outline>
</glyph>
<glyph name="u" format="1">
  <advance width="888"/>
  <unicode hex="0075"/>
  <outline>
    <contour>
      <point x="696" y="0" type="line"/>
      <point x="696" y="96" type="line"/>
      <point x="629" y="19"/>
      <point x="519" y="-20"/>
      <point x="418" y="-20" type="curve"/>
      <point x="196" y="-20"/>
      <point x="70" y="86"/>
      <point x="70" y="312" type="curve"/>
      <point x="70" y="998" type="line"/>
      <point x="182" y="998" type="line"/>
      <point x="182" y="340" type="line" smooth="yes"/>
      <point x="182" y="158"/>
      <point x="271" y="88"/>
      <point x="422" y="88" type="curve"/>
      <point x="582" y="88"/>
      <point x="696" y="202"/>
      <point x="696" y="344" type="curve"/>
      <point x="696" y="998" type="line"/>
      <point x="808" y="998" type="line"/>
      <point x="808" y="0" type="line"/>
    </contour>
  </outline>
</glyph>
<glyph name="w" format="1">
  <advance width="1412"/>
  <unicode hex="0077"/>
  <outline>
    <contour>
      <point x="646" y="996" type="line"/>
      <point x="760" y="996" type="line"/>
      <point x="980" y="114" type="line"/>
      <point x="1246" y="996" type="line"/>
      <point x="1364" y="996" type="line"/>
      <point x="1054" y="0" type="line"/>
      <point x="900" y="0" type="line"/>
      <point x="700" y="808" type="line"/>
      <point x="496" y="0" type="line"/>
      <point x="342" y="0" type="line"/>
      <point x="38" y="996" type="line"/>
      <point x="154" y="996" type="line"/>
      <point x="422" y="114" type="line"/>
    </contour>
  </outline>
</glyph>
<glyph name="x" format="1">
  <advance width="872"/>
  <unicode hex="0078"/>
  <outline>
    <contour>
      <point x="188" y="996" type="line"/>
      <point x="438" y="598" type="line"/>
      <point x="690" y="996" type="line"/>
      <point x="814" y="996" type="line"/>
      <point x="502" y="496" type="line"/>
      <point x="814" y="0" type="line"/>
      <point x="682" y="0" type="line"/>
      <point x="438" y="394" type="line"/>
      <point x="192" y="0" type="line"/>
      <point x="60" y="0" type="line"/>
      <point x="372" y="496" type="line"/>
      <point x="60" y="996" type="line"/>
    </contour>
  </outline>
</glyph>
<glyph name="y" format="1">
  <advance width="934"/>
  <unicode hex="0079"/>
  <outline>
    <contour>
      <point x="834" y="1020" type="curve"/>
      <point x="874" y="936" type="line"/>
      <point x="837" y="920"/>
      <point x="808" y="897"/>
      <point x="808" y="814" type="curve"/>
      <point x="808" y="-124" type="line" smooth="yes"/>
      <point x="808" y="-288"/>
      <point x="750" y="-366"/>
      <point x="598" y="-416" type="curve"/>
      <point x="566" y="-330" type="line"/>
      <point x="658" y="-294"/>
      <point x="696" y="-218"/>
      <point x="696" y="-122" type="curve"/>
      <point x="696" y="100" type="line"/>
      <point x="629" y="20"/>
      <point x="519" y="-18"/>
      <point x="418" y="-18" type="curve"/>
      <point x="197" y="-18"/>
      <point x="70" y="88"/>
      <point x="70" y="314" type="curve"/>
      <point x="70" y="998" type="line"/>
      <point x="182" y="998" type="line"/>
      <point x="182" y="322" type="line" smooth="yes"/>
      <point x="182" y="137"/>
      <point x="318" y="88"/>
      <point x="442" y="88" type="curve"/>
      <point x="584" y="88"/>
      <point x="696" y="206"/>
      <point x="696" y="346" type="curve"/>
      <point x="696" y="816" type="line" smooth="yes"/>
      <point x="696" y="906"/>
      <point x="739" y="988"/>
    </contour>
  </outline>
</glyph>
<glyph name="z" format="1">
  <advance width="854"/>
  <unicode hex="007A"/>
  <outline>
    <contour>
      <point x="80" y="998" type="line"/>
      <point x="754" y="998" type="line"/>
      <point x="754" y="900" type="line"/>
      <point x="200" y="102" type="line"/>
      <point x="796" y="102" type="line"/>
      <point x="796" y="0" type="line"/>
      <point x="62" y="0" type="line"/>
      <point x="62" y="100" type="line"/>
      <point x="610" y="898" type="line"/>
      <point x="80" y="898" type="line"/>
    </contour>
  </outline>
</glyph>
<glyph name="braceleft" format="1">
  <advance width="514"/>
  <unicode hex="007B"/>
  <outline>
    <contour>
      <point x="324" y="1256" type="curve"/>
      <point x="324" y="1030" type="line"/>
      <point x="324" y="974"/>
      <point x="317" y="919"/>
      <point x="304" y="864" type="curve"/>
      <point x="291" y="809"/>
      <point x="253" y="756"/>
      <point x="190" y="704" type="curve"/>
      <point x="253" y="652"/>
      <point x="291" y="599"/>
      <point x="304" y="544" type="curve"/>
      <point x="317" y="489"/>
      <point x="324" y="434"/>
      <point x="324" y="378" type="curve"/>
      <point x="324" y="152" type="line" smooth="yes"/>
      <point x="324" y="-25"/>
      <point x="414" y="-103"/>
      <point x="476" y="-134" type="curve"/>
      <point x="430" y="-234" type="line"/>
      <point x="420" y="-229"/>
      <point x="210" y="-168"/>
      <point x="210" y="152" type="curve"/>
      <point x="210" y="378" type="line" smooth="yes"/>
      <point x="210" y="434"/>
      <point x="203" y="487"/>
      <point x="188" y="538" type="curve"/>
      <point x="173" y="589"/>
      <point x="135" y="639"/>
      <point x="72" y="688" type="curve"/>
      <point x="50" y="704" type="line"/>
      <point x="72" y="720" type="line" smooth="yes"/>
      <point x="135" y="768"/>
      <point x="173" y="818"/>
      <point x="188" y="869" type="curve"/>
      <point x="203" y="920"/>
      <point x="210" y="974"/>
      <point x="210" y="1030" type="curve"/>
      <point x="210" y="1256" type="line" smooth="yes"/>
      <point x="210" y="1579"/>
      <point x="424" y="1634"/>
      <point x="430" y="1640" type="curve"/>
      <point x="474" y="1544" type="line"/>
      <point x="416" y="1512"/>
      <point x="324" y="1436"/>
    </contour>
  </outline>
</glyph>
<glyph name="bar" format="1">
  <advance width="280"/>
  <unicode hex="007C"/>
  <outline>
    <contour>
      <point x="194" y="-226" type="line"/>
      <point x="84" y="-226" type="line"/>
      <point x="84" y="1630" type="line"/>
      <point x="194" y="1630" type="line"/>
    </contour>
  </outline>
</glyph>
<glyph name="braceright" format="1">
  <advance width="524"/>
  <unicode hex="007D"/>
  <outline>
    <contour>
      <point x="42" y="1544" type="curve"/>
      <point x="86" y="1640" type="line"/>
      <point x="94" y="1636"/>
      <point x="304" y="1577"/>
      <point x="304" y="1256" type="curve"/>
      <point x="304" y="1030" type="line" smooth="yes"/>
      <point x="304" y="917"/>
      <point x="315" y="817"/>
      <point x="444" y="720" type="curve"/>
      <point x="466" y="704" type="line"/>
      <point x="444" y="688" type="line" smooth="yes"/>
      <point x="315" y="591"/>
      <point x="304" y="489"/>
      <point x="304" y="378" type="curve"/>
      <point x="304" y="152" type="line" smooth="yes"/>
      <point x="304" y="-168"/>
      <point x="94" y="-229"/>
      <point x="84" y="-234" type="curve"/>
      <point x="40" y="-134" type="line"/>
      <point x="98" y="-102"/>
      <point x="192" y="-26"/>
      <point x="192" y="152" type="curve"/>
      <point x="192" y="378" type="line" smooth="yes"/>
      <point x="192" y="490"/>
      <point x="204" y="600"/>
      <point x="324" y="704" type="curve"/>
      <point x="204" y="808"/>
      <point x="192" y="918"/>
      <point x="192" y="1030" type="curve"/>
      <point x="192" y="1256" type="line" smooth="yes"/>
      <point x="192" y="1436"/>
      <point x="100" y="1512"/>
    </contour>
  </outline>
</glyph>
<glyph name="asciitilde" format="1">
  <advance width="532"/>
  <unicode hex="007E"/>
  <outline>
    <contour>
      <point x="526" y="692" type="curve"/>
      <point x="576" y="610" type="line"/>
      <point x="515" y="543"/>
      <point x="459" y="521"/>
      <point x="408" y="524" type="curve"/>
      <point x="315" y="524"/>
      <point x="229" y="592"/>
      <point x="138" y="596" type="curve"/>
      <point x="95" y="599"/>
      <point x="52" y="587"/>
      <point x="4" y="542" type="curve"/>
      <point x="-42" y="624" type="line"/>
      <point x="17" y="685"/>
      <point x="71" y="706"/>
      <point x="122" y="706" type="curve"/>
      <point x="222" y="706"/>
      <point x="312" y="634"/>
      <point x="404" y="634" type="curve"/>
      <point x="455" y="637"/>
      <point x="494" y="657"/>
    </contour>
  </outline>
</glyph>
<glyph name="exclamdown" format="1">
  <advance width="294"/>
  <unicode hex="00A1"/>
  <outline>
    <contour>
      <point x="194" y="1176" type="line"/>
      <point x="212" y="72" type="line"/>
      <point x="212" y="24"/>
      <point x="190" y="0"/>
      <point x="146" y="0" type="curve"/>
      <point x="103" y="0"/>
      <point x="80" y="23"/>
      <point x="80" y="74" type="curve"/>
      <point x="100" y="1176" type="line"/>
    </contour>
    <contour>
      <point x="212" y="1348" type="curve"/>
      <point x="212" y="1313"/>
      <point x="183" y="1282"/>
      <point x="146" y="1282" type="curve"/>
      <point x="109" y="1282"/>
      <point x="78" y="1313"/>
      <point x="78" y="1348" type="curve"/>
      <point x="78" y="1385"/>
      <point x="109" y="1414"/>
      <point x="146" y="1414" type="curve"/>
      <point x="183" y="1414"/>
      <point x="212" y="1385"/>
    </contour>
  </outline>
</glyph>
<glyph name="cent" format="1">
  <advance width="760"/>
  <unicode hex="00A2"/>
  <outline>
    <contour>
      <point x="488" y="-226" type="line"/>
      <point x="376" y="-226" type="line"/>
      <point x="376" y="1242" type="line"/>
      <point x="488" y="1242" type="line"/>
    </contour>
    <component base="c"/>
  </outline>
</glyph>
<glyph name="sterling" format="1">
  <advance width="854"/>
  <unicode hex="00A3"/>
  <outline>
    <contour>
      <point x="68" y="106" type="line"/>
      <point x="226" y="106" type="line"/>
      <point x="394" y="106"/>
      <point x="564" y="194"/>
      <point x="572" y="378" type="curve"/>
      <point x="576" y="446"/>
      <point x="550" y="518"/>
      <point x="494" y="582" type="curve"/>
      <point x="410" y="678" type="line"/>
      <point x="68" y="678" type="line"/>
      <point x="68" y="792" type="line"/>
      <point x="308" y="792" type="line"/>
      <point x="268" y="838" type="line" smooth="yes"/>
      <point x="186" y="932"/>
      <point x="124" y="1030"/>
      <point x="128" y="1136" type="curve"/>
      <point x="128" y="1308"/>
      <point x="274" y="1412"/>
      <point x="438" y="1412" type="curve"/>
      <point x="532" y="1412"/>
      <point x="632" y="1386"/>
      <point x="720" y="1338" type="curve"/>
      <point x="682" y="1240" type="line"/>
      <point x="599" y="1291"/>
      <point x="507" y="1317"/>
      <point x="424" y="1308" type="curve"/>
      <point x="320" y="1296"/>
      <point x="248" y="1228"/>
      <point x="244" y="1138" type="curve"/>
      <point x="238" y="1052"/>
      <point x="298" y="966"/>
      <point x="352" y="906" type="curve"/>
      <point x="452" y="792" type="line"/>
      <point x="784" y="792" type="line"/>
      <point x="784" y="678" type="line"/>
      <point x="554" y="678" type="line"/>
      <point x="578" y="648" type="line" smooth="yes"/>
      <point x="644" y="564"/>
      <point x="682" y="472"/>
      <point x="682" y="380" type="curve"/>
      <point x="682" y="278"/>
      <point x="628" y="160"/>
      <point x="540" y="106" type="curve"/>
      <point x="784" y="106" type="line"/>
      <point x="784" y="0" type="line"/>
      <point x="68" y="0" type="line"/>
    </contour>
  </outline>
</glyph>
<glyph name="currency" format="1">
  <advance width="930"/>
  <unicode hex="00A4"/>
  <outline>
    <contour>
      <point x="864" y="896" type="line"/>
      <point x="700" y="730" type="line"/>
      <point x="732" y="685"/>
      <point x="752" y="627"/>
      <point x="752" y="566" type="curve"/>
      <point x="752" y="502"/>
      <point x="732" y="443"/>
      <point x="700" y="398" type="curve"/>
      <point x="864" y="234" type="line"/>
      <point x="794" y="162" type="line"/>
      <point x="628" y="328" type="line"/>
      <point x="580" y="293"/>
      <point x="525" y="274"/>
      <point x="464" y="274" type="curve"/>
      <point x="400" y="274"/>
      <point x="341" y="293"/>
      <point x="296" y="328" type="curve"/>
      <point x="132" y="162" type="line"/>
      <point x="62" y="234" type="line"/>
      <point x="226" y="398" type="line"/>
      <point x="194" y="443"/>
      <point x="174" y="502"/>
      <point x="174" y="566" type="curve"/>
      <point x="174" y="627"/>
      <point x="189" y="685"/>
      <point x="224" y="730" type="curve"/>
      <point x="62" y="896" type="line"/>
      <point x="132" y="966" type="line"/>
      <point x="294" y="800" type="line"/>
      <point x="343" y="837"/>
      <point x="400" y="856"/>
      <point x="464" y="856" type="curve"/>
      <point x="525" y="856"/>
      <point x="583" y="837"/>
      <point x="628" y="800" type="curve"/>
      <point x="794" y="966" type="line"/>
    </contour>
    <contour>
      <point x="464" y="376" type="curve"/>
      <point x="567" y="376"/>
      <point x="650" y="460"/>
      <point x="650" y="566" type="curve"/>
      <point x="650" y="669"/>
      <point x="567" y="752"/>
      <point x="464" y="752" type="curve"/>
      <point x="358" y="752"/>
      <point x="274" y="669"/>
      <point x="274" y="566" type="curve"/>
      <point x="274" y="460"/>
      <point x="358" y="376"/>
    </contour>
  </outline>
</glyph>
<glyph name="yen" format="1">
  <advance width="1028"/>
  <unicode hex="00A5"/>
  <outline>
    <contour>
      <point x="458" y="396" type="line"/>
      <point x="194" y="396" type="line"/>
      <point x="194" y="506" type="line"/>
      <point x="458" y="506" type="line"/>
      <point x="458" y="678" type="line"/>
      <point x="42" y="1396" type="line"/>
      <point x="170" y="1396" type="line"/>
      <point x="512" y="810" type="line"/>
      <point x="860" y="1396" type="line"/>
      <point x="984" y="1396" type="line"/>
      <point x="570" y="682" type="line"/>
      <point x="570" y="506" type="line"/>
      <point x="832" y="506" type="line"/>
      <point x="832" y="396" type="line"/>
      <point x="570" y="396" type="line"/>
      <point x="570" y="296" type="line"/>
      <point x="832" y="296" type="line"/>
      <point x="832" y="188" type="line"/>
      <point x="570" y="188" type="line"/>
      <point x="570" y="0" type="line"/>
      <point x="458" y="0" type="line"/>
      <point x="458" y="188" type="line"/>
      <point x="194" y="188" type="line"/>
      <point x="194" y="296" type="line"/>
      <point x="458" y="296" type="line"/>
    </contour>
  </outline>
</glyph>
<glyph name="dieresis" format="1">
  <advance width="532"/>
  <unicode hex="00A8"/>
  <outline>
    <contour>
      <point x="108" y="1480" type="curve"/>
      <point x="145" y="1480"/>
      <point x="176" y="1449"/>
      <point x="176" y="1412" type="curve"/>
      <point x="176" y="1375"/>
      <point x="145" y="1346"/>
      <point x="108" y="1346" type="curve"/>
      <point x="73" y="1346"/>
      <point x="42" y="1375"/>
      <point x="42" y="1412" type="curve"/>
      <point x="42" y="1449"/>
      <point x="73" y="1480"/>
    </contour>
    <contour>
      <point x="424" y="1480" type="curve"/>
      <point x="461" y="1480"/>
      <point x="490" y="1449"/>
      <point x="490" y="1412" type="curve"/>
      <point x="490" y="1375"/>
      <point x="461" y="1346"/>
      <point x="424" y="1346" type="curve"/>
      <point x="387" y="1346"/>
      <point x="358" y="1375"/>
      <point x="358" y="1412" type="curve"/>
      <point x="358" y="1449"/>
      <point x="387" y="1480"/>
    </contour>
  </outline>
</glyph>
<glyph name="copyright" format="1">
  <advance width="1388"/>
  <unicode hex="00A9"/>
  <outline>
    <contour>
      <point x="1324" y="652" type="curve"/>
      <point x="1324" y="374" type="line"/>
      <point x="1324" y="31"/>
      <point x="1060" y="-138"/>
      <point x="692" y="-138" type="curve"/>
      <point x="327" y="-138"/>
      <point x="62" y="31"/>
      <point x="62" y="374" type="curve"/>
      <point x="62" y="652" type="line" smooth="yes"/>
      <point x="62" y="990"/>
      <point x="327" y="1164"/>
      <point x="692" y="1164" type="curve"/>
      <point x="1060" y="1164"/>
      <point x="1324" y="990"/>
    </contour>
    <contour>
      <point x="1206" y="422" type="curve"/>
      <point x="1206" y="602" type="line"/>
      <point x="1206" y="930"/>
      <point x="1042" y="1056"/>
      <point x="692" y="1056" type="curve"/>
      <point x="343" y="1056"/>
      <point x="180" y="930"/>
      <point x="180" y="602" type="curve"/>
      <point x="180" y="422" type="line" smooth="yes"/>
      <point x="180" y="97"/>
      <point x="343" y="-30"/>
      <point x="692" y="-30" type="curve"/>
      <point x="1042" y="-30"/>
      <point x="1206" y="97"/>
    </contour>
    <contour>
      <point x="1002" y="840" type="curve"/>
      <point x="970" y="766" type="line"/>
      <point x="899" y="794"/>
      <point x="821" y="808"/>
      <point x="754" y="808" type="curve"/>
      <point x="666" y="808"/>
      <point x="599" y="789"/>
      <point x="548" y="752" type="curve"/>
      <point x="481" y="704"/>
      <point x="446" y="620"/>
      <point x="446" y="508" type="curve"/>
      <point x="446" y="404"/>
      <point x="469" y="317"/>
      <point x="536" y="266" type="curve"/>
      <point x="581" y="234"/>
      <point x="647" y="216"/>
      <point x="738" y="216" type="curve"/>
      <point x="817" y="216"/>
      <point x="915" y="236"/>
      <point x="1028" y="274" type="curve"/>
      <point x="1052" y="180" type="line"/>
      <point x="940" y="137"/>
      <point x="832" y="116"/>
      <point x="728" y="116" type="curve"/>
      <point x="685" y="116"/>
      <point x="591" y="112"/>
      <point x="494" y="164" type="curve"/>
      <point x="396" y="216"/>
      <point x="332" y="330"/>
      <point x="332" y="498" type="curve"/>
      <point x="332" y="674"/>
      <point x="391" y="787"/>
      <point x="506" y="856" type="curve"/>
      <point x="565" y="893"/>
      <point x="638" y="906"/>
      <point x="718" y="906" type="curve"/>
      <point x="819" y="906"/>
      <point x="919" y="885"/>
    </contour>
  </outline>
</glyph>
<glyph name="ordfeminine" format="1">
  <advance width="656"/>
  <unicode hex="00AA"/>
  <outline>
    <contour>
      <point x="584" y="778" type="curve"/>
      <point x="496" y="767"/>
      <point x="414" y="756"/>
      <point x="342" y="756" type="curve"/>
      <point x="168" y="761"/>
      <point x="46" y="820"/>
      <point x="46" y="1034" type="curve"/>
      <point x="46" y="1165"/>
      <point x="120" y="1262"/>
      <point x="256" y="1258" type="curve"/>
      <point x="317" y="1255"/>
      <point x="392" y="1233"/>
      <point x="480" y="1182" type="curve"/>
      <point x="480" y="1227"/>
      <point x="462" y="1270"/>
      <point x="418" y="1298" type="curve"/>
      <point x="382" y="1321"/>
      <point x="321" y="1328"/>
      <point x="246" y="1328" type="curve"/>
      <point x="254" y="1414" type="line"/>
      <point x="363" y="1414"/>
      <point x="445" y="1397"/>
      <point x="498" y="1352" type="curve"/>
      <point x="554" y="1307"/>
      <point x="584" y="1229"/>
      <point x="584" y="1106" type="curve"/>
      <point x="584" y="998"/>
      <point x="584" y="887"/>
    </contour>
    <contour>
      <point x="476" y="856" type="curve"/>
      <point x="476" y="1082" type="line"/>
      <point x="396" y="1130"/>
      <point x="310" y="1164"/>
      <point x="246" y="1164" type="curve"/>
      <point x="182" y="1164"/>
      <point x="140" y="1126"/>
      <point x="140" y="1024" type="curve"/>
      <point x="140" y="944"/>
      <point x="172" y="893"/>
      <point x="236" y="864" type="curve"/>
      <point x="310" y="831"/>
      <point x="479" y="857"/>
    </contour>
  </outline>
</glyph>
<glyph name="registered" format="1">
  <advance width="1388"/>
  <unicode hex="00AE"/>
  <outline>
    <contour>
      <point x="1324" y="652" type="curve"/>
      <point x="1324" y="374" type="line"/>
      <point x="1324" y="31"/>
      <point x="1060" y="-134"/>
      <point x="692" y="-138" type="curve"/>
      <point x="327" y="-134"/>
      <point x="62" y="31"/>
      <point x="62" y="374" type="curve"/>
      <point x="62" y="652" type="line" smooth="yes"/>
      <point x="62" y="990"/>
      <point x="327" y="1164"/>
      <point x="692" y="1164" type="curve"/>
      <point x="1060" y="1164"/>
      <point x="1324" y="990"/>
    </contour>
    <contour>
      <point x="1202" y="422" type="curve"/>
      <point x="1202" y="602" type="line"/>
      <point x="1202" y="930"/>
      <point x="1042" y="1052"/>
      <point x="692" y="1056" type="curve"/>
      <point x="343" y="1052"/>
      <point x="180" y="930"/>
      <point x="180" y="602" type="curve"/>
      <point x="180" y="422" type="line" smooth="yes"/>
      <point x="180" y="97"/>
      <point x="343" y="-26"/>
      <point x="692" y="-30" type="curve"/>
      <point x="1042" y="-26"/>
      <point x="1202" y="97"/>
    </contour>
    <contour>
      <point x="360" y="884" type="line"/>
      <point x="768" y="884" type="line"/>
      <point x="874" y="884"/>
      <point x="1023" y="860"/>
      <point x="1028" y="622" type="curve"/>
      <point x="1030" y="510"/>
      <point x="996" y="406"/>
      <point x="880" y="370" type="curve"/>
      <point x="1006" y="118" type="line"/>
      <point x="878" y="118" type="line"/>
      <point x="764" y="352" type="line"/>
      <point x="466" y="352" type="line"/>
      <point x="466" y="118" type="line"/>
      <point x="360" y="118" type="line"/>
    </contour>
    <contour>
      <point x="466" y="464" type="line"/>
      <point x="774" y="464" type="line"/>
      <point x="875" y="464"/>
      <point x="924" y="513"/>
      <point x="924" y="620" type="curve"/>
      <point x="924" y="729"/>
      <point x="881" y="776"/>
      <point x="774" y="776" type="curve"/>
      <point x="466" y="776" type="line"/>
    </contour>
  </outline>
</glyph>
<glyph name="macron" format="1">
  <advance width="532"/>
  <unicode hex="00AF"/>
  <outline>
    <contour>
      <point x="46" y="1350" type="line"/>
      <point x="486" y="1350" type="line"/>
      <point x="486" y="1234" type="line"/>
      <point x="46" y="1234" type="line"/>
    </contour>
  </outline>
</glyph>
<glyph name="degree" format="1">
  <advance width="532"/>
  <unicode hex="00B0"/>
  <outline>
    <contour>
      <point x="558" y="1126" type="curve"/>
      <point x="558" y="966"/>
      <point x="428" y="836"/>
      <point x="268" y="836" type="curve"/>
      <point x="107" y="836"/>
      <point x="-24" y="966"/>
      <point x="-24" y="1126" type="curve"/>
      <point x="-24" y="1286"/>
      <point x="107" y="1416"/>
      <point x="268" y="1416" type="curve"/>
      <point x="428" y="1416"/>
      <point x="558" y="1286"/>
    </contour>
    <contour>
      <point x="268" y="1316" type="curve"/>
      <point x="165" y="1316"/>
      <point x="78" y="1229"/>
      <point x="78" y="1126" type="curve"/>
      <point x="78" y="1026"/>
      <point x="165" y="938"/>
      <point x="268" y="938" type="curve"/>
      <point x="370" y="938"/>
      <point x="456" y="1026"/>
      <point x="456" y="1126" type="curve"/>
      <point x="456" y="1229"/>
      <point x="370" y="1316"/>
    </contour>
  </outline>
</glyph>
<glyph name="plusminus" format="1">
  <advance width="764"/>
  <unicode hex="00B1"/>
  <outline>
    <contour>
      <point x="328" y="754" type="line"/>
      <point x="62" y="754" type="line"/>
      <point x="62" y="862" type="line"/>
      <point x="328" y="862" type="line"/>
      <point x="328" y="1126" type="line"/>
      <point x="438" y="1126" type="line"/>
      <point x="438" y="862" type="line"/>
      <point x="700" y="862" type="line"/>
      <point x="700" y="754" type="line"/>
      <point x="438" y="754" type="line"/>
      <point x="438" y="492" type="line"/>
      <point x="698" y="492" type="line"/>
      <point x="698" y="378" type="line"/>
      <point x="60" y="378" type="line"/>
      <point x="60" y="492" type="line"/>
      <point x="328" y="492" type="line"/>
    </contour>
  </outline>
</glyph>
<glyph name="acute" format="1">
  <advance width="532"/>
  <unicode hex="00B4"/>
  <outline>
    <contour>
      <point x="392" y="1364" type="curve"/>
      <point x="286" y="1206" type="line"/>
      <point x="216" y="1206" type="line"/>
      <point x="292" y="1420" type="line" smooth="yes"/>
      <point x="305" y="1457"/>
      <point x="342" y="1478"/>
      <point x="378" y="1458" type="curve"/>
      <point x="414" y="1438"/>
      <point x="414" y="1397"/>
    </contour>
  </outline>
</glyph>
<glyph name="mu" format="1">
  <advance width="928"/>
  <unicode hex="00B5"/>
  <outline>
    <contour>
      <point x="816" y="1016" type="line"/>
      <point x="816" y="188" type="line"/>
      <point x="815" y="104"/>
      <point x="873" y="51"/>
      <point x="870" y="52" type="curve"/>
      <point x="816" y="-12" type="line"/>
      <point x="817" y="-10"/>
      <point x="763" y="4"/>
      <point x="720" y="88" type="curve"/>
      <point x="679" y="18"/>
      <point x="575" y="-24"/>
      <point x="475" y="-24" type="curve"/>
      <point x="263" y="-24"/>
      <point x="192" y="93"/>
      <point x="192" y="88" type="curve"/>
      <point x="192" y="-418" type="line"/>
      <point x="78" y="-372" type="line"/>
      <point x="78" y="998" type="line"/>
      <point x="192" y="998" type="line"/>
      <point x="192" y="303" type="line" smooth="yes"/>
      <point x="192" y="187"/>
      <point x="293" y="86"/>
      <point x="470" y="86" type="curve"/>
      <point x="606" y="86"/>
      <point x="702" y="157"/>
      <point x="702" y="306" type="curve"/>
      <point x="702" y="992" type="line"/>
    </contour>
  </outline>
</glyph>
<glyph name="paragraph" format="1">
  <advance width="1240"/>
  <unicode hex="00B6"/>
  <outline>
    <contour>
      <point x="814" y="492" type="line"/>
      <point x="454" y="492" type="line"/>
      <point x="193" y="492"/>
      <point x="60" y="617"/>
      <point x="60" y="948" type="curve"/>
      <point x="60" y="1290"/>
      <point x="200" y="1400"/>
      <point x="454" y="1400" type="curve"/>
      <point x="1154" y="1400" type="line"/>
      <point x="1154" y="2" type="line"/>
      <point x="1042" y="2" type="line"/>
      <point x="1042" y="1294" type="line"/>
      <point x="924" y="1294" type="line"/>
      <point x="924" y="2" type="line"/>
      <point x="814" y="2" type="line"/>
    </contour>
    <contour>
      <point x="814" y="1294" type="line"/>
      <point x="446" y="1294" type="line"/>
      <point x="290" y="1294"/>
      <point x="172" y="1231"/>
      <point x="172" y="948" type="curve"/>
      <point x="172" y="644"/>
      <point x="295" y="600"/>
      <point x="446" y="600" type="curve"/>
      <point x="814" y="600" type="line"/>
    </contour>
  </outline>
</glyph>
<glyph name="cedilla" format="1">
  <advance width="532"/>
  <unicode hex="00B8"/>
  <outline>
    <contour>
      <point x="230" y="0" type="line"/>
      <point x="330" y="0" type="line"/>
      <point x="278" y="-88" type="line"/>
      <point x="294" y="-85"/>
      <point x="312" y="-85"/>
      <point x="330" y="-84" type="curve"/>
      <point x="462" y="-76"/>
      <point x="540" y="-159"/>
      <point x="540" y="-270" type="curve"/>
      <point x="540" y="-402"/>
      <point x="428" y="-466"/>
      <point x="310" y="-466" type="curve"/>
      <point x="219" y="-466"/>
      <point x="112" y="-442"/>
      <point x="108" y="-442" type="curve"/>
      <point x="125" y="-383"/>
      <point x="115" y="-405"/>
      <point x="132" y="-346" type="curve"/>
      <point x="188" y="-354"/>
      <point x="245" y="-368"/>
      <point x="298" y="-368" type="curve"/>
      <point x="377" y="-368"/>
      <point x="440" y="-348"/>
      <point x="440" y="-266" type="curve"/>
      <point x="440" y="-197"/>
      <point x="393" y="-182"/>
      <point x="324" y="-182" type="curve"/>
      <point x="281" y="-185"/>
      <point x="229" y="-191"/>
      <point x="176" y="-196" type="curve"/>
      <point x="150" y="-138" type="line"/>
    </contour>
  </outline>
</glyph>
<glyph name="guillemotright" format="1">
  <advance width="1004"/>
  <unicode hex="00BB"/>
  <outline>
    <contour>
      <point x="66" y="226" type="line"/>
      <point x="360" y="532" type="line"/>
      <point x="62" y="832" type="line"/>
      <point x="134" y="906" type="line"/>
      <point x="508" y="532" type="line"/>
      <point x="134" y="158" type="line"/>
    </contour>
    <contour>
      <point x="504" y="226" type="line"/>
      <point x="798" y="532" type="line"/>
      <point x="500" y="832" type="line"/>
      <point x="574" y="906" type="line"/>
      <point x="946" y="532" type="line"/>
      <point x="574" y="158" type="line"/>
    </contour>
  </outline>
</glyph>
<glyph name="questiondown" format="1">
  <advance width="816"/>
  <unicode hex="00BF"/>
  <outline>
    <contour>
      <point x="644" y="322" type="curve"/>
      <point x="756" y="322" type="line"/>
      <point x="754" y="80"/>
      <point x="584" y="-30"/>
      <point x="412" y="-30" type="curve"/>
      <point x="234" y="-30"/>
      <point x="58" y="90"/>
      <point x="58" y="310" type="curve"/>
      <point x="58" y="456"/>
      <point x="130" y="546"/>
      <point x="222" y="652" type="curve"/>
      <point x="301" y="742"/>
      <point x="374" y="805"/>
      <point x="374" y="970" type="curve"/>
      <point x="374" y="1144" type="line"/>
      <point x="478" y="1144" type="line"/>
      <point x="478" y="960" type="line" smooth="yes"/>
      <point x="478" y="787"/>
      <point x="398" y="689"/>
      <point x="324" y="604" type="curve"/>
      <point x="247" y="519"/>
      <point x="168" y="450"/>
      <point x="168" y="314" type="curve"/>
      <point x="168" y="159"/>
      <point x="286" y="78"/>
      <point x="402" y="74" type="curve"/>
      <point x="525" y="70"/>
      <point x="644" y="152"/>
    </contour>
    <contour>
      <point x="424" y="1402" type="curve"/>
      <point x="461" y="1402"/>
      <point x="492" y="1371"/>
      <point x="492" y="1334" type="curve"/>
      <point x="492" y="1297"/>
      <point x="461" y="1268"/>
      <point x="424" y="1268" type="curve"/>
      <point x="389" y="1268"/>
      <point x="358" y="1297"/>
      <point x="358" y="1334" type="curve"/>
      <point x="358" y="1371"/>
      <point x="389" y="1402"/>
    </contour>
  </outline>
</glyph>
<glyph name="AE" format="1">
  <advance width="1500"/>
  <unicode hex="00C6"/>
  <outline>
    <contour>
      <point x="1432" y="0" type="line"/>
      <point x="766" y="0" type="line"/>
      <point x="766" y="486" type="line"/>
      <point x="346" y="486" type="line"/>
      <point x="158" y="0" type="line"/>
      <point x="40" y="0" type="line"/>
      <point x="582" y="1396" type="line"/>
      <point x="1438" y="1396" type="line"/>
      <point x="1438" y="1290" type="line"/>
      <point x="880" y="1290" type="line"/>
      <point x="880" y="826" type="line"/>
      <point x="1262" y="826" type="line"/>
      <point x="1224" y="710" type="line"/>
      <point x="880" y="710" type="line"/>
      <point x="880" y="100" type="line"/>
      <point x="1432" y="100" type="line"/>
    </contour>
    <contour>
      <point x="658" y="1290" type="line"/>
      <point x="388" y="598" type="line"/>
      <point x="766" y="598" type="line"/>
      <point x="766" y="1290" type="line"/>
    </contour>
  </outline>
</glyph>
<glyph name="Eth" format="1">
  <advance width="990"/>
  <unicode hex="00D0"/>
  <outline>
    <contour>
      <point x="538" y="712" type="line"/>
      <point x="134" y="712" type="line"/>
      <point x="134" y="822" type="line"/>
      <point x="574" y="822" type="line"/>
    </contour>
    <component base="D"/>
  </outline>
</glyph>
<glyph name="multiply" format="1">
  <advance width="692"/>
  <unicode hex="00D7"/>
  <outline>
    <contour>
      <point x="142" y="990" type="line"/>
      <point x="346" y="748" type="line"/>
      <point x="546" y="990" type="line"/>
      <point x="628" y="922" type="line"/>
      <point x="416" y="664" type="line"/>
      <point x="628" y="410" type="line"/>
      <point x="546" y="334" type="line"/>
      <point x="346" y="578" type="line"/>
      <point x="146" y="334" type="line"/>
      <point x="62" y="410" type="line"/>
      <point x="272" y="664" type="line"/>
      <point x="62" y="922" type="line"/>
    </contour>
  </outline>
</glyph>
<glyph name="Oslash" format="1">
  <advance width="980"/>
  <unicode hex="00D8"/>
  <outline>
    <contour>
      <point x="294" y="-226" type="line"/>
      <point x="172" y="-226" type="line"/>
      <point x="820" y="1630" type="line"/>
      <point x="932" y="1630" type="line"/>
    </contour>
    <component base="O"/>
  </outline>
</glyph>
<glyph name="Thorn" format="1">
  <advance width="860"/>
  <unicode hex="00DE"/>
  <outline>
    <contour>
      <point x="800" y="870" type="curve"/>
      <point x="800" y="578" type="line"/>
      <point x="800" y="383"/>
      <point x="715" y="281"/>
      <point x="576" y="236" type="curve"/>
      <point x="469" y="201"/>
      <point x="319" y="204"/>
      <point x="194" y="236" type="curve"/>
      <point x="194" y="0" type="line"/>
      <point x="82" y="0" type="line"/>
      <point x="82" y="1396" type="line"/>
      <point x="194" y="1396" type="line"/>
      <point x="194" y="1198" type="line"/>
      <point x="301" y="1243"/>
      <point x="425" y="1261"/>
      <point x="526" y="1240" type="curve"/>
      <point x="710" y="1200"/>
      <point x="800" y="1046"/>
    </contour>
    <contour>
      <point x="506" y="1140" type="curve"/>
      <point x="428" y="1162"/>
      <point x="283" y="1137"/>
      <point x="194" y="1094" type="curve"/>
      <point x="194" y="338" type="line"/>
      <point x="237" y="333"/>
      <point x="436" y="289"/>
      <point x="552" y="336" type="curve"/>
      <point x="656" y="376"/>
      <point x="692" y="469"/>
      <point x="692" y="602" type="curve"/>
      <point x="692" y="840" type="line" smooth="yes"/>
      <point x="692" y="968"/>
      <point x="644" y="1102"/>
    </contour>
  </outline>
</glyph>
<glyph name="germandbls" format="1">
  <advance width="928"/>
  <unicode hex="00DF"/>
  <outline>
    <contour>
      <point x="190" y="1078" type="curve"/>
      <point x="190" y="0" type="line"/>
      <point x="153" y="0"/>
      <point x="115" y="0"/>
      <point x="78" y="0" type="curve"/>
      <point x="78" y="1072" type="line" smooth="yes"/>
      <point x="78" y="1277"/>
      <point x="174" y="1390"/>
      <point x="346" y="1396" type="curve"/>
      <point x="512" y="1402"/>
      <point x="602" y="1268"/>
      <point x="608" y="1140" type="curve"/>
      <point x="612" y="1066"/>
      <point x="589" y="995"/>
      <point x="536" y="950" type="curve"/>
      <point x="539" y="950"/>
      <point x="474" y="950"/>
      <point x="476" y="950" type="curve"/>
      <point x="460" y="926"/>
      <point x="455" y="902"/>
      <point x="458" y="878" type="curve"/>
      <point x="470" y="800"/>
      <point x="560" y="729"/>
      <point x="654" y="646" type="curve"/>
      <point x="763" y="550"/>
      <point x="876" y="436"/>
      <point x="876" y="282" type="curve"/>
      <point x="876" y="79"/>
      <point x="727" y="-14"/>
      <point x="564" y="-22" type="curve"/>
      <point x="456" y="-26"/>
      <point x="347" y="7"/>
      <point x="266" y="72" type="curve"/>
      <point x="320" y="158" type="line"/>
      <point x="388" y="104"/>
      <point x="464" y="86"/>
      <point x="546" y="86" type="curve"/>
      <point x="658" y="86"/>
      <point x="760" y="153"/>
      <point x="760" y="286" type="curve"/>
      <point x="760" y="407"/>
      <point x="657" y="499"/>
      <point x="554" y="588" type="curve"/>
      <point x="455" y="673"/>
      <point x="355" y="760"/>
      <point x="344" y="866" type="curve"/>
      <point x="341" y="911"/>
      <point x="349" y="961"/>
      <point x="378" y="1012" type="curve"/>
      <point x="469" y="1012"/>
      <point x="503" y="1081"/>
      <point x="498" y="1150" type="curve"/>
      <point x="494" y="1222"/>
      <point x="441" y="1290"/>
      <point x="356" y="1290" type="curve"/>
      <point x="245" y="1290"/>
      <point x="190" y="1219"/>
    </contour>
  </outline>
</glyph>
<glyph name="ae" format="1">
  <advance width="1494"/>
  <unicode hex="00E6"/>
  <outline>
    <contour>
      <point x="826" y="390" type="line"/>
      <point x="826" y="266" type="line"/>
      <point x="826" y="76"/>
      <point x="985" y="72"/>
      <point x="1048" y="72" type="curve"/>
      <point x="1155" y="72"/>
      <point x="1239" y="103"/>
      <point x="1338" y="156" type="curve"/>
      <point x="1382" y="70" type="line"/>
      <point x="1283" y="9"/>
      <point x="1159" y="-21"/>
      <point x="1058" y="-24" type="curve"/>
      <point x="999" y="-24"/>
      <point x="897" y="-23"/>
      <point x="820" y="28" type="curve"/>
      <point x="820" y="0" type="line"/>
      <point x="795" y="-6"/>
      <point x="457" y="-20"/>
      <point x="412" y="-20" type="curve"/>
      <point x="205" y="-8"/>
      <point x="52" y="79"/>
      <point x="52" y="336" type="curve"/>
      <point x="52" y="502" type="line" smooth="yes"/>
      <point x="52" y="726"/>
      <point x="198" y="804"/>
      <point x="358" y="804" type="curve"/>
      <point x="489" y="804"/>
      <point x="615" y="751"/>
      <point x="708" y="698" type="curve"/>
      <point x="708" y="885"/>
      <point x="581" y="928"/>
      <point x="400" y="928" type="curve"/>
      <point x="403" y="957"/>
      <point x="401" y="987"/>
      <point x="404" y="1014" type="curve"/>
      <point x="530" y="1014"/>
      <point x="695" y="996"/>
      <point x="766" y="874" type="curve"/>
      <point x="833" y="967"/>
      <point x="938" y="1016"/>
      <point x="1082" y="1016" type="curve"/>
      <point x="1298" y="1016"/>
      <point x="1434" y="899"/>
      <point x="1434" y="682" type="curve"/>
      <point x="1434" y="422" type="line"/>
    </contour>
    <contour>
      <point x="708" y="92" type="curve"/>
      <point x="708" y="604" type="line"/>
      <point x="602" y="659"/>
      <point x="474" y="708"/>
      <point x="348" y="708" type="curve"/>
      <point x="278" y="708"/>
      <point x="162" y="679"/>
      <point x="162" y="498" type="curve"/>
      <point x="162" y="350" type="line" smooth="yes"/>
      <point x="162" y="160"/>
      <point x="229" y="65"/>
      <point x="496" y="76" type="curve"/>
      <point x="626" y="84"/>
      <point x="708" y="93"/>
    </contour>
    <contour>
      <point x="1320" y="522" type="line"/>
      <point x="1320" y="696" type="line"/>
      <point x="1320" y="877"/>
      <point x="1163" y="922"/>
      <point x="1078" y="922" type="curve"/>
      <point x="904" y="922"/>
      <point x="826" y="829"/>
      <point x="826" y="616" type="curve"/>
      <point x="826" y="500" type="line"/>
    </contour>
  </outline>
</glyph>
<glyph name="eth" format="1">
  <advance width="848"/>
  <unicode hex="00F0"/>
  <outline>
    <contour>
      <point x="364" y="1340" type="curve"/>
      <point x="378" y="1398" type="line"/>
      <point x="510" y="1381"/>
      <point x="612" y="1330"/>
      <point x="685" y="1245" type="curve"/>
      <point x="758" y="1160"/>
      <point x="794" y="1058"/>
      <point x="794" y="938" type="curve"/>
      <point x="794" y="374" type="line" smooth="yes"/>
      <point x="794" y="121"/>
      <point x="659" y="-18"/>
      <point x="422" y="-18" type="curve"/>
      <point x="185" y="-18"/>
      <point x="56" y="131"/>
      <point x="56" y="374" type="curve"/>
      <point x="56" y="490" type="line" smooth="yes"/>
      <point x="56" y="735"/>
      <point x="175" y="866"/>
      <point x="394" y="866" type="curve"/>
      <point x="518" y="866"/>
      <point x="636" y="803"/>
      <point x="680" y="718" type="curve"/>
      <point x="680" y="958" type="line" smooth="yes"/>
      <point x="680" y="1249"/>
      <point x="431" y="1325"/>
    </contour>
    <contour>
      <point x="168" y="506" type="curve"/>
      <point x="168" y="374" type="line" smooth="yes"/>
      <point x="168" y="179"/>
      <point x="248" y="86"/>
      <point x="416" y="86" type="curve"/>
      <point x="592" y="86"/>
      <point x="680" y="179"/>
      <point x="680" y="374" type="curve"/>
      <point x="680" y="496" type="line" smooth="yes"/>
      <point x="680" y="666"/>
      <point x="557" y="760"/>
      <point x="404" y="760" type="curve"/>
      <point x="252" y="760"/>
      <point x="168" y="674"/>
    </contour>
    <contour>
      <point x="698" y="1402" type="line"/>
      <point x="754" y="1346" type="line"/>
      <point x="396" y="988" type="line"/>
      <point x="340" y="1044" type="line"/>
    </contour>
  </outline>
</glyph>
<glyph name="divide" format="1">
  <advance width="756"/>
  <unicode hex="00F7"/>
  <outline>
    <contour>
      <point x="694" y="710" type="line"/>
      <point x="56" y="710" type="line"/>
      <point x="56" y="818" type="line"/>
      <point x="694" y="818" type="line"/>
    </contour>
    <contour>
      <point x="376" y="1088" type="curve"/>
      <point x="413" y="1088"/>
      <point x="444" y="1057"/>
      <point x="444" y="1020" type="curve"/>
      <point x="444" y="985"/>
      <point x="413" y="954"/>
      <point x="376" y="954" type="curve"/>
      <point x="339" y="954"/>
      <point x="310" y="985"/>
      <point x="310" y="1020" type="curve"/>
      <point x="310" y="1057"/>
      <point x="339" y="1088"/>
    </contour>
    <contour>
      <point x="376" y="574" type="curve"/>
      <point x="413" y="574"/>
      <point x="444" y="545"/>
      <point x="444" y="508" type="curve"/>
      <point x="444" y="471"/>
      <point x="413" y="442"/>
      <point x="376" y="442" type="curve"/>
      <point x="339" y="442"/>
      <point x="310" y="471"/>
      <point x="310" y="508" type="curve"/>
      <point x="310" y="545"/>
      <point x="339" y="574"/>
    </contour>
  </outline>
</glyph>
<glyph name="oslash" format="1">
  <advance width="858"/>
  <unicode hex="00F8"/>
  <outline>
    <contour>
      <point x="603" y="1025" type="line"/>
      <point x="719" y="1025" type="line"/>
      <point x="258" y="-40" type="line"/>
      <point x="146" y="-40" type="line"/>
    </contour>
    <component base="o"/>
  </outline>
</glyph>
<glyph name="thorn" format="1">
  <advance width="888"/>
  <unicode hex="00FE"/>
  <outline>
    <contour>
      <point x="194" y="1396" type="line"/>
      <point x="194" y="906" type="line"/>
      <point x="271" y="981"/>
      <point x="357" y="1014"/>
      <point x="472" y="1014" type="curve"/>
      <point x="692" y="1014"/>
      <point x="836" y="843"/>
      <point x="836" y="620" type="curve"/>
      <point x="836" y="380"/>
      <point x="686" y="232"/>
      <point x="464" y="232" type="curve"/>
      <point x="366" y="232"/>
      <point x="247" y="285"/>
      <point x="194" y="370" type="curve"/>
      <point x="194" y="0" type="line"/>
      <point x="82" y="0" type="line"/>
      <point x="82" y="1396" type="line"/>
    </contour>
    <contour>
      <point x="462" y="914" type="curve"/>
      <point x="320" y="914"/>
      <point x="196" y="830"/>
      <point x="196" y="646" type="curve"/>
      <point x="196" y="430"/>
      <point x="306" y="338"/>
      <point x="460" y="338" type="curve"/>
      <point x="618" y="338"/>
      <point x="724" y="434"/>
      <point x="724" y="632" type="curve"/>
      <point x="724" y="832"/>
      <point x="608" y="914"/>
    </contour>
  </outline>
</glyph>
<glyph name="hbar" format="1">
  <advance width="942"/>
  <unicode hex="0127"/>
  <outline>
    <contour>
      <point x="522" y="1230" type="line"/>
      <point x="522" y="1124" type="line"/>
      <point x="52" y="1124" type="line"/>
      <point x="52" y="1230" type="line"/>
    </contour>
    <contour>
      <point x="254" y="1396" type="line"/>
      <point x="254" y="930" type="line"/>
      <point x="331" y="983"/>
      <point x="433" y="1016"/>
      <point x="532" y="1016" type="curve"/>
      <point x="753" y="1016"/>
      <point x="880" y="900"/>
      <point x="880" y="690" type="curve"/>
      <point x="880" y="0" type="line"/>
      <point x="768" y="0" type="line"/>
      <point x="768" y="684" type="line" smooth="yes"/>
      <point x="768" y="866"/>
      <point x="637" y="916"/>
      <point x="510" y="916" type="curve"/>
      <point x="419" y="916"/>
      <point x="337" y="893"/>
      <point x="254" y="848" type="curve"/>
      <point x="254" y="0" type="line"/>
      <point x="142" y="0" type="line"/>
      <point x="142" y="1396" type="line"/>
    </contour>
  </outline>
</glyph>
<glyph name="dotlessi" format="1">
  <advance width="268"/>
  <unicode hex="0131"/>
  <outline>
    <contour>
      <point x="188" y="0" type="line"/>
      <point x="76" y="0" type="line"/>
      <point x="76" y="998" type="line"/>
      <point x="188" y="998" type="line"/>
    </contour>
  </outline>
</glyph>
<glyph name="IJ" format="1">
  <advance width="1098"/>
  <unicode hex="0132"/>
  <outline>
    <contour>
      <point x="764" y="1396" type="line"/>
      <point x="1010" y="1396" type="line"/>
      <point x="1010" y="370" type="line" smooth="yes"/>
      <point x="1010" y="115"/>
      <point x="840" y="-22"/>
      <point x="594" y="-22" type="curve"/>
      <point x="345" y="-22"/>
      <point x="174" y="111"/>
      <point x="174" y="370" type="curve"/>
      <point x="174" y="444" type="line"/>
      <point x="284" y="444" type="line"/>
      <point x="284" y="372" type="line" smooth="yes"/>
      <point x="284" y="181"/>
      <point x="410" y="84"/>
      <point x="592" y="84" type="curve"/>
      <point x="776" y="84"/>
      <point x="900" y="181"/>
      <point x="900" y="372" type="curve"/>
      <point x="900" y="1294" type="line"/>
      <point x="764" y="1298" type="line"/>
    </contour>
    <contour>
      <point x="38" y="1396" type="line"/>
      <point x="284" y="1396" type="line"/>
      <point x="284" y="548" type="line"/>
      <point x="174" y="548" type="line"/>
      <point x="174" y="1294" type="line"/>
      <point x="38" y="1298" type="line"/>
    </contour>
  </outline>
</glyph>
<glyph name="ij" format="1">
  <advance width="930"/>
  <unicode hex="0133"/>
  <outline>
    <contour>
      <point x="150" y="1416" type="curve"/>
      <point x="185" y="1416"/>
      <point x="216" y="1385"/>
      <point x="216" y="1348" type="curve"/>
      <point x="216" y="1313"/>
      <point x="185" y="1282"/>
      <point x="150" y="1282" type="curve"/>
      <point x="113" y="1282"/>
      <point x="82" y="1313"/>
      <point x="82" y="1348" type="curve"/>
      <point x="82" y="1385"/>
      <point x="113" y="1416"/>
    </contour>
    <contour>
      <point x="836" y="1348" type="curve"/>
      <point x="836" y="1313"/>
      <point x="805" y="1282"/>
      <point x="768" y="1282" type="curve"/>
      <point x="733" y="1282"/>
      <point x="702" y="1313"/>
      <point x="702" y="1348" type="curve"/>
      <point x="702" y="1385"/>
      <point x="733" y="1414"/>
      <point x="768" y="1414" type="curve"/>
      <point x="805" y="1414"/>
      <point x="836" y="1385"/>
    </contour>
    <contour>
      <point x="718" y="346" type="curve"/>
      <point x="718" y="1000" type="line"/>
      <point x="830" y="1000" type="line"/>
      <point x="830" y="-124" type="line" smooth="yes"/>
      <point x="830" y="-288"/>
      <point x="772" y="-366"/>
      <point x="620" y="-416" type="curve"/>
      <point x="588" y="-330" type="line"/>
      <point x="680" y="-294"/>
      <point x="718" y="-218"/>
      <point x="718" y="-122" type="curve"/>
      <point x="718" y="100" type="line"/>
      <point x="651" y="20"/>
      <point x="541" y="-18"/>
      <point x="440" y="-18" type="curve"/>
      <point x="219" y="-18"/>
      <point x="92" y="88"/>
      <point x="92" y="314" type="curve"/>
      <point x="92" y="998" type="line"/>
      <point x="204" y="998" type="line"/>
      <point x="204" y="322" type="line" smooth="yes"/>
      <point x="204" y="137"/>
      <point x="340" y="88"/>
      <point x="464" y="88" type="curve"/>
      <point x="606" y="88"/>
      <point x="718" y="206"/>
    </contour>
  </outline>
</glyph>
<glyph name="Lslash" format="1">
  <advance width="1018"/>
  <unicode hex="0141"/>
  <outline>
    <contour>
      <point x="974" y="0" type="line"/>
      <point x="252" y="0" type="line"/>
      <point x="252" y="692" type="line"/>
      <point x="80" y="616" type="line"/>
      <point x="36" y="716" type="line"/>
      <point x="252" y="812" type="line"/>
      <point x="252" y="1396" type="line"/>
      <point x="364" y="1396" type="line"/>
      <point x="364" y="862" type="line"/>
      <point x="618" y="976" type="line"/>
      <point x="664" y="878" type="line"/>
      <point x="364" y="744" type="line"/>
      <point x="364" y="100" type="line"/>
      <point x="974" y="100" type="line"/>
    </contour>
  </outline>
</glyph>
<glyph name="lslash" format="1">
  <advance width="706"/>
  <unicode hex="0142"/>
  <outline>
    <contour>
      <point x="34" y="712" type="line"/>
      <point x="290" y="828" type="line"/>
      <point x="290" y="1396" type="line"/>
      <point x="402" y="1396" type="line"/>
      <point x="402" y="878" type="line"/>
      <point x="614" y="974" type="line"/>
      <point x="660" y="876" type="line"/>
      <point x="402" y="760" type="line"/>
      <point x="402" y="0" type="line"/>
      <point x="290" y="0" type="line"/>
      <point x="290" y="708" type="line"/>
      <point x="78" y="614" type="line"/>
    </contour>
  </outline>
</glyph>
<glyph name="Eng" format="1">
  <advance width="1152"/>
  <unicode hex="014A"/>
  <outline>
    <contour>
      <point x="1066" y="1396" type="line"/>
      <point x="1066" y="-124" type="line"/>
      <point x="1066" y="-215"/>
      <point x="1047" y="-279"/>
      <point x="1002" y="-330" type="curve"/>
      <point x="967" y="-367"/>
      <point x="921" y="-395"/>
      <point x="854" y="-416" type="curve"/>
      <point x="824" y="-330" type="line"/>
      <point x="864" y="-314"/>
      <point x="895" y="-289"/>
      <point x="916" y="-260" type="curve"/>
      <point x="943" y="-223"/>
      <point x="954" y="-177"/>
      <point x="954" y="-124" type="curve"/>
      <point x="954" y="2" type="line"/>
      <point x="194" y="1190" type="line"/>
      <point x="194" y="0" type="line"/>
      <point x="82" y="0" type="line"/>
      <point x="82" y="1396" type="line"/>
      <point x="196" y="1396" type="line"/>
      <point x="954" y="206" type="line"/>
      <point x="954" y="1396" type="line"/>
    </contour>
  </outline>
</glyph>
<glyph name="eng" format="1">
  <advance width="884"/>
  <unicode hex="014B"/>
  <outline>
    <contour>
      <point x="812" y="690" type="curve"/>
      <point x="812" y="-90" type="line"/>
      <point x="812" y="-181"/>
      <point x="793" y="-246"/>
      <point x="748" y="-294" type="curve"/>
      <point x="713" y="-331"/>
      <point x="669" y="-359"/>
      <point x="602" y="-380" type="curve"/>
      <point x="568" y="-294" type="line"/>
      <point x="608" y="-281"/>
      <point x="639" y="-258"/>
      <point x="660" y="-226" type="curve"/>
      <point x="687" y="-191"/>
      <point x="700" y="-147"/>
      <point x="700" y="-88" type="curve"/>
      <point x="700" y="684" type="line" smooth="yes"/>
      <point x="700" y="866"/>
      <point x="569" y="916"/>
      <point x="442" y="916" type="curve"/>
      <point x="351" y="916"/>
      <point x="265" y="893"/>
      <point x="188" y="848" type="curve"/>
      <point x="188" y="0" type="line"/>
      <point x="76" y="0" type="line"/>
      <point x="76" y="996" type="line"/>
      <point x="188" y="996" type="line"/>
      <point x="188" y="930" type="line"/>
      <point x="265" y="983"/>
      <point x="365" y="1016"/>
      <point x="464" y="1016" type="curve"/>
      <point x="685" y="1016"/>
      <point x="812" y="900"/>
    </contour>
  </outline>
</glyph>
<glyph name="OE" format="1">
  <advance width="1524"/>
  <unicode hex="0152"/>
  <outline>
    <contour>
      <point x="1458" y="0" type="line"/>
      <point x="794" y="0" type="line"/>
      <point x="794" y="86" type="line"/>
      <point x="720" y="16"/>
      <point x="613" y="-22"/>
      <point x="490" y="-22" type="curve"/>
      <point x="254" y="-22"/>
      <point x="68" y="112"/>
      <point x="68" y="370" type="curve"/>
      <point x="68" y="1012" type="line" smooth="yes"/>
      <point x="68" y="1284"/>
      <point x="228" y="1428"/>
      <point x="492" y="1428" type="curve"/>
      <point x="620" y="1428"/>
      <point x="725" y="1389"/>
      <point x="794" y="1320" type="curve"/>
      <point x="794" y="1396" type="line"/>
      <point x="1462" y="1396" type="line"/>
      <point x="1462" y="1292" type="line"/>
      <point x="908" y="1292" type="line"/>
      <point x="908" y="822" type="line"/>
      <point x="1288" y="822" type="line"/>
      <point x="1250" y="712" type="line"/>
      <point x="908" y="712" type="line"/>
      <point x="908" y="100" type="line"/>
      <point x="1458" y="100" type="line"/>
    </contour>
    <contour>
      <point x="180" y="1030" type="curve"/>
      <point x="180" y="372" type="line"/>
      <point x="180" y="180"/>
      <point x="311" y="84"/>
      <point x="486" y="84" type="curve"/>
      <point x="655" y="84"/>
      <point x="778" y="162"/>
      <point x="794" y="328" type="curve"/>
      <point x="794" y="1072" type="line"/>
      <point x="778" y="1237"/>
      <point x="659" y="1322"/>
      <point x="486" y="1322" type="curve"/>
      <point x="302" y="1322"/>
      <point x="180" y="1225"/>
    </contour>
  </outline>
</glyph>
<glyph name="oe" format="1">
  <advance width="1478"/>
  <unicode hex="0153"/>
  <outline>
    <contour>
      <point x="810" y="390" type="line"/>
      <point x="810" y="266" type="line"/>
      <point x="810" y="125"/>
      <point x="901" y="72"/>
      <point x="1032" y="72" type="curve"/>
      <point x="1131" y="72"/>
      <point x="1223" y="103"/>
      <point x="1322" y="156" type="curve"/>
      <point x="1366" y="70" type="line"/>
      <point x="1267" y="9"/>
      <point x="1143" y="-21"/>
      <point x="1042" y="-24" type="curve"/>
      <point x="923" y="-24"/>
      <point x="785" y="-1"/>
      <point x="726" y="116" type="curve"/>
      <point x="670" y="31"/>
      <point x="573" y="-20"/>
      <point x="434" y="-20" type="curve"/>
      <point x="185" y="-20"/>
      <point x="58" y="153"/>
      <point x="58" y="368" type="curve"/>
      <point x="58" y="630" type="line" smooth="yes"/>
      <point x="58" y="883"/>
      <point x="193" y="1020"/>
      <point x="430" y="1020" type="curve"/>
      <point x="579" y="1020"/>
      <point x="683" y="962"/>
      <point x="742" y="858" type="curve"/>
      <point x="808" y="974"/>
      <point x="939" y="1016"/>
      <point x="1066" y="1016" type="curve"/>
      <point x="1279" y="1016"/>
      <point x="1418" y="900"/>
      <point x="1418" y="682" type="curve"/>
      <point x="1418" y="422" type="line"/>
    </contour>
    <contour>
      <point x="684" y="348" type="curve"/>
      <point x="684" y="630" type="line"/>
      <point x="684" y="822"/>
      <point x="607" y="920"/>
      <point x="434" y="920" type="curve"/>
      <point x="258" y="920"/>
      <point x="170" y="822"/>
      <point x="170" y="630" type="curve"/>
      <point x="170" y="348" type="line" smooth="yes"/>
      <point x="170" y="189"/>
      <point x="272" y="80"/>
      <point x="434" y="80" type="curve"/>
      <point x="601" y="80"/>
      <point x="684" y="185"/>
    </contour>
    <contour>
      <point x="1306" y="522" type="line"/>
      <point x="1306" y="696" type="line"/>
      <point x="1306" y="836"/>
      <point x="1201" y="922"/>
      <point x="1064" y="922" type="curve"/>
      <point x="907" y="922"/>
      <point x="810" y="833"/>
      <point x="810" y="674" type="curve"/>
      <point x="810" y="500" type="line"/>
    </contour>
  </outline>
</glyph>
<glyph name="Tbar" format="1">
  <advance width="926"/>
  <unicode hex="0166"/>
  <outline>
    <contour>
      <point x="58" y="644" type="line"/>
      <point x="58" y="756" type="line"/>
      <point x="856" y="756" type="line"/>
      <point x="856" y="644" type="line"/>
    </contour>
    <contour>
      <point x="860" y="1296" type="line"/>
      <point x="508" y="1296" type="line"/>
      <point x="508" y="0" type="line"/>
      <point x="398" y="0" type="line"/>
      <point x="398" y="1296" type="line"/>
      <point x="58" y="1296" type="line"/>
      <point x="58" y="1396" type="line"/>
      <point x="860" y="1396" type="line"/>
    </contour>
  </outline>
</glyph>
<glyph name="tbar" format="1">
  <advance width="572"/>
  <unicode hex="0167"/>
  <outline>
    <contour>
      <point x="510" y="710" type="line"/>
      <point x="510" y="604" type="line"/>
      <point x="50" y="604" type="line"/>
      <point x="50" y="710" type="line"/>
    </contour>
    <contour>
      <point x="272" y="894" type="line"/>
      <point x="272" y="264" type="line"/>
      <point x="272" y="157"/>
      <point x="316" y="89"/>
      <point x="404" y="60" type="curve"/>
      <point x="370" y="-26" type="line"/>
      <point x="223" y="17"/>
      <point x="160" y="107"/>
      <point x="160" y="264" type="curve"/>
      <point x="160" y="1396" type="line"/>
      <point x="272" y="1396" type="line"/>
      <point x="272" y="998" type="line"/>
      <point x="512" y="998" type="line"/>
      <point x="464" y="894" type="line"/>
    </contour>
  </outline>
</glyph>
<glyph name="dotlessj" format="1">
  <advance width="374"/>
  <unicode hex="0237"/>
  <outline>
    <contour>
      <point x="294" y="998" type="line"/>
      <point x="294" y="-126" type="line"/>
      <point x="294" y="-288"/>
      <point x="236" y="-370"/>
      <point x="84" y="-418" type="curve"/>
      <point x="52" y="-332" type="line"/>
      <point x="144" y="-296"/>
      <point x="182" y="-220"/>
      <point x="182" y="-124" type="curve"/>
      <point x="182" y="894" type="line"/>
      <point x="56" y="894" type="line"/>
      <point x="56" y="998" type="line"/>
    </contour>
  </outline>
</glyph>
<glyph name="caron" format="1">
  <advance width="532"/>
  <unicode hex="02C7"/>
  <outline>
    <contour>
      <point x="448" y="1504" type="line"/>
      <point x="526" y="1430" type="line"/>
      <point x="262" y="1174" type="line"/>
      <point x="6" y="1426" type="line"/>
      <point x="84" y="1502" type="line"/>
      <point x="262" y="1326" type="line"/>
    </contour>
  </outline>
</glyph>
<glyph name="breve" format="1">
  <advance width="532"/>
  <unicode hex="02D8"/>
  <outline>
    <contour>
      <point x="400" y="1404" type="line"/>
      <point x="490" y="1404" type="line"/>
      <point x="490" y="1390" type="line" smooth="yes"/>
      <point x="490" y="1265"/>
      <point x="390" y="1164"/>
      <point x="266" y="1164" type="curve"/>
      <point x="143" y="1164"/>
      <point x="40" y="1265"/>
      <point x="40" y="1390" type="curve"/>
      <point x="40" y="1404" type="line"/>
      <point x="130" y="1404" type="line"/>
      <point x="130" y="1390" type="line" smooth="yes"/>
      <point x="130" y="1315"/>
      <point x="191" y="1254"/>
      <point x="266" y="1254" type="curve"/>
      <point x="343" y="1254"/>
      <point x="400" y="1315"/>
      <point x="400" y="1390" type="curve"/>
    </contour>
  </outline>
</glyph>
<glyph name="dotaccent" format="1">
  <advance width="532"/>
  <unicode hex="02D9"/>
  <outline>
    <contour>
      <point x="266" y="1496" type="curve"/>
      <point x="303" y="1496"/>
      <point x="332" y="1465"/>
      <point x="332" y="1428" type="curve"/>
      <point x="332" y="1393"/>
      <point x="303" y="1362"/>
      <point x="266" y="1362" type="curve"/>
      <point x="229" y="1362"/>
      <point x="200" y="1393"/>
      <point x="200" y="1428" type="curve"/>
      <point x="200" y="1465"/>
      <point x="229" y="1496"/>
    </contour>
  </outline>
</glyph>
<glyph name="ring" format="1">
  <advance width="532"/>
  <unicode hex="02DA"/>
  <outline>
    <contour>
      <point x="266" y="1546" type="curve"/>
      <point x="389" y="1546"/>
      <point x="492" y="1447"/>
      <point x="492" y="1320" type="curve"/>
      <point x="492" y="1191"/>
      <point x="389" y="1092"/>
      <point x="266" y="1092" type="curve"/>
      <point x="142" y="1092"/>
      <point x="38" y="1191"/>
      <point x="38" y="1320" type="curve"/>
      <point x="38" y="1447"/>
      <point x="142" y="1546"/>
    </contour>
    <contour>
      <point x="266" y="1458" type="curve"/>
      <point x="227" y="1458"/>
      <point x="191" y="1442"/>
      <point x="166" y="1417" type="curve"/>
      <point x="141" y="1392"/>
      <point x="126" y="1358"/>
      <point x="126" y="1320" type="curve"/>
      <point x="126" y="1281"/>
      <point x="142" y="1246"/>
      <point x="167" y="1221" type="curve"/>
      <point x="192" y="1196"/>
      <point x="227" y="1180"/>
      <point x="266" y="1180" type="curve"/>
      <point x="305" y="1180"/>
      <point x="339" y="1196"/>
      <point x="364" y="1221" type="curve"/>
      <point x="389" y="1246"/>
      <point x="404" y="1281"/>
      <point x="404" y="1320" type="curve"/>
      <point x="404" y="1358"/>
      <point x="390" y="1391"/>
      <point x="366" y="1416" type="curve"/>
      <point x="341" y="1442"/>
      <point x="306" y="1458"/>
    </contour>
  </outline>
</glyph>
<glyph name="ogonek" format="1">
  <advance width="532"/>
  <unicode hex="02DB"/>
  <outline>
    <contour>
      <point x="234" y="16" type="line"/>
      <point x="322" y="22" type="line"/>
      <point x="322" y="4" type="line"/>
      <point x="180" y="-244" type="line" smooth="yes"/>
      <point x="128" y="-336"/>
      <point x="181" y="-400"/>
      <point x="278" y="-368" type="curve"/>
      <point x="389" y="-327"/>
      <point x="471" y="-301"/>
      <point x="472" y="-300" type="curve"/>
      <point x="508" y="-378" type="line"/>
      <point x="510" y="-378"/>
      <point x="334" y="-442"/>
      <point x="300" y="-452" type="curve"/>
      <point x="122" y="-500"/>
      <point x="25" y="-361"/>
      <point x="106" y="-216" type="curve"/>
      <point x="234" y="6" type="line"/>
    </contour>
  </outline>
</glyph>
<glyph name="tilde" format="1">
  <advance width="532"/>
  <unicode hex="02DC"/>
  <outline>
    <contour>
      <point x="410" y="1398" type="curve"/>
      <point x="410" y="1434" type="line"/>
      <point x="510" y="1434" type="line"/>
      <point x="510" y="1398" type="line" smooth="yes"/>
      <point x="510" y="1315"/>
      <point x="471" y="1234"/>
      <point x="378" y="1234" type="curve"/>
      <point x="335" y="1234"/>
      <point x="301" y="1255"/>
      <point x="266" y="1276" type="curve"/>
      <point x="242" y="1289"/>
      <point x="219" y="1307"/>
      <point x="198" y="1320" type="curve"/>
      <point x="179" y="1333"/>
      <point x="153" y="1345"/>
      <point x="134" y="1332" type="curve"/>
      <point x="121" y="1321"/>
      <point x="122" y="1289"/>
      <point x="122" y="1276" type="curve"/>
      <point x="122" y="1240" type="line"/>
      <point x="22" y="1240" type="line"/>
      <point x="22" y="1276" type="line" smooth="yes"/>
      <point x="22" y="1324"/>
      <point x="32" y="1375"/>
      <point x="72" y="1410" type="curve"/>
      <point x="112" y="1442"/>
      <point x="171" y="1443"/>
      <point x="216" y="1422" type="curve"/>
      <point x="245" y="1411"/>
      <point x="275" y="1389"/>
      <point x="302" y="1370" type="curve"/>
      <point x="323" y="1357"/>
      <point x="333" y="1348"/>
      <point x="352" y="1340" type="curve"/>
      <point x="400" y="1319"/>
      <point x="410" y="1361"/>
    </contour>
  </outline>
</glyph>
<glyph name="hungarumlaut" format="1">
  <advance width="532"/>
  <unicode hex="02DD"/>
  <outline>
    <contour>
      <point x="290" y="1316" type="curve"/>
      <point x="182" y="1160" type="line"/>
      <point x="112" y="1160" type="line"/>
      <point x="188" y="1372" type="line" smooth="yes"/>
      <point x="201" y="1409"/>
      <point x="241" y="1433"/>
      <point x="276" y="1412" type="curve"/>
      <point x="313" y="1393"/>
      <point x="312" y="1348"/>
    </contour>
    <contour>
      <point x="512" y="1316" type="curve"/>
      <point x="406" y="1160" type="line"/>
      <point x="336" y="1160" type="line"/>
      <point x="410" y="1372" type="line" smooth="yes"/>
      <point x="423" y="1409"/>
      <point x="463" y="1433"/>
      <point x="498" y="1412" type="curve"/>
      <point x="535" y="1393"/>
      <point x="534" y="1349"/>
    </contour>
  </outline>
</glyph>
<glyph name="uni0302" format="1">
  <advance width="532"/>
  <unicode hex="0302"/>
  <outline>
    <contour>
      <point x="268" y="1538" type="line"/>
      <point x="526" y="1284" type="line"/>
      <point x="446" y="1210" type="line"/>
      <point x="268" y="1386" type="line"/>
      <point x="84" y="1206" type="line"/>
      <point x="6" y="1282" type="line"/>
    </contour>
  </outline>
</glyph>
<glyph name="uni0306" format="1">
  <advance width="532"/>
  <unicode hex="0306"/>
  <outline>
    <contour>
      <point x="400" y="1404" type="line"/>
      <point x="490" y="1404" type="line"/>
      <point x="490" y="1390" type="line" smooth="yes"/>
      <point x="490" y="1326"/>
      <point x="464" y="1270"/>
      <point x="424" y="1230" type="curve"/>
      <point x="384" y="1190"/>
      <point x="328" y="1164"/>
      <point x="266" y="1164" type="curve"/>
      <point x="204" y="1164"/>
      <point x="148" y="1190"/>
      <point x="108" y="1230" type="curve"/>
      <point x="66" y="1270"/>
      <point x="40" y="1326"/>
      <point x="40" y="1390" type="curve"/>
      <point x="40" y="1404" type="line"/>
      <point x="130" y="1404" type="line"/>
      <point x="130" y="1390" type="line" smooth="yes"/>
      <point x="130" y="1316"/>
      <point x="192" y="1254"/>
      <point x="266" y="1254" type="curve"/>
      <point x="344" y="1254"/>
      <point x="400" y="1316"/>
      <point x="400" y="1390" type="curve"/>
    </contour>
  </outline>
</glyph>
<glyph name="uni0307" format="1">
  <advance width="532"/>
  <unicode hex="0307"/>
  <outline>
    <contour>
      <point x="266" y="1496" type="curve"/>
      <point x="304" y="1496"/>
      <point x="332" y="1466"/>
      <point x="332" y="1428" type="curve"/>
      <point x="332" y="1394"/>
      <point x="304" y="1362"/>
      <point x="266" y="1362" type="curve"/>
      <point x="228" y="1362"/>
      <point x="200" y="1394"/>
      <point x="200" y="1428" type="curve"/>
      <point x="200" y="1466"/>
      <point x="228" y="1496"/>
    </contour>
  </outline>
</glyph>
<glyph name="uni0308" format="1">
  <advance width="532"/>
  <unicode hex="0308"/>
  <outline>
    <contour>
      <point x="108" y="1480" type="curve"/>
      <point x="146" y="1480"/>
      <point x="176" y="1450"/>
      <point x="176" y="1412" type="curve"/>
      <point x="176" y="1374"/>
      <point x="146" y="1346"/>
      <point x="108" y="1346" type="curve"/>
      <point x="74" y="1346"/>
      <point x="42" y="1374"/>
      <point x="42" y="1412" type="curve"/>
      <point x="42" y="1450"/>
      <point x="74" y="1480"/>
    </contour>
    <contour>
      <point x="424" y="1480" type="curve"/>
      <point x="462" y="1480"/>
      <point x="490" y="1450"/>
      <point x="490" y="1412" type="curve"/>
      <point x="490" y="1374"/>
      <point x="462" y="1346"/>
      <point x="424" y="1346" type="curve"/>
      <point x="386" y="1346"/>
      <point x="358" y="1374"/>
      <point x="358" y="1412" type="curve"/>
      <point x="358" y="1450"/>
      <point x="386" y="1480"/>
    </contour>
  </outline>
</glyph>
<glyph name="tonos" format="1">
  <advance width="532"/>
  <unicode hex="0384"/>
  <outline>
    <contour>
      <point x="404" y="1364" type="curve"/>
      <point x="298" y="1206" type="line"/>
      <point x="228" y="1206" type="line"/>
      <point x="304" y="1420" type="line" smooth="yes"/>
      <point x="317" y="1457"/>
      <point x="355" y="1479"/>
      <point x="390" y="1458" type="curve"/>
      <point x="427" y="1439"/>
      <point x="431" y="1393"/>
    </contour>
  </outline>
</glyph>
<glyph name="dieresistonos" format="1">
  <advance width="532"/>
  <unicode hex="0385"/>
  <outline>
    <contour>
      <point x="174" y="1380" type="curve"/>
      <point x="174" y="1343"/>
      <point x="145" y="1314"/>
      <point x="108" y="1314" type="curve"/>
      <point x="71" y="1314"/>
      <point x="40" y="1343"/>
      <point x="40" y="1380" type="curve"/>
      <point x="40" y="1417"/>
      <point x="71" y="1446"/>
      <point x="108" y="1446" type="curve"/>
      <point x="145" y="1446"/>
      <point x="174" y="1417"/>
    </contour>
    <contour>
      <point x="490" y="1380" type="curve"/>
      <point x="490" y="1343"/>
      <point x="459" y="1314"/>
      <point x="422" y="1314" type="curve"/>
      <point x="387" y="1314"/>
      <point x="356" y="1343"/>
      <point x="356" y="1380" type="curve"/>
      <point x="356" y="1417"/>
      <point x="387" y="1446"/>
      <point x="422" y="1446" type="curve"/>
      <point x="459" y="1446"/>
      <point x="490" y="1417"/>
    </contour>
    <contour>
      <point x="390" y="1626" type="curve"/>
      <point x="284" y="1468" type="line"/>
      <point x="212" y="1468" type="line"/>
      <point x="288" y="1680" type="line" smooth="yes"/>
      <point x="301" y="1717"/>
      <point x="341" y="1741"/>
      <point x="376" y="1720" type="curve"/>
      <point x="413" y="1701"/>
      <point x="414" y="1655"/>
    </contour>
  </outline>
</glyph>
<glyph name="Gamma" format="1">
  <advance width="764"/>
  <unicode hex="0393"/>
  <outline>
    <contour>
      <point x="194" y="0" type="line"/>
      <point x="82" y="0" type="line"/>
      <point x="82" y="1396" type="line"/>
      <point x="748" y="1396" type="line"/>
      <point x="748" y="1290" type="line"/>
      <point x="194" y="1290" type="line"/>
    </contour>
  </outline>
</glyph>
<glyph name="Zeta" format="1">
  <advance width="1092"/>
  <unicode hex="0396"/>
  <outline>
    <contour>
      <point x="84" y="1396" type="line"/>
      <point x="1018" y="1396" type="line"/>
      <point x="1018" y="1296" type="line"/>
      <point x="202" y="102" type="line"/>
      <point x="1030" y="102" type="line"/>
      <point x="1030" y="0" type="line"/>
      <point x="58" y="0" type="line"/>
      <point x="58" y="100" type="line"/>
      <point x="876" y="1294" type="line"/>
      <point x="84" y="1294" type="line"/>
    </contour>
  </outline>
</glyph>
<glyph name="Theta" format="1">
  <advance width="980"/>
  <unicode hex="0398"/>
  <outline>
    <contour>
      <point x="68" y="370" type="curve"/>
      <point x="68" y="1012" type="line"/>
      <point x="68" y="1284"/>
      <point x="228" y="1428"/>
      <point x="492" y="1428" type="curve"/>
      <point x="756" y="1428"/>
      <point x="908" y="1271"/>
      <point x="908" y="1010" type="curve"/>
      <point x="908" y="370" type="line" smooth="yes"/>
      <point x="908" y="128"/>
      <point x="737" y="-22"/>
      <point x="490" y="-22" type="curve"/>
      <point x="254" y="-22"/>
      <point x="68" y="112"/>
    </contour>
    <contour>
      <point x="798" y="716" type="line"/>
      <point x="798" y="1030" type="line"/>
      <point x="798" y="1225"/>
      <point x="675" y="1322"/>
      <point x="486" y="1322" type="curve"/>
      <point x="302" y="1322"/>
      <point x="180" y="1225"/>
      <point x="180" y="1030" type="curve"/>
      <point x="180" y="716" type="line"/>
    </contour>
    <contour>
      <point x="486" y="84" type="curve"/>
      <point x="669" y="84"/>
      <point x="798" y="176"/>
      <point x="798" y="372" type="curve"/>
      <point x="798" y="602" type="line"/>
      <point x="180" y="602" type="line"/>
      <point x="180" y="372" type="line" smooth="yes"/>
      <point x="180" y="180"/>
      <point x="311" y="84"/>
    </contour>
  </outline>
</glyph>
<glyph name="Lambda" format="1">
  <advance width="1090"/>
  <unicode hex="039B"/>
  <outline>
    <contour>
      <point x="930" y="0" type="line"/>
      <point x="542" y="1224" type="line"/>
      <point x="162" y="0" type="line"/>
      <point x="42" y="0" type="line"/>
      <point x="490" y="1396" type="line"/>
      <point x="596" y="1396" type="line"/>
      <point x="1050" y="0" type="line"/>
    </contour>
  </outline>
</glyph>
<glyph name="Xi" format="1">
  <advance width="1124"/>
  <unicode hex="039E"/>
  <outline>
    <contour>
      <point x="132" y="1154" type="curve"/>
      <point x="46" y="1186" type="line"/>
      <point x="89" y="1335"/>
      <point x="179" y="1396"/>
      <point x="336" y="1396" type="curve"/>
      <point x="984" y="1396" type="line"/>
      <point x="942" y="1296" type="line"/>
      <point x="336" y="1296" type="line" smooth="yes"/>
      <point x="232" y="1296"/>
      <point x="167" y="1250"/>
    </contour>
    <contour>
      <point x="830" y="724" type="line"/>
      <point x="830" y="612" type="line"/>
      <point x="298" y="612" type="line"/>
      <point x="298" y="724" type="line"/>
    </contour>
    <contour>
      <point x="168" y="106" type="line"/>
      <point x="772" y="106" type="line"/>
      <point x="876" y="106"/>
      <point x="943" y="153"/>
      <point x="978" y="244" type="curve"/>
      <point x="1064" y="212" type="line"/>
      <point x="1021" y="63"/>
      <point x="932" y="0"/>
      <point x="772" y="0" type="curve"/>
      <point x="126" y="0" type="line"/>
    </contour>
  </outline>
</glyph>
<glyph name="Sigma" format="1">
  <advance width="1042"/>
  <unicode hex="03A3"/>
  <outline>
    <contour>
      <point x="234" y="100" type="line"/>
      <point x="686" y="100" type="line"/>
      <point x="787" y="100"/>
      <point x="867" y="151"/>
      <point x="896" y="242" type="curve"/>
      <point x="982" y="212" type="line"/>
      <point x="939" y="63"/>
      <point x="851" y="0"/>
      <point x="694" y="0" type="curve"/>
      <point x="50" y="0" type="line"/>
      <point x="500" y="768" type="line"/>
      <point x="82" y="1396" type="line"/>
      <point x="936" y="1396" type="line"/>
      <point x="898" y="1290" type="line"/>
      <point x="282" y="1290" type="line"/>
      <point x="634" y="772" type="line"/>
    </contour>
  </outline>
</glyph>
<glyph name="Upsilon" format="1">
  <advance width="1026"/>
  <unicode hex="03A5"/>
  <outline>
    <contour>
      <point x="944" y="1396" type="line"/>
      <point x="944" y="310" type="line"/>
      <point x="944" y="115"/>
      <point x="869" y="5"/>
      <point x="736" y="-14" type="curve"/>
      <point x="710" y="60" type="line"/>
      <point x="794" y="92"/>
      <point x="832" y="172"/>
      <point x="832" y="304" type="curve"/>
      <point x="832" y="610" type="line"/>
      <point x="797" y="571"/>
      <point x="699" y="500"/>
      <point x="518" y="488" type="curve"/>
      <point x="377" y="483"/>
      <point x="264" y="521"/>
      <point x="184" y="590" type="curve"/>
      <point x="101" y="659"/>
      <point x="60" y="761"/>
      <point x="60" y="924" type="curve"/>
      <point x="60" y="1396" type="line"/>
      <point x="172" y="1396" type="line"/>
      <point x="172" y="902" type="line" smooth="yes"/>
      <point x="172" y="790"/>
      <point x="200" y="721"/>
      <point x="264" y="668" type="curve"/>
      <point x="331" y="620"/>
      <point x="410" y="598"/>
      <point x="498" y="598" type="curve"/>
      <point x="579" y="598"/>
      <point x="648" y="611"/>
      <point x="704" y="638" type="curve"/>
      <point x="781" y="678"/>
      <point x="832" y="761"/>
      <point x="832" y="844" type="curve"/>
      <point x="832" y="1396" type="line"/>
    </contour>
  </outline>
</glyph>
<glyph name="Phi" format="1">
  <advance width="1186"/>
  <unicode hex="03A6"/>
  <outline>
    <contour>
      <point x="300" y="1408" type="curve"/>
      <point x="360" y="1318" type="line"/>
      <point x="239" y="1290"/>
      <point x="178" y="1192"/>
      <point x="178" y="1032" type="curve"/>
      <point x="178" y="430" type="line" smooth="yes"/>
      <point x="178" y="253"/>
      <point x="284" y="158"/>
      <point x="446" y="158" type="curve"/>
      <point x="532" y="158" type="line"/>
      <point x="532" y="1206" type="line" smooth="yes"/>
      <point x="532" y="1340"/>
      <point x="622" y="1416"/>
      <point x="746" y="1416" type="curve"/>
      <point x="980" y="1416"/>
      <point x="1116" y="1261"/>
      <point x="1116" y="1018" type="curve"/>
      <point x="1116" y="448" type="line" smooth="yes"/>
      <point x="1116" y="208"/>
      <point x="999" y="60"/>
      <point x="744" y="60" type="curve"/>
      <point x="646" y="60" type="line"/>
      <point x="646" y="-70" type="line"/>
      <point x="532" y="-56" type="line"/>
      <point x="532" y="60" type="line"/>
      <point x="446" y="60" type="line" smooth="yes"/>
      <point x="191" y="60"/>
      <point x="66" y="208"/>
      <point x="66" y="448" type="curve"/>
      <point x="66" y="1032" type="line" smooth="yes"/>
      <point x="66" y="1232"/>
      <point x="144" y="1357"/>
    </contour>
    <contour>
      <point x="646" y="158" type="line"/>
      <point x="744" y="158" type="line"/>
      <point x="906" y="158"/>
      <point x="1010" y="253"/>
      <point x="1010" y="430" type="curve"/>
      <point x="1010" y="1038" type="line" smooth="yes"/>
      <point x="1010" y="1200"/>
      <point x="906" y="1312"/>
      <point x="762" y="1312" type="curve"/>
      <point x="686" y="1312"/>
      <point x="646" y="1271"/>
      <point x="646" y="1188" type="curve"/>
    </contour>
  </outline>
</glyph>
<glyph name="Chi" format="1">
  <advance width="1108"/>
  <unicode hex="03A7"/>
  <outline>
    <contour>
      <point x="212" y="1396" type="line"/>
      <point x="556" y="810" type="line"/>
      <point x="904" y="1396" type="line"/>
      <point x="1028" y="1396" type="line"/>
      <point x="624" y="702" type="line"/>
      <point x="1060" y="0" type="line"/>
      <point x="922" y="0" type="line"/>
      <point x="556" y="586" type="line"/>
      <point x="186" y="0" type="line"/>
      <point x="50" y="0" type="line"/>
      <point x="490" y="702" type="line"/>
      <point x="86" y="1396" type="line"/>
    </contour>
  </outline>
</glyph>
<glyph name="Psi" format="1">
  <advance width="1178"/>
  <unicode hex="03A8"/>
  <outline>
    <contour>
      <point x="174" y="1396" type="line"/>
      <point x="174" y="790" type="line"/>
      <point x="174" y="614"/>
      <point x="278" y="526"/>
      <point x="438" y="526" type="curve"/>
      <point x="526" y="526" type="line"/>
      <point x="526" y="1396" type="line"/>
      <point x="640" y="1396" type="line"/>
      <point x="640" y="526" type="line"/>
      <point x="740" y="526" type="line" smooth="yes"/>
      <point x="897" y="526"/>
      <point x="1000" y="614"/>
      <point x="1000" y="790" type="curve"/>
      <point x="1000" y="1124" type="line"/>
      <point x="1004" y="1317"/>
      <point x="908" y="1380"/>
      <point x="912" y="1382" type="curve"/>
      <point x="1000" y="1414" type="line"/>
      <point x="1072" y="1366"/>
      <point x="1112" y="1274"/>
      <point x="1112" y="1096" type="curve"/>
      <point x="1112" y="810" type="line" smooth="yes"/>
      <point x="1112" y="567"/>
      <point x="993" y="424"/>
      <point x="740" y="424" type="curve"/>
      <point x="640" y="424" type="line"/>
      <point x="640" y="0" type="line"/>
      <point x="526" y="0" type="line"/>
      <point x="526" y="424" type="line"/>
      <point x="438" y="424" type="line" smooth="yes"/>
      <point x="187" y="424"/>
      <point x="62" y="567"/>
      <point x="62" y="810" type="curve"/>
      <point x="62" y="1396" type="line"/>
    </contour>
  </outline>
</glyph>
<glyph name="Omegagreek" format="1">
  <advance width="1160"/>
  <unicode hex="03A9"/>
  <outline>
    <contour>
      <point x="1066" y="1002" type="curve"/>
      <point x="1066" y="388" type="line"/>
      <point x="1066" y="257"/>
      <point x="1021" y="159"/>
      <point x="920" y="100" type="curve"/>
      <point x="1060" y="100" type="line"/>
      <point x="1092" y="-2" type="line"/>
      <point x="636" y="-2" type="line"/>
      <point x="636" y="100" type="line"/>
      <point x="811" y="100"/>
      <point x="956" y="202"/>
      <point x="956" y="388" type="curve"/>
      <point x="956" y="1020" type="line" smooth="yes"/>
      <point x="956" y="1196"/>
      <point x="849" y="1304"/>
      <point x="692" y="1304" type="curve"/>
      <point x="468" y="1304" type="line" smooth="yes"/>
      <point x="311" y="1304"/>
      <point x="206" y="1196"/>
      <point x="206" y="1020" type="curve"/>
      <point x="206" y="388" type="line" smooth="yes"/>
      <point x="206" y="199"/>
      <point x="337" y="100"/>
      <point x="522" y="100" type="curve"/>
      <point x="522" y="-2" type="line"/>
      <point x="66" y="-2" type="line"/>
      <point x="102" y="100" type="line"/>
      <point x="230" y="100" type="line"/>
      <point x="141" y="157"/>
      <point x="94" y="255"/>
      <point x="94" y="388" type="curve"/>
      <point x="94" y="1002" type="line" smooth="yes"/>
      <point x="94" y="1247"/>
      <point x="217" y="1410"/>
      <point x="468" y="1410" type="curve"/>
      <point x="692" y="1410" type="line" smooth="yes"/>
      <point x="940" y="1410"/>
      <point x="1066" y="1247"/>
    </contour>
  </outline>
</glyph>
<glyph name="alpha" format="1">
  <advance width="876"/>
  <unicode hex="03B1"/>
  <outline>
    <contour>
      <point x="716" y="1012" type="curve"/>
      <point x="804" y="970" type="line"/>
      <point x="804" y="970"/>
      <point x="790" y="894"/>
      <point x="790" y="798" type="curve"/>
      <point x="790" y="8" type="line"/>
      <point x="794" y="8"/>
      <point x="539" y="-5"/>
      <point x="450" y="-8" type="curve"/>
      <point x="259" y="-13"/>
      <point x="62" y="37"/>
      <point x="62" y="336" type="curve"/>
      <point x="62" y="706" type="line" smooth="yes"/>
      <point x="62" y="943"/>
      <point x="207" y="1012"/>
      <point x="356" y="1012" type="curve"/>
      <point x="463" y="1012"/>
      <point x="583" y="976"/>
      <point x="690" y="926" type="curve"/>
      <point x="690" y="926"/>
      <point x="700" y="977"/>
    </contour>
    <contour>
      <point x="172" y="700" type="curve"/>
      <point x="172" y="324" type="line"/>
      <point x="172" y="175"/>
      <point x="253" y="92"/>
      <point x="410" y="92" type="curve"/>
      <point x="552" y="92"/>
      <point x="677" y="104"/>
      <point x="678" y="104" type="curve"/>
      <point x="678" y="828" type="line"/>
      <point x="546" y="886"/>
      <point x="433" y="908"/>
      <point x="352" y="908" type="curve"/>
      <point x="290" y="908"/>
      <point x="172" y="895"/>
    </contour>
  </outline>
</glyph>
<glyph name="beta" format="1">
  <advance width="882"/>
  <unicode hex="03B2"/>
  <outline>
    <contour>
      <point x="78" y="-376" type="line"/>
      <point x="78" y="1040" type="line"/>
      <point x="78" y="1233"/>
      <point x="209" y="1402"/>
      <point x="414" y="1402" type="curve"/>
      <point x="601" y="1402"/>
      <point x="705" y="1269"/>
      <point x="700" y="1088" type="curve"/>
      <point x="697" y="1008"/>
      <point x="676" y="896"/>
      <point x="546" y="808" type="curve"/>
      <point x="578" y="808" type="line"/>
      <point x="722" y="792"/>
      <point x="822" y="714"/>
      <point x="822" y="506" type="curve"/>
      <point x="822" y="336" type="line" smooth="yes"/>
      <point x="822" y="42"/>
      <point x="650" y="-28"/>
      <point x="392" y="-20" type="curve"/>
      <point x="344" y="-20"/>
      <point x="256" y="-8"/>
      <point x="190" y="5" type="curve"/>
      <point x="190" y="-424" type="line"/>
    </contour>
    <contour>
      <point x="190" y="1054" type="curve"/>
      <point x="190" y="768" type="line"/>
      <point x="342" y="804" type="line" smooth="yes"/>
      <point x="502" y="842"/>
      <point x="577" y="955"/>
      <point x="586" y="1086" type="curve"/>
      <point x="593" y="1198"/>
      <point x="523" y="1290"/>
      <point x="408" y="1290" type="curve"/>
      <point x="275" y="1290"/>
      <point x="190" y="1174"/>
    </contour>
    <contour>
      <point x="190" y="656" type="line"/>
      <point x="190" y="102" type="line"/>
      <point x="189" y="103"/>
      <point x="296" y="79"/>
      <point x="404" y="76" type="curve"/>
      <point x="672" y="68"/>
      <point x="716" y="174"/>
      <point x="716" y="350" type="curve"/>
      <point x="716" y="502" type="line" smooth="yes"/>
      <point x="716" y="683"/>
      <point x="600" y="712"/>
      <point x="524" y="712" type="curve"/>
      <point x="457" y="712"/>
      <point x="358" y="698"/>
      <point x="293" y="682" type="curve"/>
    </contour>
  </outline>
</glyph>
<glyph name="gamma" format="1">
  <advance width="1006"/>
  <unicode hex="03B3"/>
  <outline>
    <contour>
      <point x="890" y="1016" type="curve"/>
      <point x="964" y="954" type="line"/>
      <point x="850" y="917"/>
      <point x="802" y="796"/>
      <point x="788" y="748" type="curve"/>
      <point x="528" y="-116" type="line"/>
      <point x="496" y="-201"/>
      <point x="470" y="-391"/>
      <point x="230" y="-396" type="curve"/>
      <point x="210" y="-310" type="line"/>
      <point x="319" y="-306"/>
      <point x="374" y="-243"/>
      <point x="402" y="-158" type="curve"/>
      <point x="446" y="-12" type="line"/>
      <point x="333" y="33"/>
      <point x="290" y="138"/>
      <point x="256" y="256" type="curve"/>
      <point x="40" y="996" type="line"/>
      <point x="154" y="996" type="line"/>
      <point x="366" y="278" type="line" smooth="yes"/>
      <point x="404" y="150"/>
      <point x="433" y="110"/>
      <point x="478" y="86" type="curve"/>
      <point x="688" y="772" type="line" smooth="yes"/>
      <point x="732" y="916"/>
      <point x="775" y="992"/>
    </contour>
  </outline>
</glyph>
<glyph name="delta" format="1">
  <advance width="862"/>
  <unicode hex="03B4"/>
  <outline>
    <contour>
      <point x="668" y="1302" type="line"/>
      <point x="482" y="1302" type="line"/>
      <point x="411" y="1302"/>
      <point x="360" y="1260"/>
      <point x="360" y="1196" type="curve"/>
      <point x="360" y="1117"/>
      <point x="407" y="1093"/>
      <point x="460" y="1048" type="curve"/>
      <point x="510" y="1014"/>
      <point x="562" y="980"/>
      <point x="610" y="940" type="curve"/>
      <point x="658" y="900"/>
      <point x="702" y="856"/>
      <point x="736" y="804" type="curve"/>
      <point x="781" y="735"/>
      <point x="800" y="643"/>
      <point x="800" y="558" type="curve"/>
      <point x="800" y="366" type="line" smooth="yes"/>
      <point x="800" y="107"/>
      <point x="675" y="-22"/>
      <point x="430" y="-22" type="curve"/>
      <point x="177" y="-22"/>
      <point x="56" y="123"/>
      <point x="56" y="366" type="curve"/>
      <point x="56" y="616" type="line" smooth="yes"/>
      <point x="56" y="747"/>
      <point x="97" y="842"/>
      <point x="164" y="908" type="curve"/>
      <point x="226" y="969"/>
      <point x="325" y="996"/>
      <point x="348" y="1004" type="curve"/>
      <point x="330" y="1020" type="line" smooth="yes"/>
      <point x="269" y="1081"/>
      <point x="249" y="1143"/>
      <point x="252" y="1194" type="curve"/>
      <point x="260" y="1307"/>
      <point x="354" y="1396"/>
      <point x="500" y="1396" type="curve"/>
      <point x="712" y="1396" type="line"/>
    </contour>
    <contour>
      <point x="688" y="346" type="curve"/>
      <point x="688" y="588" type="line"/>
      <point x="688" y="719"/>
      <point x="610" y="827"/>
      <point x="508" y="894" type="curve"/>
      <point x="456" y="926" type="line"/>
      <point x="459" y="923"/>
      <point x="326" y="927"/>
      <point x="240" y="836" type="curve"/>
      <point x="194" y="786"/>
      <point x="168" y="712"/>
      <point x="168" y="616" type="curve"/>
      <point x="168" y="346" type="line" smooth="yes"/>
      <point x="168" y="171"/>
      <point x="273" y="76"/>
      <point x="432" y="76" type="curve"/>
      <point x="602" y="76"/>
      <point x="688" y="168"/>
    </contour>
  </outline>
</glyph>
<glyph name="epsilon" format="1">
  <advance width="790"/>
  <unicode hex="03B5"/>
  <outline>
    <contour>
      <point x="602" y="990" type="curve"/>
      <point x="602" y="886" type="line"/>
      <point x="492" y="922"/>
      <point x="422" y="922"/>
      <point x="358" y="914" type="curve"/>
      <point x="256" y="900"/>
      <point x="210" y="831"/>
      <point x="210" y="762" type="curve"/>
      <point x="210" y="677"/>
      <point x="276" y="600"/>
      <point x="364" y="600" type="curve"/>
      <point x="602" y="600" type="line"/>
      <point x="562" y="492" type="line"/>
      <point x="366" y="492" type="line" smooth="yes"/>
      <point x="289" y="492"/>
      <point x="152" y="442"/>
      <point x="152" y="290" type="curve"/>
      <point x="152" y="173"/>
      <point x="258" y="84"/>
      <point x="424" y="84" type="curve"/>
      <point x="516" y="84"/>
      <point x="613" y="112"/>
      <point x="710" y="148" type="curve"/>
      <point x="742" y="46" type="line"/>
      <point x="649" y="3"/>
      <point x="521" y="-22"/>
      <point x="404" y="-22" type="curve"/>
      <point x="153" y="-22"/>
      <point x="40" y="132"/>
      <point x="40" y="296" type="curve"/>
      <point x="40" y="405"/>
      <point x="104" y="513"/>
      <point x="208" y="556" type="curve"/>
      <point x="142" y="593"/>
      <point x="94" y="672"/>
      <point x="94" y="756" type="curve"/>
      <point x="94" y="882"/>
      <point x="188" y="1018"/>
      <point x="402" y="1018" type="curve"/>
      <point x="461" y="1018"/>
      <point x="527" y="1011"/>
    </contour>
  </outline>
</glyph>
<glyph name="zeta" format="1">
  <advance width="824"/>
  <unicode hex="03B6"/>
  <outline>
    <contour>
      <point x="730" y="1396" type="line"/>
      <point x="774" y="1304" type="line"/>
      <point x="777" y="1303"/>
      <point x="620" y="1201"/>
      <point x="462" y="994" type="curve"/>
      <point x="394" y="905"/>
      <point x="331" y="817"/>
      <point x="282" y="728" type="curve"/>
      <point x="211" y="598"/>
      <point x="169" y="470"/>
      <point x="164" y="366" type="curve"/>
      <point x="161" y="283"/>
      <point x="189" y="217"/>
      <point x="244" y="166" type="curve"/>
      <point x="326" y="90"/>
      <point x="466" y="73"/>
      <point x="762" y="103" type="curve"/>
      <point x="762" y="-418" type="line"/>
      <point x="646" y="-372" type="line"/>
      <point x="646" y="-4" type="line"/>
      <point x="408" y="-30"/>
      <point x="250" y="2"/>
      <point x="148" y="100" type="curve"/>
      <point x="84" y="162"/>
      <point x="49" y="256"/>
      <point x="52" y="368" type="curve"/>
      <point x="55" y="485"/>
      <point x="95" y="625"/>
      <point x="186" y="788" type="curve"/>
      <point x="231" y="871"/>
      <point x="291" y="954"/>
      <point x="366" y="1042" type="curve"/>
      <point x="434" y="1126"/>
      <point x="514" y="1218"/>
      <point x="606" y="1302" type="curve"/>
      <point x="188" y="1302" type="line"/>
      <point x="188" y="1396" type="line"/>
    </contour>
  </outline>
</glyph>
<glyph name="eta" format="1">
  <advance width="886"/>
  <unicode hex="03B7"/>
  <outline>
    <contour>
      <point x="702" y="-372" type="line"/>
      <point x="702" y="684" type="line"/>
      <point x="702" y="866"/>
      <point x="570" y="916"/>
      <point x="442" y="916" type="curve"/>
      <point x="351" y="916"/>
      <point x="271" y="893"/>
      <point x="188" y="848" type="curve"/>
      <point x="188" y="0" type="line"/>
      <point x="76" y="0" type="line"/>
      <point x="76" y="998" type="line"/>
      <point x="188" y="998" type="line"/>
      <point x="188" y="930" type="line"/>
      <point x="265" y="983"/>
      <point x="365" y="1016"/>
      <point x="464" y="1016" type="curve"/>
      <point x="685" y="1016"/>
      <point x="812" y="900"/>
      <point x="812" y="690" type="curve"/>
      <point x="812" y="-418" type="line"/>
    </contour>
  </outline>
</glyph>
<glyph name="theta" format="1">
  <advance width="882"/>
  <unicode hex="03B8"/>
  <outline>
    <contour>
      <point x="438" y="1414" type="curve"/>
      <point x="691" y="1414"/>
      <point x="808" y="1259"/>
      <point x="808" y="1006" type="curve"/>
      <point x="808" y="376" type="line" smooth="yes"/>
      <point x="808" y="117"/>
      <point x="683" y="-12"/>
      <point x="438" y="-12" type="curve"/>
      <point x="187" y="-12"/>
      <point x="64" y="133"/>
      <point x="64" y="376" type="curve"/>
      <point x="64" y="620" type="line" smooth="yes"/>
      <point x="64" y="740"/>
      <point x="95" y="835"/>
      <point x="154" y="902" type="curve"/>
      <point x="107" y="980"/>
      <point x="100" y="1066"/>
      <point x="100" y="1114" type="curve"/>
      <point x="100" y="1271"/>
      <point x="214" y="1414"/>
    </contour>
    <contour>
      <point x="696" y="786" type="curve"/>
      <point x="696" y="1008" type="line"/>
      <point x="696" y="1224"/>
      <point x="592" y="1308"/>
      <point x="440" y="1308" type="curve"/>
      <point x="292" y="1308"/>
      <point x="216" y="1218"/>
      <point x="216" y="1110" type="curve"/>
      <point x="216" y="1076"/>
      <point x="208" y="942"/>
      <point x="354" y="856" type="curve"/>
      <point x="426" y="816"/>
      <point x="534" y="786"/>
    </contour>
    <contour>
      <point x="438" y="84" type="curve"/>
      <point x="609" y="84"/>
      <point x="696" y="174"/>
      <point x="696" y="350" type="curve"/>
      <point x="696" y="696" type="line"/>
      <point x="456" y="685"/>
      <point x="311" y="741"/>
      <point x="226" y="816" type="curve"/>
      <point x="191" y="768"/>
      <point x="176" y="703"/>
      <point x="176" y="620" type="curve"/>
      <point x="176" y="350" type="line" smooth="yes"/>
      <point x="176" y="174"/>
      <point x="282" y="84"/>
    </contour>
  </outline>
</glyph>
<glyph name="kappa" format="1">
  <advance width="866"/>
  <unicode hex="03BA"/>
  <outline>
    <contour>
      <point x="374" y="590" type="line"/>
      <point x="628" y="234" type="line"/>
      <point x="697" y="143"/>
      <point x="757" y="94"/>
      <point x="810" y="94" type="curve"/>
      <point x="814" y="-2" type="line"/>
      <point x="765" y="-2"/>
      <point x="721" y="9"/>
      <point x="684" y="32" type="curve"/>
      <point x="647" y="61"/>
      <point x="613" y="84"/>
      <point x="592" y="108" type="curve"/>
      <point x="573" y="132"/>
      <point x="543" y="169"/>
      <point x="506" y="220" type="curve"/>
      <point x="298" y="506" type="line"/>
      <point x="188" y="394" type="line"/>
      <point x="188" y="0" type="line"/>
      <point x="76" y="0" type="line"/>
      <point x="76" y="1020" type="line"/>
      <point x="188" y="994" type="line"/>
      <point x="188" y="546" type="line"/>
      <point x="602" y="998" type="line"/>
      <point x="750" y="998" type="line"/>
    </contour>
  </outline>
</glyph>
<glyph name="lambda" format="1">
  <advance width="1004"/>
  <unicode hex="03BB"/>
  <outline>
    <contour>
      <point x="534" y="1110" type="curve"/>
      <point x="794" y="246" type="line"/>
      <point x="806" y="203"/>
      <point x="853" y="76"/>
      <point x="968" y="40" type="curve"/>
      <point x="944" y="21"/>
      <point x="918" y="-1"/>
      <point x="894" y="-22" type="curve"/>
      <point x="775" y="7"/>
      <point x="735" y="80"/>
      <point x="690" y="222" type="curve"/>
      <point x="621" y="452"/>
      <point x="554" y="679"/>
      <point x="484" y="908" type="curve"/>
      <point x="439" y="884"/>
      <point x="405" y="843"/>
      <point x="368" y="718" type="curve"/>
      <point x="296" y="479"/>
      <point x="230" y="237"/>
      <point x="158" y="-2" type="curve"/>
      <point x="46" y="-2" type="line"/>
      <point x="117" y="243"/>
      <point x="190" y="492"/>
      <point x="262" y="740" type="curve"/>
      <point x="298" y="856"/>
      <point x="337" y="964"/>
      <point x="450" y="1008" type="curve"/>
      <point x="406" y="1152" type="line"/>
      <point x="382" y="1239"/>
      <point x="320" y="1304"/>
      <point x="214" y="1304" type="curve"/>
      <point x="234" y="1390" type="line"/>
      <point x="474" y="1385"/>
      <point x="502" y="1195"/>
    </contour>
  </outline>
</glyph>
<glyph name="nu" format="1">
  <advance width="854"/>
  <unicode hex="03BD"/>
  <outline>
    <contour>
      <point x="342" y="0" type="line"/>
      <point x="38" y="998" type="line"/>
      <point x="154" y="998" type="line"/>
      <point x="422" y="116" type="line"/>
      <point x="688" y="998" type="line"/>
      <point x="806" y="998" type="line"/>
      <point x="496" y="0" type="line"/>
    </contour>
  </outline>
</glyph>
<glyph name="xi" format="1">
  <advance width="860"/>
  <unicode hex="03BE"/>
  <outline>
    <contour>
      <point x="762" y="1400" type="line"/>
      <point x="718" y="1298" type="line"/>
      <point x="476" y="1298" type="line" smooth="yes"/>
      <point x="361" y="1298"/>
      <point x="286" y="1208"/>
      <point x="290" y="1080" type="curve"/>
      <point x="294" y="946"/>
      <point x="381" y="842"/>
      <point x="546" y="806" type="curve"/>
      <point x="612" y="794" type="line"/>
      <point x="588" y="706" type="line"/>
      <point x="360" y="706" type="line" smooth="yes"/>
      <point x="288" y="706"/>
      <point x="168" y="682"/>
      <point x="168" y="502" type="curve"/>
      <point x="168" y="350" type="line" smooth="yes"/>
      <point x="168" y="160"/>
      <point x="213" y="64"/>
      <point x="480" y="76" type="curve"/>
      <point x="551" y="79"/>
      <point x="710" y="97"/>
      <point x="760" y="102" type="curve"/>
      <point x="760" y="-422" type="line"/>
      <point x="648" y="-374" type="line"/>
      <point x="648" y="-8" type="line"/>
      <point x="585" y="-12"/>
      <point x="537" y="-18"/>
      <point x="486" y="-20" type="curve"/>
      <point x="230" y="-30"/>
      <point x="56" y="42"/>
      <point x="56" y="336" type="curve"/>
      <point x="56" y="508" type="line" smooth="yes"/>
      <point x="56" y="711"/>
      <point x="174" y="808"/>
      <point x="318" y="808" type="curve"/>
      <point x="335" y="808" type="line"/>
      <point x="227" y="874"/>
      <point x="179" y="1001"/>
      <point x="176" y="1086" type="curve"/>
      <point x="171" y="1264"/>
      <point x="270" y="1400"/>
      <point x="470" y="1400" type="curve"/>
    </contour>
  </outline>
</glyph>
<glyph name="pi" format="1">
  <advance width="944"/>
  <unicode hex="03C0"/>
  <outline>
    <contour>
      <point x="826" y="996" type="line"/>
      <point x="826" y="138" type="line"/>
      <point x="831" y="101"/>
      <point x="854" y="73"/>
      <point x="886" y="52" type="curve"/>
      <point x="832" y="-12" type="line"/>
      <point x="832" y="-13"/>
      <point x="716" y="22"/>
      <point x="716" y="156" type="curve"/>
      <point x="718" y="904" type="line"/>
      <point x="188" y="904" type="line"/>
      <point x="188" y="0" type="line"/>
      <point x="76" y="0" type="line"/>
      <point x="76" y="996" type="line"/>
    </contour>
  </outline>
</glyph>
<glyph name="rho" format="1">
  <advance width="872"/>
  <unicode hex="03C1"/>
  <outline>
    <contour>
      <point x="808" y="620" type="curve"/>
      <point x="808" y="340" type="line"/>
      <point x="808" y="95"/>
      <point x="691" y="-36"/>
      <point x="470" y="-36" type="curve"/>
      <point x="345" y="-36"/>
      <point x="231" y="30"/>
      <point x="184" y="112" type="curve"/>
      <point x="184" y="-420" type="line"/>
      <point x="70" y="-374" type="line"/>
      <point x="70" y="620" type="line" smooth="yes"/>
      <point x="70" y="873"/>
      <point x="207" y="1012"/>
      <point x="442" y="1012" type="curve"/>
      <point x="679" y="1012"/>
      <point x="808" y="863"/>
    </contour>
    <contour>
      <point x="696" y="324" type="curve"/>
      <point x="696" y="620" type="line"/>
      <point x="696" y="815"/>
      <point x="616" y="908"/>
      <point x="448" y="908" type="curve"/>
      <point x="272" y="908"/>
      <point x="184" y="815"/>
      <point x="184" y="620" type="curve"/>
      <point x="184" y="334" type="line" smooth="yes"/>
      <point x="184" y="164"/>
      <point x="308" y="70"/>
      <point x="460" y="70" type="curve"/>
      <point x="612" y="70"/>
      <point x="696" y="156"/>
    </contour>
  </outline>
</glyph>
<glyph name="sigma1" format="1">
  <advance width="680"/>
  <unicode hex="03C2"/>
  <outline>
    <contour>
      <point x="160" y="705" type="curve"/>
      <point x="160" y="568" type="line"/>
      <point x="160" y="488"/>
      <point x="176" y="436"/>
      <point x="258" y="364" type="curve"/>
      <point x="408" y="232" type="line" smooth="yes"/>
      <point x="480" y="169"/>
      <point x="570" y="102"/>
      <point x="570" y="-30" type="curve"/>
      <point x="570" y="-138"/>
      <point x="497" y="-221"/>
      <point x="390" y="-284" type="curve"/>
      <point x="340" y="-216" type="line"/>
      <point x="410" y="-173"/>
      <point x="470" y="-109"/>
      <point x="470" y="-44" type="curve"/>
      <point x="470" y="28"/>
      <point x="444" y="62"/>
      <point x="368" y="128" type="curve"/>
      <point x="186" y="286" type="line" smooth="yes"/>
      <point x="80" y="378"/>
      <point x="46" y="449"/>
      <point x="46" y="566" type="curve"/>
      <point x="46" y="689" type="line" smooth="yes"/>
      <point x="46" y="904"/>
      <point x="195" y="1006"/>
      <point x="362" y="1006" type="curve"/>
      <point x="521" y="1009"/>
      <point x="627" y="935"/>
      <point x="626" y="938" type="curve"/>
      <point x="586" y="852" type="line"/>
      <point x="547" y="876"/>
      <point x="466" y="908"/>
      <point x="388" y="908" type="curve"/>
      <point x="264" y="916"/>
      <point x="160" y="850"/>
    </contour>
  </outline>
</glyph>
<glyph name="sigma" format="1">
  <advance width="936"/>
  <unicode hex="03C3"/>
  <outline>
    <contour>
      <point x="820" y="1082" type="curve"/>
      <point x="886" y="1030" type="line"/>
      <point x="837" y="957"/>
      <point x="780" y="918"/>
      <point x="720" y="902" type="curve"/>
      <point x="757" y="859"/>
      <point x="794" y="785"/>
      <point x="794" y="638" type="curve"/>
      <point x="794" y="368" type="line" smooth="yes"/>
      <point x="794" y="136"/>
      <point x="673" y="-20"/>
      <point x="432" y="-20" type="curve"/>
      <point x="183" y="-20"/>
      <point x="56" y="153"/>
      <point x="56" y="368" type="curve"/>
      <point x="56" y="638" type="line"/>
      <point x="51" y="941"/>
      <point x="256" y="1020"/>
      <point x="428" y="1020" type="curve"/>
      <point x="524" y="1020"/>
      <point x="614" y="996"/>
      <point x="670" y="1004" type="curve"/>
      <point x="713" y="1009"/>
      <point x="777" y="1039"/>
    </contour>
    <contour>
      <point x="680" y="348" type="curve"/>
      <point x="680" y="666" type="line"/>
      <point x="680" y="790"/>
      <point x="644" y="862"/>
      <point x="612" y="894" type="curve"/>
      <point x="556" y="899"/>
      <point x="489" y="914"/>
      <point x="428" y="914" type="curve"/>
      <point x="312" y="914"/>
      <point x="174" y="856"/>
      <point x="174" y="652" type="curve"/>
      <point x="174" y="348" type="line" smooth="yes"/>
      <point x="174" y="189"/>
      <point x="275" y="80"/>
      <point x="434" y="80" type="curve"/>
      <point x="601" y="80"/>
      <point x="680" y="185"/>
    </contour>
  </outline>
</glyph>
<glyph name="tau" format="1">
  <advance width="700"/>
  <unicode hex="03C4"/>
  <outline>
    <contour>
      <point x="392" y="892" type="line"/>
      <point x="392" y="264" type="line"/>
      <point x="392" y="158"/>
      <point x="437" y="92"/>
      <point x="524" y="60" type="curve"/>
      <point x="492" y="-26" type="line"/>
      <point x="343" y="17"/>
      <point x="280" y="107"/>
      <point x="280" y="264" type="curve"/>
      <point x="280" y="892" type="line"/>
      <point x="40" y="892" type="line"/>
      <point x="40" y="996" type="line"/>
      <point x="646" y="996" type="line"/>
      <point x="646" y="892" type="line"/>
    </contour>
  </outline>
</glyph>
<glyph name="upsilon" format="1">
  <advance width="880"/>
  <unicode hex="03C5"/>
  <outline>
    <contour>
      <point x="808" y="998" type="line"/>
      <point x="808" y="368" type="line"/>
      <point x="808" y="134"/>
      <point x="686" y="-20"/>
      <point x="444" y="-20" type="curve"/>
      <point x="195" y="-20"/>
      <point x="68" y="153"/>
      <point x="68" y="368" type="curve"/>
      <point x="68" y="998" type="line"/>
      <point x="182" y="998" type="line"/>
      <point x="182" y="348" type="line" smooth="yes"/>
      <point x="182" y="189"/>
      <point x="288" y="80"/>
      <point x="448" y="80" type="curve"/>
      <point x="616" y="80"/>
      <point x="700" y="185"/>
      <point x="700" y="348" type="curve"/>
      <point x="700" y="998" type="line"/>
    </contour>
  </outline>
</glyph>
<glyph name="phi" format="1">
  <advance width="1170"/>
  <unicode hex="03C6"/>
  <outline>
    <contour>
      <point x="58" y="376" type="curve"/>
      <point x="58" y="626" type="line"/>
      <point x="58" y="829"/>
      <point x="137" y="953"/>
      <point x="292" y="1004" type="curve"/>
      <point x="350" y="914" type="line"/>
      <point x="233" y="885"/>
      <point x="170" y="789"/>
      <point x="170" y="626" type="curve"/>
      <point x="170" y="356" type="line" smooth="yes"/>
      <point x="170" y="181"/>
      <point x="276" y="86"/>
      <point x="436" y="86" type="curve"/>
      <point x="522" y="86" type="line"/>
      <point x="522" y="798" type="line"/>
      <point x="533" y="931"/>
      <point x="613" y="1012"/>
      <point x="738" y="1012" type="curve"/>
      <point x="968" y="1012"/>
      <point x="1108" y="853"/>
      <point x="1108" y="612" type="curve"/>
      <point x="1108" y="376" type="line" smooth="yes"/>
      <point x="1108" y="136"/>
      <point x="989" y="-14"/>
      <point x="736" y="-14" type="curve"/>
      <point x="636" y="-14" type="line"/>
      <point x="636" y="-422" type="line"/>
      <point x="522" y="-374" type="line"/>
      <point x="522" y="-14" type="line"/>
      <point x="436" y="-14" type="line" smooth="yes"/>
      <point x="183" y="-14"/>
      <point x="58" y="136"/>
    </contour>
    <contour>
      <point x="636" y="86" type="line"/>
      <point x="736" y="86" type="line"/>
      <point x="896" y="86"/>
      <point x="1002" y="180"/>
      <point x="1002" y="356" type="curve"/>
      <point x="1002" y="632" type="line" smooth="yes"/>
      <point x="1002" y="808"/>
      <point x="876" y="906"/>
      <point x="754" y="906" type="curve"/>
      <point x="677" y="906"/>
      <point x="636" y="862"/>
      <point x="636" y="782" type="curve"/>
    </contour>
  </outline>
</glyph>
<glyph name="chi" format="1">
  <advance width="974"/>
  <unicode hex="03C7"/>
  <outline>
    <contour>
      <point x="510" y="304" type="line"/>
      <point x="752" y="-192" type="line"/>
      <point x="797" y="-291"/>
      <point x="861" y="-327"/>
      <point x="968" y="-346" type="curve"/>
      <point x="912" y="-422" type="line"/>
      <point x="805" y="-422"/>
      <point x="717" y="-359"/>
      <point x="650" y="-234" type="curve"/>
      <point x="448" y="182" type="line"/>
      <point x="146" y="-408" type="line"/>
      <point x="42" y="-360" type="line"/>
      <point x="386" y="308" type="line"/>
      <point x="50" y="996" type="line"/>
      <point x="174" y="996" type="line"/>
      <point x="450" y="432" type="line"/>
      <point x="738" y="996" type="line"/>
      <point x="864" y="996" type="line"/>
    </contour>
  </outline>
</glyph>
<glyph name="psi" format="1">
  <advance width="1184"/>
  <unicode hex="03C8"/>
  <outline>
    <contour>
      <point x="934" y="974" type="curve"/>
      <point x="1052" y="1008" type="line"/>
      <point x="1108" y="941"/>
      <point x="1116" y="873"/>
      <point x="1116" y="772" type="curve"/>
      <point x="1116" y="376" type="line" smooth="yes"/>
      <point x="1116" y="136"/>
      <point x="993" y="-14"/>
      <point x="740" y="-14" type="curve"/>
      <point x="652" y="-14" type="line"/>
      <point x="652" y="-418" type="line"/>
      <point x="538" y="-374" type="line"/>
      <point x="538" y="-14" type="line"/>
      <point x="438" y="-14" type="line" smooth="yes"/>
      <point x="187" y="-14"/>
      <point x="66" y="136"/>
      <point x="66" y="376" type="curve"/>
      <point x="66" y="996" type="line"/>
      <point x="172" y="996" type="line"/>
      <point x="172" y="356" type="line" smooth="yes"/>
      <point x="172" y="180"/>
      <point x="281" y="86"/>
      <point x="438" y="86" type="curve"/>
      <point x="538" y="86" type="line"/>
      <point x="538" y="996" type="line"/>
      <point x="652" y="996" type="line"/>
      <point x="652" y="86" type="line"/>
      <point x="740" y="86" type="line" smooth="yes"/>
      <point x="899" y="86"/>
      <point x="1004" y="181"/>
      <point x="1004" y="356" type="curve"/>
      <point x="1004" y="772" type="line" smooth="yes"/>
      <point x="1004" y="857"/>
      <point x="995" y="923"/>
    </contour>
  </outline>
</glyph>
<glyph name="omega" format="1">
  <advance width="1188"/>
  <unicode hex="03C9"/>
  <outline>
    <contour>
      <point x="846" y="906" type="curve"/>
      <point x="910" y="994" type="line"/>
      <point x="1051" y="942"/>
      <point x="1122" y="821"/>
      <point x="1122" y="630" type="curve"/>
      <point x="1122" y="372" type="line" smooth="yes"/>
      <point x="1122" y="108"/>
      <point x="1017" y="-26"/>
      <point x="804" y="-26" type="curve"/>
      <point x="709" y="-26"/>
      <point x="637" y="9"/>
      <point x="594" y="80" type="curve"/>
      <point x="547" y="9"/>
      <point x="474" y="-26"/>
      <point x="384" y="-26" type="curve"/>
      <point x="171" y="-26"/>
      <point x="60" y="108"/>
      <point x="60" y="372" type="curve"/>
      <point x="60" y="630" type="line" smooth="yes"/>
      <point x="60" y="819"/>
      <point x="134" y="943"/>
      <point x="278" y="994" type="curve"/>
      <point x="340" y="906" type="line"/>
      <point x="231" y="874"/>
      <point x="172" y="789"/>
      <point x="172" y="648" type="curve"/>
      <point x="172" y="352" type="line" smooth="yes"/>
      <point x="172" y="168"/>
      <point x="264" y="80"/>
      <point x="376" y="80" type="curve"/>
      <point x="491" y="80"/>
      <point x="530" y="155"/>
      <point x="538" y="312" type="curve"/>
      <point x="538" y="592" type="line"/>
      <point x="652" y="592" type="line"/>
      <point x="652" y="312" type="line" smooth="yes"/>
      <point x="652" y="155"/>
      <point x="696" y="80"/>
      <point x="808" y="80" type="curve"/>
      <point x="923" y="80"/>
      <point x="1010" y="168"/>
      <point x="1010" y="352" type="curve"/>
      <point x="1010" y="648" type="line" smooth="yes"/>
      <point x="1010" y="789"/>
      <point x="955" y="874"/>
    </contour>
  </outline>
</glyph>
<glyph name="quoteleft" format="1">
  <advance width="254"/>
  <unicode hex="2018"/>
  <outline>
    <contour>
      <point x="158" y="1424" type="curve"/>
      <point x="194" y="1400" type="line"/>
      <point x="151" y="1347"/>
      <point x="135" y="1293"/>
      <point x="130" y="1250" type="curve"/>
      <point x="165" y="1242"/>
      <point x="188" y="1216"/>
      <point x="188" y="1184" type="curve"/>
      <point x="188" y="1147"/>
      <point x="157" y="1118"/>
      <point x="120" y="1118" type="curve"/>
      <point x="85" y="1118"/>
      <point x="54" y="1144"/>
      <point x="54" y="1184" type="curve"/>
      <point x="54" y="1310"/>
      <point x="121" y="1387"/>
    </contour>
  </outline>
</glyph>
<glyph name="quoteright" format="1">
  <advance width="256"/>
  <unicode hex="2019"/>
  <outline>
    <contour>
      <point x="94" y="1088" type="curve"/>
      <point x="58" y="1114" type="line"/>
      <point x="101" y="1167"/>
      <point x="117" y="1219"/>
      <point x="120" y="1262" type="curve"/>
      <point x="91" y="1270"/>
      <point x="66" y="1296"/>
      <point x="66" y="1328" type="curve"/>
      <point x="66" y="1365"/>
      <point x="97" y="1396"/>
      <point x="132" y="1396" type="curve"/>
      <point x="169" y="1396"/>
      <point x="200" y="1368"/>
      <point x="200" y="1328" type="curve"/>
      <point x="200" y="1206"/>
      <point x="135" y="1124"/>
    </contour>
  </outline>
</glyph>
<glyph name="quotesinglbase" format="1">
  <advance width="278"/>
  <unicode hex="201A"/>
  <outline>
    <contour>
      <point x="102" y="-154" type="curve"/>
      <point x="68" y="-130" type="line"/>
      <point x="108" y="-77"/>
      <point x="125" y="-23"/>
      <point x="128" y="20" type="curve"/>
      <point x="99" y="25"/>
      <point x="74" y="51"/>
      <point x="74" y="86" type="curve"/>
      <point x="74" y="123"/>
      <point x="105" y="152"/>
      <point x="140" y="152" type="curve"/>
      <point x="177" y="152"/>
      <point x="205" y="126"/>
      <point x="208" y="86" type="curve"/>
      <point x="208" y="-39"/>
      <point x="141" y="-120"/>
    </contour>
  </outline>
</glyph>
<glyph name="quotedblleft" format="1">
  <advance width="612"/>
  <unicode hex="201C"/>
  <outline>
    <contour>
      <point x="518" y="1424" type="curve"/>
      <point x="552" y="1400" type="line"/>
      <point x="509" y="1347"/>
      <point x="496" y="1293"/>
      <point x="488" y="1250" type="curve"/>
      <point x="523" y="1242"/>
      <point x="546" y="1216"/>
      <point x="546" y="1184" type="curve"/>
      <point x="546" y="1147"/>
      <point x="515" y="1118"/>
      <point x="478" y="1118" type="curve"/>
      <point x="443" y="1118"/>
      <point x="412" y="1144"/>
      <point x="412" y="1184" type="curve"/>
      <point x="412" y="1311"/>
      <point x="480" y="1386"/>
    </contour>
    <contour>
      <point x="158" y="1424" type="curve"/>
      <point x="194" y="1400" type="line"/>
      <point x="151" y="1347"/>
      <point x="135" y="1293"/>
      <point x="130" y="1250" type="curve"/>
      <point x="165" y="1242"/>
      <point x="188" y="1216"/>
      <point x="188" y="1184" type="curve"/>
      <point x="188" y="1147"/>
      <point x="157" y="1118"/>
      <point x="120" y="1118" type="curve"/>
      <point x="85" y="1118"/>
      <point x="54" y="1144"/>
      <point x="54" y="1184" type="curve"/>
      <point x="54" y="1310"/>
      <point x="121" y="1387"/>
    </contour>
  </outline>
</glyph>
<glyph name="quotedblright" format="1">
  <advance width="614"/>
  <unicode hex="201D"/>
  <outline>
    <contour>
      <point x="94" y="1088" type="curve"/>
      <point x="58" y="1114" type="line"/>
      <point x="101" y="1167"/>
      <point x="117" y="1219"/>
      <point x="120" y="1262" type="curve"/>
      <point x="91" y="1270"/>
      <point x="66" y="1296"/>
      <point x="66" y="1328" type="curve"/>
      <point x="66" y="1365"/>
      <point x="95" y="1396"/>
      <point x="132" y="1396" type="curve"/>
      <point x="169" y="1396"/>
      <point x="197" y="1368"/>
      <point x="200" y="1328" type="curve"/>
      <point x="200" y="1208"/>
      <point x="133" y="1122"/>
    </contour>
    <contour>
      <point x="452" y="1088" type="curve"/>
      <point x="418" y="1114" type="line"/>
      <point x="461" y="1167"/>
      <point x="475" y="1219"/>
      <point x="480" y="1262" type="curve"/>
      <point x="448" y="1270"/>
      <point x="424" y="1296"/>
      <point x="424" y="1328" type="curve"/>
      <point x="424" y="1365"/>
      <point x="455" y="1396"/>
      <point x="490" y="1396" type="curve"/>
      <point x="527" y="1396"/>
      <point x="558" y="1368"/>
      <point x="558" y="1328" type="curve"/>
      <point x="558" y="1206"/>
      <point x="493" y="1124"/>
    </contour>
  </outline>
</glyph>
<glyph name="quotedblbase" format="1">
  <advance width="636"/>
  <unicode hex="201E"/>
  <outline>
    <contour>
      <point x="102" y="-154" type="curve"/>
      <point x="68" y="-130" type="line"/>
      <point x="108" y="-77"/>
      <point x="125" y="-23"/>
      <point x="128" y="20" type="curve"/>
      <point x="99" y="25"/>
      <point x="74" y="51"/>
      <point x="74" y="86" type="curve"/>
      <point x="74" y="123"/>
      <point x="103" y="152"/>
      <point x="140" y="152" type="curve"/>
      <point x="177" y="152"/>
      <point x="205" y="126"/>
      <point x="208" y="86" type="curve"/>
      <point x="208" y="-39"/>
      <point x="141" y="-120"/>
    </contour>
    <contour>
      <point x="462" y="-154" type="curve"/>
      <point x="426" y="-130" type="line"/>
      <point x="469" y="-77"/>
      <point x="485" y="-23"/>
      <point x="488" y="20" type="curve"/>
      <point x="456" y="25"/>
      <point x="432" y="51"/>
      <point x="432" y="86" type="curve"/>
      <point x="432" y="123"/>
      <point x="463" y="152"/>
      <point x="498" y="152" type="curve"/>
      <point x="535" y="152"/>
      <point x="566" y="126"/>
      <point x="566" y="86" type="curve"/>
      <point x="566" y="-42"/>
      <point x="499" y="-117"/>
    </contour>
  </outline>
</glyph>
<glyph name="bullet" format="1">
  <advance width="684"/>
  <unicode hex="2022"/>
  <outline>
    <contour>
      <point x="536" y="870" type="curve"/>
      <point x="592" y="814"/>
      <point x="620" y="747"/>
      <point x="620" y="670" type="curve"/>
      <point x="620" y="595"/>
      <point x="592" y="527"/>
      <point x="536" y="474" type="curve"/>
      <point x="483" y="418"/>
      <point x="417" y="390"/>
      <point x="338" y="390" type="curve"/>
      <point x="262" y="390"/>
      <point x="196" y="418"/>
      <point x="140" y="474" type="curve"/>
      <point x="85" y="527"/>
      <point x="58" y="593"/>
      <point x="58" y="670" type="curve"/>
      <point x="58" y="749"/>
      <point x="85" y="815"/>
      <point x="140" y="870" type="curve"/>
      <point x="197" y="925"/>
      <point x="263" y="952"/>
      <point x="338" y="952" type="curve"/>
      <point x="415" y="952"/>
      <point x="481" y="925"/>
    </contour>
  </outline>
</glyph>
<glyph name="ellipsis" format="1">
  <advance width="976"/>
  <unicode hex="2026"/>
  <outline>
    <contour>
      <point x="136" y="126" type="curve"/>
      <point x="173" y="126"/>
      <point x="202" y="95"/>
      <point x="202" y="58" type="curve"/>
      <point x="202" y="23"/>
      <point x="173" y="-8"/>
      <point x="136" y="-8" type="curve"/>
      <point x="99" y="-8"/>
      <point x="70" y="23"/>
      <point x="70" y="58" type="curve"/>
      <point x="70" y="95"/>
      <point x="99" y="126"/>
    </contour>
    <contour>
      <point x="486" y="126" type="curve"/>
      <point x="521" y="126"/>
      <point x="552" y="95"/>
      <point x="552" y="58" type="curve"/>
      <point x="552" y="23"/>
      <point x="521" y="-8"/>
      <point x="486" y="-8" type="curve"/>
      <point x="449" y="-8"/>
      <point x="418" y="23"/>
      <point x="418" y="58" type="curve"/>
      <point x="418" y="95"/>
      <point x="449" y="126"/>
    </contour>
    <contour>
      <point x="842" y="126" type="curve"/>
      <point x="879" y="126"/>
      <point x="908" y="95"/>
      <point x="908" y="58" type="curve"/>
      <point x="908" y="23"/>
      <point x="879" y="-8"/>
      <point x="842" y="-8" type="curve"/>
      <point x="805" y="-8"/>
      <point x="776" y="23"/>
      <point x="776" y="58" type="curve"/>
      <point x="776" y="95"/>
      <point x="805" y="126"/>
    </contour>
  </outline>
</glyph>
